G04 EAGLE Gerber X2 export*
%TF.Part,Single*%
%TF.FileFunction,Other,Bottom Silkscreen*%
%TF.FilePolarity,Positive*%
%TF.GenerationSoftware,Autodesk,EAGLE,9.1.1*%
%TF.CreationDate,2018-07-22T08:43:09Z*%
G75*
%MOMM*%
%FSLAX34Y34*%
%LPD*%
%AMOC8*
5,1,8,0,0,1.08239X$1,22.5*%
G01*
%ADD10C,0.203200*%
%ADD11C,0.127000*%
%ADD12C,0.101600*%
%ADD13R,3.810000X1.270000*%


D10*
X64770Y548640D02*
X77470Y548640D01*
D11*
X55499Y547144D02*
X55499Y546072D01*
X55501Y546007D01*
X55507Y545943D01*
X55517Y545879D01*
X55530Y545815D01*
X55548Y545753D01*
X55569Y545692D01*
X55593Y545632D01*
X55622Y545574D01*
X55654Y545517D01*
X55689Y545463D01*
X55727Y545411D01*
X55769Y545361D01*
X55813Y545314D01*
X55860Y545270D01*
X55910Y545228D01*
X55962Y545190D01*
X56016Y545155D01*
X56073Y545123D01*
X56131Y545094D01*
X56191Y545070D01*
X56252Y545049D01*
X56314Y545031D01*
X56378Y545018D01*
X56442Y545008D01*
X56506Y545002D01*
X56571Y545000D01*
X56571Y544999D02*
X59253Y544999D01*
X59253Y545000D02*
X59318Y545002D01*
X59382Y545008D01*
X59446Y545018D01*
X59510Y545031D01*
X59572Y545049D01*
X59633Y545070D01*
X59693Y545094D01*
X59751Y545123D01*
X59808Y545155D01*
X59862Y545190D01*
X59914Y545228D01*
X59964Y545270D01*
X60011Y545314D01*
X60055Y545361D01*
X60097Y545411D01*
X60135Y545463D01*
X60170Y545517D01*
X60202Y545574D01*
X60231Y545632D01*
X60255Y545692D01*
X60276Y545753D01*
X60294Y545815D01*
X60307Y545879D01*
X60317Y545943D01*
X60323Y546007D01*
X60325Y546072D01*
X60325Y547144D01*
X60325Y551074D02*
X60323Y551142D01*
X60317Y551209D01*
X60308Y551276D01*
X60295Y551343D01*
X60278Y551408D01*
X60257Y551473D01*
X60233Y551536D01*
X60205Y551598D01*
X60174Y551658D01*
X60140Y551716D01*
X60102Y551772D01*
X60062Y551827D01*
X60018Y551878D01*
X59971Y551927D01*
X59922Y551974D01*
X59871Y552018D01*
X59816Y552058D01*
X59760Y552096D01*
X59702Y552130D01*
X59642Y552161D01*
X59580Y552189D01*
X59517Y552213D01*
X59452Y552234D01*
X59387Y552251D01*
X59320Y552264D01*
X59253Y552273D01*
X59186Y552279D01*
X59118Y552281D01*
X60325Y551074D02*
X60323Y550996D01*
X60317Y550918D01*
X60307Y550841D01*
X60294Y550764D01*
X60276Y550688D01*
X60255Y550613D01*
X60230Y550539D01*
X60201Y550467D01*
X60169Y550396D01*
X60133Y550327D01*
X60094Y550259D01*
X60051Y550194D01*
X60005Y550131D01*
X59956Y550070D01*
X59904Y550012D01*
X59849Y549957D01*
X59792Y549904D01*
X59732Y549855D01*
X59669Y549808D01*
X59604Y549765D01*
X59538Y549725D01*
X59469Y549688D01*
X59398Y549655D01*
X59326Y549625D01*
X59253Y549599D01*
X58180Y551879D02*
X58229Y551928D01*
X58281Y551975D01*
X58336Y552018D01*
X58393Y552059D01*
X58452Y552097D01*
X58513Y552131D01*
X58576Y552162D01*
X58640Y552190D01*
X58706Y552214D01*
X58772Y552234D01*
X58840Y552251D01*
X58909Y552264D01*
X58978Y552273D01*
X59048Y552279D01*
X59118Y552281D01*
X58180Y551879D02*
X55499Y549600D01*
X55499Y552281D01*
X85534Y542193D02*
X85602Y542191D01*
X85669Y542185D01*
X85736Y542176D01*
X85803Y542163D01*
X85868Y542146D01*
X85933Y542125D01*
X85996Y542101D01*
X86058Y542073D01*
X86118Y542042D01*
X86176Y542008D01*
X86232Y541970D01*
X86287Y541930D01*
X86338Y541886D01*
X86387Y541839D01*
X86434Y541790D01*
X86478Y541739D01*
X86518Y541684D01*
X86556Y541628D01*
X86590Y541570D01*
X86621Y541510D01*
X86649Y541448D01*
X86673Y541385D01*
X86694Y541320D01*
X86711Y541255D01*
X86724Y541188D01*
X86733Y541121D01*
X86739Y541054D01*
X86741Y540986D01*
X86739Y540908D01*
X86733Y540830D01*
X86723Y540753D01*
X86710Y540676D01*
X86692Y540600D01*
X86671Y540525D01*
X86646Y540451D01*
X86617Y540379D01*
X86585Y540308D01*
X86549Y540239D01*
X86510Y540171D01*
X86467Y540106D01*
X86421Y540043D01*
X86372Y539982D01*
X86320Y539924D01*
X86265Y539869D01*
X86208Y539816D01*
X86148Y539767D01*
X86085Y539720D01*
X86020Y539677D01*
X85954Y539637D01*
X85885Y539600D01*
X85814Y539567D01*
X85742Y539537D01*
X85669Y539511D01*
X84596Y541790D02*
X84645Y541839D01*
X84697Y541886D01*
X84752Y541929D01*
X84809Y541970D01*
X84868Y542008D01*
X84929Y542042D01*
X84992Y542073D01*
X85056Y542101D01*
X85122Y542125D01*
X85188Y542145D01*
X85256Y542162D01*
X85325Y542175D01*
X85394Y542184D01*
X85464Y542190D01*
X85534Y542192D01*
X84596Y541790D02*
X81915Y539511D01*
X81915Y542192D01*
X86741Y546472D02*
X86739Y546540D01*
X86733Y546607D01*
X86724Y546674D01*
X86711Y546741D01*
X86694Y546806D01*
X86673Y546871D01*
X86649Y546934D01*
X86621Y546996D01*
X86590Y547056D01*
X86556Y547114D01*
X86518Y547170D01*
X86478Y547225D01*
X86434Y547276D01*
X86387Y547325D01*
X86338Y547372D01*
X86287Y547416D01*
X86232Y547456D01*
X86176Y547494D01*
X86118Y547528D01*
X86058Y547559D01*
X85996Y547587D01*
X85933Y547611D01*
X85868Y547632D01*
X85803Y547649D01*
X85736Y547662D01*
X85669Y547671D01*
X85602Y547677D01*
X85534Y547679D01*
X86741Y546472D02*
X86739Y546394D01*
X86733Y546316D01*
X86723Y546239D01*
X86710Y546162D01*
X86692Y546086D01*
X86671Y546011D01*
X86646Y545937D01*
X86617Y545865D01*
X86585Y545794D01*
X86549Y545725D01*
X86510Y545657D01*
X86467Y545592D01*
X86421Y545529D01*
X86372Y545468D01*
X86320Y545410D01*
X86265Y545355D01*
X86208Y545302D01*
X86148Y545253D01*
X86085Y545206D01*
X86020Y545163D01*
X85954Y545123D01*
X85885Y545086D01*
X85814Y545053D01*
X85742Y545023D01*
X85669Y544997D01*
X84596Y547277D02*
X84645Y547326D01*
X84697Y547373D01*
X84752Y547416D01*
X84809Y547457D01*
X84868Y547495D01*
X84929Y547529D01*
X84992Y547560D01*
X85056Y547588D01*
X85122Y547612D01*
X85188Y547632D01*
X85256Y547649D01*
X85325Y547662D01*
X85394Y547671D01*
X85464Y547677D01*
X85534Y547679D01*
X84596Y547276D02*
X81915Y544998D01*
X81915Y547679D01*
X80306Y550620D02*
X85132Y550620D01*
X85132Y551961D01*
X85130Y552016D01*
X85125Y552070D01*
X85115Y552125D01*
X85102Y552178D01*
X85086Y552230D01*
X85065Y552281D01*
X85042Y552331D01*
X85015Y552379D01*
X84985Y552425D01*
X84952Y552468D01*
X84916Y552510D01*
X84877Y552549D01*
X84835Y552585D01*
X84792Y552618D01*
X84746Y552648D01*
X84698Y552675D01*
X84648Y552698D01*
X84597Y552719D01*
X84545Y552735D01*
X84492Y552748D01*
X84437Y552758D01*
X84383Y552763D01*
X84328Y552765D01*
X82719Y552765D01*
X82664Y552763D01*
X82610Y552758D01*
X82555Y552748D01*
X82502Y552735D01*
X82450Y552719D01*
X82399Y552698D01*
X82349Y552675D01*
X82301Y552648D01*
X82255Y552618D01*
X82212Y552585D01*
X82170Y552549D01*
X82131Y552510D01*
X82095Y552468D01*
X82062Y552425D01*
X82032Y552379D01*
X82005Y552331D01*
X81982Y552281D01*
X81961Y552230D01*
X81945Y552178D01*
X81932Y552125D01*
X81922Y552070D01*
X81917Y552016D01*
X81915Y551961D01*
X81915Y550620D01*
X81915Y555624D02*
X86741Y555624D01*
X86741Y557769D01*
X84596Y557769D02*
X84596Y555624D01*
X761365Y44831D02*
X761365Y40005D01*
X761365Y44831D02*
X760024Y44831D01*
X759953Y44829D01*
X759881Y44823D01*
X759811Y44814D01*
X759741Y44801D01*
X759671Y44784D01*
X759603Y44763D01*
X759536Y44739D01*
X759470Y44711D01*
X759406Y44680D01*
X759343Y44645D01*
X759283Y44607D01*
X759224Y44566D01*
X759168Y44522D01*
X759114Y44475D01*
X759063Y44426D01*
X759015Y44373D01*
X758969Y44318D01*
X758927Y44261D01*
X758887Y44201D01*
X758851Y44140D01*
X758818Y44076D01*
X758789Y44011D01*
X758763Y43945D01*
X758740Y43877D01*
X758721Y43808D01*
X758706Y43738D01*
X758695Y43668D01*
X758687Y43597D01*
X758683Y43526D01*
X758683Y43454D01*
X758687Y43383D01*
X758695Y43312D01*
X758706Y43242D01*
X758721Y43172D01*
X758740Y43103D01*
X758763Y43035D01*
X758789Y42969D01*
X758818Y42904D01*
X758851Y42840D01*
X758887Y42779D01*
X758927Y42719D01*
X758969Y42662D01*
X759015Y42607D01*
X759063Y42554D01*
X759114Y42505D01*
X759168Y42458D01*
X759224Y42414D01*
X759283Y42373D01*
X759343Y42335D01*
X759406Y42300D01*
X759470Y42269D01*
X759536Y42241D01*
X759603Y42217D01*
X759671Y42196D01*
X759741Y42179D01*
X759811Y42166D01*
X759881Y42157D01*
X759953Y42151D01*
X760024Y42149D01*
X760024Y42150D02*
X761365Y42150D01*
X755927Y40005D02*
X755927Y44831D01*
X754319Y42150D01*
X752710Y44831D01*
X752710Y40005D01*
X748150Y44831D02*
X748082Y44829D01*
X748015Y44823D01*
X747948Y44814D01*
X747881Y44801D01*
X747816Y44784D01*
X747751Y44763D01*
X747688Y44739D01*
X747626Y44711D01*
X747566Y44680D01*
X747508Y44646D01*
X747452Y44608D01*
X747397Y44568D01*
X747346Y44524D01*
X747297Y44477D01*
X747250Y44428D01*
X747206Y44377D01*
X747166Y44322D01*
X747128Y44266D01*
X747094Y44208D01*
X747063Y44148D01*
X747035Y44086D01*
X747011Y44023D01*
X746990Y43958D01*
X746973Y43893D01*
X746960Y43826D01*
X746951Y43759D01*
X746945Y43692D01*
X746943Y43624D01*
X748150Y44831D02*
X748228Y44829D01*
X748306Y44823D01*
X748383Y44813D01*
X748460Y44800D01*
X748536Y44782D01*
X748611Y44761D01*
X748685Y44736D01*
X748757Y44707D01*
X748828Y44675D01*
X748897Y44639D01*
X748965Y44600D01*
X749030Y44557D01*
X749093Y44511D01*
X749154Y44462D01*
X749212Y44410D01*
X749267Y44355D01*
X749320Y44298D01*
X749369Y44238D01*
X749416Y44175D01*
X749459Y44110D01*
X749499Y44044D01*
X749536Y43975D01*
X749569Y43904D01*
X749599Y43832D01*
X749625Y43758D01*
X747345Y42686D02*
X747296Y42735D01*
X747249Y42787D01*
X747206Y42842D01*
X747165Y42899D01*
X747127Y42958D01*
X747093Y43019D01*
X747062Y43082D01*
X747034Y43146D01*
X747010Y43212D01*
X746990Y43278D01*
X746973Y43346D01*
X746960Y43415D01*
X746951Y43484D01*
X746945Y43554D01*
X746943Y43624D01*
X747345Y42686D02*
X749624Y40005D01*
X746943Y40005D01*
X744577Y40005D02*
X744577Y40273D01*
X744309Y40273D01*
X744309Y40005D01*
X744577Y40005D01*
X741943Y40005D02*
X740335Y40005D01*
X740270Y40007D01*
X740206Y40013D01*
X740142Y40023D01*
X740078Y40036D01*
X740016Y40054D01*
X739955Y40075D01*
X739895Y40099D01*
X739837Y40128D01*
X739780Y40160D01*
X739726Y40195D01*
X739674Y40233D01*
X739624Y40275D01*
X739577Y40319D01*
X739533Y40366D01*
X739491Y40416D01*
X739453Y40468D01*
X739418Y40522D01*
X739386Y40579D01*
X739357Y40637D01*
X739333Y40697D01*
X739312Y40758D01*
X739294Y40820D01*
X739281Y40884D01*
X739271Y40948D01*
X739265Y41012D01*
X739263Y41077D01*
X739262Y41077D02*
X739262Y41614D01*
X739263Y41614D02*
X739265Y41679D01*
X739271Y41743D01*
X739281Y41807D01*
X739294Y41871D01*
X739312Y41933D01*
X739333Y41994D01*
X739357Y42054D01*
X739386Y42112D01*
X739418Y42169D01*
X739453Y42223D01*
X739491Y42275D01*
X739533Y42325D01*
X739577Y42372D01*
X739624Y42416D01*
X739674Y42458D01*
X739726Y42496D01*
X739780Y42531D01*
X739837Y42563D01*
X739895Y42592D01*
X739955Y42616D01*
X740016Y42637D01*
X740078Y42655D01*
X740142Y42668D01*
X740206Y42678D01*
X740270Y42684D01*
X740335Y42686D01*
X741943Y42686D01*
X741943Y44831D01*
X739262Y44831D01*
X736738Y39469D02*
X734593Y39469D01*
X730642Y40005D02*
X730577Y40007D01*
X730513Y40013D01*
X730449Y40023D01*
X730385Y40036D01*
X730323Y40054D01*
X730262Y40075D01*
X730202Y40099D01*
X730144Y40128D01*
X730087Y40160D01*
X730033Y40195D01*
X729981Y40233D01*
X729931Y40275D01*
X729884Y40319D01*
X729840Y40366D01*
X729798Y40416D01*
X729760Y40468D01*
X729725Y40522D01*
X729693Y40579D01*
X729664Y40637D01*
X729640Y40697D01*
X729619Y40758D01*
X729601Y40820D01*
X729588Y40884D01*
X729578Y40948D01*
X729572Y41012D01*
X729570Y41077D01*
X730642Y40005D02*
X730736Y40007D01*
X730830Y40013D01*
X730924Y40023D01*
X731017Y40036D01*
X731109Y40054D01*
X731201Y40075D01*
X731292Y40100D01*
X731382Y40129D01*
X731470Y40162D01*
X731557Y40198D01*
X731642Y40238D01*
X731726Y40281D01*
X731807Y40328D01*
X731887Y40378D01*
X731965Y40431D01*
X732040Y40488D01*
X732113Y40547D01*
X732183Y40610D01*
X732251Y40675D01*
X732116Y43759D02*
X732114Y43824D01*
X732108Y43888D01*
X732098Y43952D01*
X732085Y44016D01*
X732067Y44078D01*
X732046Y44139D01*
X732022Y44199D01*
X731993Y44257D01*
X731961Y44314D01*
X731926Y44368D01*
X731888Y44420D01*
X731846Y44470D01*
X731802Y44517D01*
X731755Y44561D01*
X731705Y44603D01*
X731653Y44641D01*
X731599Y44676D01*
X731542Y44708D01*
X731484Y44737D01*
X731424Y44761D01*
X731363Y44782D01*
X731301Y44800D01*
X731237Y44813D01*
X731173Y44823D01*
X731109Y44829D01*
X731044Y44831D01*
X730958Y44829D01*
X730872Y44824D01*
X730786Y44814D01*
X730701Y44801D01*
X730616Y44785D01*
X730532Y44765D01*
X730449Y44741D01*
X730367Y44714D01*
X730287Y44683D01*
X730207Y44649D01*
X730130Y44611D01*
X730054Y44570D01*
X729980Y44526D01*
X729907Y44479D01*
X729837Y44429D01*
X731581Y42821D02*
X731634Y42854D01*
X731685Y42891D01*
X731734Y42930D01*
X731781Y42972D01*
X731825Y43017D01*
X731866Y43064D01*
X731905Y43113D01*
X731941Y43165D01*
X731974Y43219D01*
X732003Y43274D01*
X732029Y43331D01*
X732052Y43390D01*
X732072Y43449D01*
X732088Y43510D01*
X732101Y43571D01*
X732110Y43634D01*
X732115Y43696D01*
X732117Y43759D01*
X730106Y42015D02*
X730053Y41982D01*
X730002Y41945D01*
X729953Y41906D01*
X729906Y41864D01*
X729862Y41819D01*
X729821Y41772D01*
X729782Y41723D01*
X729746Y41671D01*
X729713Y41617D01*
X729684Y41562D01*
X729658Y41505D01*
X729635Y41446D01*
X729615Y41387D01*
X729599Y41326D01*
X729586Y41265D01*
X729577Y41202D01*
X729572Y41140D01*
X729570Y41077D01*
X730106Y42016D02*
X731581Y42820D01*
X726745Y40005D02*
X724600Y40005D01*
X726745Y40005D02*
X726745Y44831D01*
X724600Y44831D01*
X725136Y42686D02*
X726745Y42686D01*
X722010Y44831D02*
X722010Y40005D01*
X719329Y40005D02*
X722010Y44831D01*
X719329Y44831D02*
X719329Y40005D01*
X714915Y40005D02*
X714850Y40007D01*
X714786Y40013D01*
X714722Y40023D01*
X714658Y40036D01*
X714596Y40054D01*
X714535Y40075D01*
X714475Y40099D01*
X714417Y40128D01*
X714360Y40160D01*
X714306Y40195D01*
X714254Y40233D01*
X714204Y40275D01*
X714157Y40319D01*
X714113Y40366D01*
X714071Y40416D01*
X714033Y40468D01*
X713998Y40522D01*
X713966Y40579D01*
X713937Y40637D01*
X713913Y40697D01*
X713892Y40758D01*
X713874Y40820D01*
X713861Y40884D01*
X713851Y40948D01*
X713845Y41012D01*
X713843Y41077D01*
X714915Y40005D02*
X715009Y40007D01*
X715103Y40013D01*
X715197Y40023D01*
X715290Y40036D01*
X715382Y40054D01*
X715474Y40075D01*
X715565Y40100D01*
X715655Y40129D01*
X715743Y40162D01*
X715830Y40198D01*
X715915Y40238D01*
X715999Y40281D01*
X716080Y40328D01*
X716160Y40378D01*
X716238Y40431D01*
X716313Y40488D01*
X716386Y40547D01*
X716456Y40610D01*
X716524Y40675D01*
X716389Y43759D02*
X716387Y43824D01*
X716381Y43888D01*
X716371Y43952D01*
X716358Y44016D01*
X716340Y44078D01*
X716319Y44139D01*
X716295Y44199D01*
X716266Y44257D01*
X716234Y44314D01*
X716199Y44368D01*
X716161Y44420D01*
X716119Y44470D01*
X716075Y44517D01*
X716028Y44561D01*
X715978Y44603D01*
X715926Y44641D01*
X715872Y44676D01*
X715815Y44708D01*
X715757Y44737D01*
X715697Y44761D01*
X715636Y44782D01*
X715574Y44800D01*
X715510Y44813D01*
X715446Y44823D01*
X715382Y44829D01*
X715317Y44831D01*
X715231Y44829D01*
X715145Y44824D01*
X715059Y44814D01*
X714974Y44801D01*
X714889Y44785D01*
X714805Y44765D01*
X714722Y44741D01*
X714640Y44714D01*
X714560Y44683D01*
X714480Y44649D01*
X714403Y44611D01*
X714327Y44570D01*
X714253Y44526D01*
X714180Y44479D01*
X714110Y44429D01*
X715853Y42821D02*
X715906Y42854D01*
X715957Y42891D01*
X716006Y42930D01*
X716053Y42972D01*
X716097Y43017D01*
X716138Y43064D01*
X716177Y43113D01*
X716213Y43165D01*
X716246Y43219D01*
X716275Y43274D01*
X716301Y43331D01*
X716324Y43390D01*
X716344Y43449D01*
X716360Y43510D01*
X716373Y43571D01*
X716382Y43634D01*
X716387Y43696D01*
X716389Y43759D01*
X714378Y42015D02*
X714325Y41982D01*
X714274Y41945D01*
X714225Y41906D01*
X714178Y41864D01*
X714134Y41819D01*
X714093Y41772D01*
X714054Y41723D01*
X714018Y41671D01*
X713985Y41617D01*
X713956Y41562D01*
X713930Y41505D01*
X713907Y41446D01*
X713887Y41387D01*
X713871Y41326D01*
X713858Y41265D01*
X713849Y41202D01*
X713844Y41140D01*
X713842Y41077D01*
X714378Y42016D02*
X715853Y42820D01*
X711220Y43490D02*
X711220Y41346D01*
X711220Y43490D02*
X711218Y43561D01*
X711212Y43633D01*
X711203Y43703D01*
X711190Y43773D01*
X711173Y43843D01*
X711152Y43911D01*
X711128Y43978D01*
X711100Y44044D01*
X711069Y44108D01*
X711034Y44171D01*
X710996Y44231D01*
X710955Y44290D01*
X710911Y44346D01*
X710864Y44400D01*
X710815Y44451D01*
X710762Y44499D01*
X710707Y44545D01*
X710650Y44587D01*
X710590Y44627D01*
X710529Y44663D01*
X710465Y44696D01*
X710400Y44725D01*
X710334Y44751D01*
X710266Y44774D01*
X710197Y44793D01*
X710127Y44808D01*
X710057Y44819D01*
X709986Y44827D01*
X709915Y44831D01*
X709843Y44831D01*
X709772Y44827D01*
X709701Y44819D01*
X709631Y44808D01*
X709561Y44793D01*
X709492Y44774D01*
X709424Y44751D01*
X709358Y44725D01*
X709293Y44696D01*
X709229Y44663D01*
X709168Y44627D01*
X709108Y44587D01*
X709051Y44545D01*
X708996Y44499D01*
X708943Y44451D01*
X708894Y44400D01*
X708847Y44346D01*
X708803Y44290D01*
X708762Y44231D01*
X708724Y44171D01*
X708689Y44108D01*
X708658Y44044D01*
X708630Y43978D01*
X708606Y43911D01*
X708585Y43843D01*
X708568Y43773D01*
X708555Y43703D01*
X708546Y43633D01*
X708540Y43561D01*
X708538Y43490D01*
X708539Y43490D02*
X708539Y41346D01*
X708538Y41346D02*
X708540Y41275D01*
X708546Y41203D01*
X708555Y41133D01*
X708568Y41063D01*
X708585Y40993D01*
X708606Y40925D01*
X708630Y40858D01*
X708658Y40792D01*
X708689Y40728D01*
X708724Y40665D01*
X708762Y40605D01*
X708803Y40546D01*
X708847Y40490D01*
X708894Y40436D01*
X708943Y40385D01*
X708996Y40337D01*
X709051Y40291D01*
X709108Y40249D01*
X709168Y40209D01*
X709229Y40173D01*
X709293Y40140D01*
X709358Y40111D01*
X709424Y40085D01*
X709492Y40062D01*
X709561Y40043D01*
X709631Y40028D01*
X709701Y40017D01*
X709772Y40009D01*
X709843Y40005D01*
X709915Y40005D01*
X709986Y40009D01*
X710057Y40017D01*
X710127Y40028D01*
X710197Y40043D01*
X710266Y40062D01*
X710334Y40085D01*
X710400Y40111D01*
X710465Y40140D01*
X710529Y40173D01*
X710590Y40209D01*
X710650Y40249D01*
X710707Y40291D01*
X710762Y40337D01*
X710815Y40385D01*
X710864Y40436D01*
X710911Y40490D01*
X710955Y40546D01*
X710996Y40605D01*
X711034Y40665D01*
X711069Y40728D01*
X711100Y40792D01*
X711128Y40858D01*
X711152Y40925D01*
X711173Y40993D01*
X711190Y41063D01*
X711203Y41133D01*
X711212Y41203D01*
X711218Y41275D01*
X711220Y41346D01*
X705487Y40005D02*
X705487Y44831D01*
X704146Y44831D01*
X704075Y44829D01*
X704003Y44823D01*
X703933Y44814D01*
X703863Y44801D01*
X703793Y44784D01*
X703725Y44763D01*
X703658Y44739D01*
X703592Y44711D01*
X703528Y44680D01*
X703465Y44645D01*
X703405Y44607D01*
X703346Y44566D01*
X703290Y44522D01*
X703236Y44475D01*
X703185Y44426D01*
X703137Y44373D01*
X703091Y44318D01*
X703049Y44261D01*
X703009Y44201D01*
X702973Y44140D01*
X702940Y44076D01*
X702911Y44011D01*
X702885Y43945D01*
X702862Y43877D01*
X702843Y43808D01*
X702828Y43738D01*
X702817Y43668D01*
X702809Y43597D01*
X702805Y43526D01*
X702805Y43454D01*
X702809Y43383D01*
X702817Y43312D01*
X702828Y43242D01*
X702843Y43172D01*
X702862Y43103D01*
X702885Y43035D01*
X702911Y42969D01*
X702940Y42904D01*
X702973Y42840D01*
X703009Y42779D01*
X703049Y42719D01*
X703091Y42662D01*
X703137Y42607D01*
X703185Y42554D01*
X703236Y42505D01*
X703290Y42458D01*
X703346Y42414D01*
X703405Y42373D01*
X703465Y42335D01*
X703528Y42300D01*
X703592Y42269D01*
X703658Y42241D01*
X703725Y42217D01*
X703793Y42196D01*
X703863Y42179D01*
X703933Y42166D01*
X704003Y42157D01*
X704075Y42151D01*
X704146Y42149D01*
X704146Y42150D02*
X705487Y42150D01*
X703878Y42150D02*
X702806Y40005D01*
X421005Y411184D02*
X421007Y411249D01*
X421013Y411313D01*
X421023Y411377D01*
X421036Y411441D01*
X421054Y411503D01*
X421075Y411564D01*
X421099Y411624D01*
X421128Y411682D01*
X421160Y411739D01*
X421195Y411793D01*
X421233Y411845D01*
X421275Y411895D01*
X421319Y411942D01*
X421366Y411986D01*
X421416Y412028D01*
X421468Y412066D01*
X421522Y412101D01*
X421579Y412133D01*
X421637Y412162D01*
X421697Y412186D01*
X421758Y412207D01*
X421820Y412225D01*
X421884Y412238D01*
X421948Y412248D01*
X422012Y412254D01*
X422077Y412256D01*
X421005Y411184D02*
X421007Y411090D01*
X421013Y410996D01*
X421023Y410902D01*
X421036Y410809D01*
X421054Y410717D01*
X421075Y410625D01*
X421100Y410534D01*
X421129Y410444D01*
X421162Y410356D01*
X421198Y410269D01*
X421238Y410184D01*
X421281Y410100D01*
X421328Y410019D01*
X421378Y409939D01*
X421431Y409861D01*
X421488Y409786D01*
X421547Y409713D01*
X421610Y409643D01*
X421675Y409575D01*
X424759Y409709D02*
X424824Y409711D01*
X424888Y409717D01*
X424952Y409727D01*
X425016Y409740D01*
X425078Y409758D01*
X425139Y409779D01*
X425199Y409803D01*
X425257Y409832D01*
X425314Y409864D01*
X425368Y409899D01*
X425420Y409937D01*
X425470Y409979D01*
X425517Y410023D01*
X425561Y410070D01*
X425603Y410120D01*
X425641Y410172D01*
X425676Y410226D01*
X425708Y410283D01*
X425737Y410341D01*
X425761Y410401D01*
X425782Y410462D01*
X425800Y410524D01*
X425813Y410588D01*
X425823Y410652D01*
X425829Y410716D01*
X425831Y410781D01*
X425829Y410867D01*
X425824Y410953D01*
X425814Y411039D01*
X425801Y411124D01*
X425785Y411209D01*
X425765Y411293D01*
X425741Y411376D01*
X425714Y411458D01*
X425683Y411538D01*
X425649Y411618D01*
X425611Y411695D01*
X425570Y411771D01*
X425526Y411845D01*
X425479Y411917D01*
X425429Y411988D01*
X423821Y410245D02*
X423854Y410192D01*
X423891Y410141D01*
X423930Y410092D01*
X423972Y410045D01*
X424017Y410001D01*
X424064Y409960D01*
X424113Y409921D01*
X424165Y409885D01*
X424219Y409852D01*
X424274Y409823D01*
X424331Y409797D01*
X424390Y409774D01*
X424449Y409754D01*
X424510Y409738D01*
X424571Y409725D01*
X424634Y409716D01*
X424696Y409711D01*
X424759Y409709D01*
X423015Y411720D02*
X422982Y411773D01*
X422945Y411824D01*
X422906Y411873D01*
X422864Y411920D01*
X422819Y411964D01*
X422772Y412005D01*
X422723Y412044D01*
X422671Y412080D01*
X422617Y412113D01*
X422562Y412142D01*
X422505Y412168D01*
X422446Y412191D01*
X422387Y412211D01*
X422326Y412227D01*
X422265Y412240D01*
X422202Y412249D01*
X422140Y412254D01*
X422077Y412256D01*
X423016Y411720D02*
X423820Y410245D01*
X425831Y415208D02*
X421005Y415208D01*
X425831Y415208D02*
X425831Y416548D01*
X425829Y416619D01*
X425823Y416691D01*
X425814Y416761D01*
X425801Y416831D01*
X425784Y416901D01*
X425763Y416969D01*
X425739Y417036D01*
X425711Y417102D01*
X425680Y417166D01*
X425645Y417229D01*
X425607Y417289D01*
X425566Y417348D01*
X425522Y417404D01*
X425475Y417458D01*
X425426Y417509D01*
X425373Y417557D01*
X425318Y417603D01*
X425261Y417645D01*
X425201Y417685D01*
X425140Y417721D01*
X425076Y417754D01*
X425011Y417783D01*
X424945Y417809D01*
X424877Y417832D01*
X424808Y417851D01*
X424738Y417866D01*
X424668Y417877D01*
X424597Y417885D01*
X424526Y417889D01*
X424454Y417889D01*
X424383Y417885D01*
X424312Y417877D01*
X424242Y417866D01*
X424172Y417851D01*
X424103Y417832D01*
X424035Y417809D01*
X423969Y417783D01*
X423904Y417754D01*
X423840Y417721D01*
X423779Y417685D01*
X423719Y417645D01*
X423662Y417603D01*
X423607Y417557D01*
X423554Y417509D01*
X423505Y417458D01*
X423458Y417404D01*
X423414Y417348D01*
X423373Y417289D01*
X423335Y417229D01*
X423300Y417166D01*
X423269Y417102D01*
X423241Y417036D01*
X423217Y416969D01*
X423196Y416901D01*
X423179Y416831D01*
X423166Y416761D01*
X423157Y416691D01*
X423151Y416619D01*
X423149Y416548D01*
X423150Y416548D02*
X423150Y415208D01*
X421005Y420097D02*
X425831Y421705D01*
X421005Y423314D01*
X422212Y422912D02*
X422212Y420499D01*
X421005Y426098D02*
X425831Y426098D01*
X425831Y427438D01*
X425829Y427509D01*
X425823Y427581D01*
X425814Y427651D01*
X425801Y427721D01*
X425784Y427791D01*
X425763Y427859D01*
X425739Y427926D01*
X425711Y427992D01*
X425680Y428056D01*
X425645Y428119D01*
X425607Y428179D01*
X425566Y428238D01*
X425522Y428294D01*
X425475Y428348D01*
X425426Y428399D01*
X425373Y428447D01*
X425318Y428493D01*
X425261Y428535D01*
X425201Y428575D01*
X425140Y428611D01*
X425076Y428644D01*
X425011Y428673D01*
X424945Y428699D01*
X424877Y428722D01*
X424808Y428741D01*
X424738Y428756D01*
X424668Y428767D01*
X424597Y428775D01*
X424526Y428779D01*
X424454Y428779D01*
X424383Y428775D01*
X424312Y428767D01*
X424242Y428756D01*
X424172Y428741D01*
X424103Y428722D01*
X424035Y428699D01*
X423969Y428673D01*
X423904Y428644D01*
X423840Y428611D01*
X423779Y428575D01*
X423719Y428535D01*
X423662Y428493D01*
X423607Y428447D01*
X423554Y428399D01*
X423505Y428348D01*
X423458Y428294D01*
X423414Y428238D01*
X423373Y428179D01*
X423335Y428119D01*
X423300Y428056D01*
X423269Y427992D01*
X423241Y427926D01*
X423217Y427859D01*
X423196Y427791D01*
X423179Y427721D01*
X423166Y427651D01*
X423157Y427581D01*
X423151Y427509D01*
X423149Y427438D01*
X423150Y427438D02*
X423150Y426098D01*
X423150Y427706D02*
X421005Y428779D01*
X421005Y431850D02*
X425831Y431850D01*
X425831Y434531D02*
X422882Y431850D01*
X423954Y432922D02*
X421005Y434531D01*
X421005Y437209D02*
X425831Y437209D01*
X425831Y439354D01*
X423686Y439354D02*
X423686Y437209D01*
X422346Y441945D02*
X425831Y441945D01*
X422346Y441944D02*
X422275Y441946D01*
X422203Y441952D01*
X422133Y441961D01*
X422063Y441974D01*
X421993Y441991D01*
X421925Y442012D01*
X421858Y442036D01*
X421792Y442064D01*
X421728Y442095D01*
X421665Y442130D01*
X421605Y442168D01*
X421546Y442209D01*
X421490Y442253D01*
X421436Y442300D01*
X421385Y442349D01*
X421337Y442402D01*
X421291Y442457D01*
X421249Y442514D01*
X421209Y442574D01*
X421173Y442635D01*
X421140Y442699D01*
X421111Y442764D01*
X421085Y442830D01*
X421062Y442898D01*
X421043Y442967D01*
X421028Y443037D01*
X421017Y443107D01*
X421009Y443178D01*
X421005Y443249D01*
X421005Y443321D01*
X421009Y443392D01*
X421017Y443463D01*
X421028Y443533D01*
X421043Y443603D01*
X421062Y443672D01*
X421085Y443740D01*
X421111Y443806D01*
X421140Y443871D01*
X421173Y443935D01*
X421209Y443996D01*
X421249Y444056D01*
X421291Y444113D01*
X421337Y444168D01*
X421385Y444221D01*
X421436Y444270D01*
X421490Y444317D01*
X421546Y444361D01*
X421605Y444402D01*
X421665Y444440D01*
X421728Y444475D01*
X421792Y444506D01*
X421858Y444534D01*
X421925Y444558D01*
X421993Y444579D01*
X422063Y444596D01*
X422133Y444609D01*
X422203Y444618D01*
X422275Y444624D01*
X422346Y444626D01*
X425831Y444626D01*
X425831Y447797D02*
X421005Y447797D01*
X421005Y450478D02*
X425831Y447797D01*
X425831Y450478D02*
X421005Y450478D01*
X420469Y453185D02*
X420469Y455330D01*
X421005Y458057D02*
X421005Y460202D01*
X421005Y458057D02*
X425831Y458057D01*
X425831Y460202D01*
X423686Y459666D02*
X423686Y458057D01*
X425831Y462793D02*
X421005Y462793D01*
X421005Y465474D02*
X425831Y462793D01*
X425831Y465474D02*
X421005Y465474D01*
X421005Y469803D02*
X425831Y468194D01*
X425831Y471411D02*
X421005Y469803D01*
X420469Y473668D02*
X420469Y475813D01*
X421005Y479381D02*
X421005Y480454D01*
X421005Y479381D02*
X421007Y479316D01*
X421013Y479252D01*
X421023Y479188D01*
X421036Y479124D01*
X421054Y479062D01*
X421075Y479001D01*
X421099Y478941D01*
X421128Y478883D01*
X421160Y478826D01*
X421195Y478772D01*
X421233Y478720D01*
X421275Y478670D01*
X421319Y478623D01*
X421366Y478579D01*
X421416Y478537D01*
X421468Y478499D01*
X421522Y478464D01*
X421579Y478432D01*
X421637Y478403D01*
X421697Y478379D01*
X421758Y478358D01*
X421820Y478340D01*
X421884Y478327D01*
X421948Y478317D01*
X422012Y478311D01*
X422077Y478309D01*
X424759Y478309D01*
X424824Y478311D01*
X424888Y478317D01*
X424952Y478327D01*
X425016Y478340D01*
X425078Y478358D01*
X425139Y478379D01*
X425199Y478403D01*
X425257Y478432D01*
X425314Y478464D01*
X425368Y478499D01*
X425420Y478537D01*
X425470Y478579D01*
X425517Y478623D01*
X425561Y478670D01*
X425603Y478720D01*
X425641Y478772D01*
X425676Y478826D01*
X425708Y478883D01*
X425737Y478941D01*
X425761Y479001D01*
X425782Y479062D01*
X425800Y479124D01*
X425813Y479188D01*
X425823Y479252D01*
X425829Y479316D01*
X425831Y479381D01*
X425831Y480454D01*
X424490Y482909D02*
X422346Y482909D01*
X424490Y482909D02*
X424561Y482911D01*
X424633Y482917D01*
X424703Y482926D01*
X424773Y482939D01*
X424843Y482956D01*
X424911Y482977D01*
X424978Y483001D01*
X425044Y483029D01*
X425108Y483060D01*
X425171Y483095D01*
X425231Y483133D01*
X425290Y483174D01*
X425346Y483218D01*
X425400Y483265D01*
X425451Y483314D01*
X425499Y483367D01*
X425545Y483422D01*
X425587Y483479D01*
X425627Y483539D01*
X425663Y483600D01*
X425696Y483664D01*
X425725Y483729D01*
X425751Y483795D01*
X425774Y483863D01*
X425793Y483932D01*
X425808Y484002D01*
X425819Y484072D01*
X425827Y484143D01*
X425831Y484214D01*
X425831Y484286D01*
X425827Y484357D01*
X425819Y484428D01*
X425808Y484498D01*
X425793Y484568D01*
X425774Y484637D01*
X425751Y484705D01*
X425725Y484771D01*
X425696Y484836D01*
X425663Y484900D01*
X425627Y484961D01*
X425587Y485021D01*
X425545Y485078D01*
X425499Y485133D01*
X425451Y485186D01*
X425400Y485235D01*
X425346Y485282D01*
X425290Y485326D01*
X425231Y485367D01*
X425171Y485405D01*
X425108Y485440D01*
X425044Y485471D01*
X424978Y485499D01*
X424911Y485523D01*
X424843Y485544D01*
X424773Y485561D01*
X424703Y485574D01*
X424633Y485583D01*
X424561Y485589D01*
X424490Y485591D01*
X422346Y485591D01*
X422275Y485589D01*
X422203Y485583D01*
X422133Y485574D01*
X422063Y485561D01*
X421993Y485544D01*
X421925Y485523D01*
X421858Y485499D01*
X421792Y485471D01*
X421728Y485440D01*
X421665Y485405D01*
X421605Y485367D01*
X421546Y485326D01*
X421490Y485282D01*
X421436Y485235D01*
X421385Y485186D01*
X421337Y485133D01*
X421291Y485078D01*
X421249Y485021D01*
X421209Y484961D01*
X421173Y484900D01*
X421140Y484836D01*
X421111Y484771D01*
X421085Y484705D01*
X421062Y484637D01*
X421043Y484568D01*
X421028Y484498D01*
X421017Y484428D01*
X421009Y484357D01*
X421005Y484286D01*
X421005Y484214D01*
X421009Y484143D01*
X421017Y484072D01*
X421028Y484002D01*
X421043Y483932D01*
X421062Y483863D01*
X421085Y483795D01*
X421111Y483729D01*
X421140Y483664D01*
X421173Y483600D01*
X421209Y483539D01*
X421249Y483479D01*
X421291Y483422D01*
X421337Y483367D01*
X421385Y483314D01*
X421436Y483265D01*
X421490Y483218D01*
X421546Y483174D01*
X421605Y483133D01*
X421665Y483095D01*
X421728Y483060D01*
X421792Y483029D01*
X421858Y483001D01*
X421925Y482977D01*
X421993Y482956D01*
X422063Y482939D01*
X422133Y482926D01*
X422203Y482917D01*
X422275Y482911D01*
X422346Y482909D01*
X421005Y488676D02*
X425831Y488676D01*
X423150Y490285D01*
X425831Y491894D01*
X421005Y491894D01*
X423686Y495309D02*
X423686Y496649D01*
X423687Y496649D02*
X423685Y496720D01*
X423679Y496792D01*
X423670Y496862D01*
X423657Y496932D01*
X423640Y497002D01*
X423619Y497070D01*
X423595Y497137D01*
X423567Y497203D01*
X423536Y497267D01*
X423501Y497330D01*
X423463Y497390D01*
X423422Y497449D01*
X423378Y497505D01*
X423331Y497559D01*
X423282Y497610D01*
X423229Y497658D01*
X423174Y497704D01*
X423117Y497746D01*
X423057Y497786D01*
X422996Y497822D01*
X422932Y497855D01*
X422867Y497884D01*
X422801Y497910D01*
X422733Y497933D01*
X422664Y497952D01*
X422594Y497967D01*
X422524Y497978D01*
X422453Y497986D01*
X422382Y497990D01*
X422310Y497990D01*
X422239Y497986D01*
X422168Y497978D01*
X422098Y497967D01*
X422028Y497952D01*
X421959Y497933D01*
X421891Y497910D01*
X421825Y497884D01*
X421760Y497855D01*
X421696Y497822D01*
X421635Y497786D01*
X421575Y497746D01*
X421518Y497704D01*
X421463Y497658D01*
X421410Y497610D01*
X421361Y497559D01*
X421314Y497505D01*
X421270Y497449D01*
X421229Y497390D01*
X421191Y497330D01*
X421156Y497267D01*
X421125Y497203D01*
X421097Y497137D01*
X421073Y497070D01*
X421052Y497002D01*
X421035Y496932D01*
X421022Y496862D01*
X421013Y496792D01*
X421007Y496720D01*
X421005Y496649D01*
X421005Y495309D01*
X425831Y495309D01*
X425831Y496649D01*
X425829Y496714D01*
X425823Y496778D01*
X425813Y496842D01*
X425800Y496906D01*
X425782Y496968D01*
X425761Y497029D01*
X425737Y497089D01*
X425708Y497147D01*
X425676Y497204D01*
X425641Y497258D01*
X425603Y497310D01*
X425561Y497360D01*
X425517Y497407D01*
X425470Y497451D01*
X425420Y497493D01*
X425368Y497531D01*
X425314Y497566D01*
X425257Y497598D01*
X425199Y497627D01*
X425139Y497651D01*
X425078Y497672D01*
X425016Y497690D01*
X424952Y497703D01*
X424888Y497713D01*
X424824Y497719D01*
X424759Y497721D01*
X424694Y497719D01*
X424630Y497713D01*
X424566Y497703D01*
X424502Y497690D01*
X424440Y497672D01*
X424379Y497651D01*
X424319Y497627D01*
X424261Y497598D01*
X424204Y497566D01*
X424150Y497531D01*
X424098Y497493D01*
X424048Y497451D01*
X424001Y497407D01*
X423957Y497360D01*
X423915Y497310D01*
X423877Y497258D01*
X423842Y497204D01*
X423810Y497147D01*
X423781Y497089D01*
X423757Y497029D01*
X423736Y496968D01*
X423718Y496906D01*
X423705Y496842D01*
X423695Y496778D01*
X423689Y496714D01*
X423687Y496649D01*
X424490Y500466D02*
X422346Y500466D01*
X424490Y500465D02*
X424561Y500467D01*
X424633Y500473D01*
X424703Y500482D01*
X424773Y500495D01*
X424843Y500512D01*
X424911Y500533D01*
X424978Y500557D01*
X425044Y500585D01*
X425108Y500616D01*
X425171Y500651D01*
X425231Y500689D01*
X425290Y500730D01*
X425346Y500774D01*
X425400Y500821D01*
X425451Y500870D01*
X425499Y500923D01*
X425545Y500978D01*
X425587Y501035D01*
X425627Y501095D01*
X425663Y501156D01*
X425696Y501220D01*
X425725Y501285D01*
X425751Y501351D01*
X425774Y501419D01*
X425793Y501488D01*
X425808Y501558D01*
X425819Y501628D01*
X425827Y501699D01*
X425831Y501770D01*
X425831Y501842D01*
X425827Y501913D01*
X425819Y501984D01*
X425808Y502054D01*
X425793Y502124D01*
X425774Y502193D01*
X425751Y502261D01*
X425725Y502327D01*
X425696Y502392D01*
X425663Y502456D01*
X425627Y502517D01*
X425587Y502577D01*
X425545Y502634D01*
X425499Y502689D01*
X425451Y502742D01*
X425400Y502791D01*
X425346Y502838D01*
X425290Y502882D01*
X425231Y502923D01*
X425171Y502961D01*
X425108Y502996D01*
X425044Y503027D01*
X424978Y503055D01*
X424911Y503079D01*
X424843Y503100D01*
X424773Y503117D01*
X424703Y503130D01*
X424633Y503139D01*
X424561Y503145D01*
X424490Y503147D01*
X422346Y503147D01*
X422275Y503145D01*
X422203Y503139D01*
X422133Y503130D01*
X422063Y503117D01*
X421993Y503100D01*
X421925Y503079D01*
X421858Y503055D01*
X421792Y503027D01*
X421728Y502996D01*
X421665Y502961D01*
X421605Y502923D01*
X421546Y502882D01*
X421490Y502838D01*
X421436Y502791D01*
X421385Y502742D01*
X421337Y502689D01*
X421291Y502634D01*
X421249Y502577D01*
X421209Y502517D01*
X421173Y502456D01*
X421140Y502392D01*
X421111Y502327D01*
X421085Y502261D01*
X421062Y502193D01*
X421043Y502124D01*
X421028Y502054D01*
X421017Y501984D01*
X421009Y501913D01*
X421005Y501842D01*
X421005Y501770D01*
X421009Y501699D01*
X421017Y501628D01*
X421028Y501558D01*
X421043Y501488D01*
X421062Y501419D01*
X421085Y501351D01*
X421111Y501285D01*
X421140Y501220D01*
X421173Y501156D01*
X421209Y501095D01*
X421249Y501035D01*
X421291Y500978D01*
X421337Y500923D01*
X421385Y500870D01*
X421436Y500821D01*
X421490Y500774D01*
X421546Y500730D01*
X421605Y500689D01*
X421665Y500651D01*
X421728Y500616D01*
X421792Y500585D01*
X421858Y500557D01*
X421925Y500533D01*
X421993Y500512D01*
X422063Y500495D01*
X422133Y500482D01*
X422203Y500473D01*
X422275Y500467D01*
X422346Y500465D01*
X106609Y266700D02*
X106623Y267824D01*
X106664Y268947D01*
X106733Y270069D01*
X106829Y271188D01*
X106953Y272305D01*
X107105Y273419D01*
X107283Y274529D01*
X107489Y275633D01*
X107722Y276733D01*
X107981Y277826D01*
X108268Y278913D01*
X108581Y279992D01*
X108920Y281064D01*
X109286Y282127D01*
X109677Y283180D01*
X110095Y284223D01*
X110537Y285256D01*
X111005Y286278D01*
X111498Y287288D01*
X112016Y288286D01*
X112558Y289270D01*
X113124Y290241D01*
X113713Y291198D01*
X114326Y292140D01*
X114962Y293067D01*
X115620Y293978D01*
X116301Y294872D01*
X117003Y295750D01*
X117727Y296609D01*
X118471Y297451D01*
X119236Y298275D01*
X120021Y299079D01*
X120825Y299864D01*
X121649Y300629D01*
X122491Y301373D01*
X123350Y302097D01*
X124228Y302799D01*
X125122Y303480D01*
X126033Y304138D01*
X126960Y304774D01*
X127902Y305387D01*
X128859Y305976D01*
X129830Y306542D01*
X130814Y307084D01*
X131812Y307602D01*
X132822Y308095D01*
X133844Y308563D01*
X134877Y309005D01*
X135920Y309423D01*
X136973Y309814D01*
X138036Y310180D01*
X139108Y310519D01*
X140187Y310832D01*
X141274Y311119D01*
X142367Y311378D01*
X143467Y311611D01*
X144571Y311817D01*
X145681Y311995D01*
X146795Y312147D01*
X147912Y312271D01*
X149031Y312367D01*
X150153Y312436D01*
X151276Y312477D01*
X152400Y312491D01*
X153524Y312477D01*
X154647Y312436D01*
X155769Y312367D01*
X156888Y312271D01*
X158005Y312147D01*
X159119Y311995D01*
X160229Y311817D01*
X161333Y311611D01*
X162433Y311378D01*
X163526Y311119D01*
X164613Y310832D01*
X165692Y310519D01*
X166764Y310180D01*
X167827Y309814D01*
X168880Y309423D01*
X169923Y309005D01*
X170956Y308563D01*
X171978Y308095D01*
X172988Y307602D01*
X173986Y307084D01*
X174970Y306542D01*
X175941Y305976D01*
X176898Y305387D01*
X177840Y304774D01*
X178767Y304138D01*
X179678Y303480D01*
X180572Y302799D01*
X181450Y302097D01*
X182309Y301373D01*
X183151Y300629D01*
X183975Y299864D01*
X184779Y299079D01*
X185564Y298275D01*
X186329Y297451D01*
X187073Y296609D01*
X187797Y295750D01*
X188499Y294872D01*
X189180Y293978D01*
X189838Y293067D01*
X190474Y292140D01*
X191087Y291198D01*
X191676Y290241D01*
X192242Y289270D01*
X192784Y288286D01*
X193302Y287288D01*
X193795Y286278D01*
X194263Y285256D01*
X194705Y284223D01*
X195123Y283180D01*
X195514Y282127D01*
X195880Y281064D01*
X196219Y279992D01*
X196532Y278913D01*
X196819Y277826D01*
X197078Y276733D01*
X197311Y275633D01*
X197517Y274529D01*
X197695Y273419D01*
X197847Y272305D01*
X197971Y271188D01*
X198067Y270069D01*
X198136Y268947D01*
X198177Y267824D01*
X198191Y266700D01*
X198177Y265576D01*
X198136Y264453D01*
X198067Y263331D01*
X197971Y262212D01*
X197847Y261095D01*
X197695Y259981D01*
X197517Y258871D01*
X197311Y257767D01*
X197078Y256667D01*
X196819Y255574D01*
X196532Y254487D01*
X196219Y253408D01*
X195880Y252336D01*
X195514Y251273D01*
X195123Y250220D01*
X194705Y249177D01*
X194263Y248144D01*
X193795Y247122D01*
X193302Y246112D01*
X192784Y245114D01*
X192242Y244130D01*
X191676Y243159D01*
X191087Y242202D01*
X190474Y241260D01*
X189838Y240333D01*
X189180Y239422D01*
X188499Y238528D01*
X187797Y237650D01*
X187073Y236791D01*
X186329Y235949D01*
X185564Y235125D01*
X184779Y234321D01*
X183975Y233536D01*
X183151Y232771D01*
X182309Y232027D01*
X181450Y231303D01*
X180572Y230601D01*
X179678Y229920D01*
X178767Y229262D01*
X177840Y228626D01*
X176898Y228013D01*
X175941Y227424D01*
X174970Y226858D01*
X173986Y226316D01*
X172988Y225798D01*
X171978Y225305D01*
X170956Y224837D01*
X169923Y224395D01*
X168880Y223977D01*
X167827Y223586D01*
X166764Y223220D01*
X165692Y222881D01*
X164613Y222568D01*
X163526Y222281D01*
X162433Y222022D01*
X161333Y221789D01*
X160229Y221583D01*
X159119Y221405D01*
X158005Y221253D01*
X156888Y221129D01*
X155769Y221033D01*
X154647Y220964D01*
X153524Y220923D01*
X152400Y220909D01*
X151276Y220923D01*
X150153Y220964D01*
X149031Y221033D01*
X147912Y221129D01*
X146795Y221253D01*
X145681Y221405D01*
X144571Y221583D01*
X143467Y221789D01*
X142367Y222022D01*
X141274Y222281D01*
X140187Y222568D01*
X139108Y222881D01*
X138036Y223220D01*
X136973Y223586D01*
X135920Y223977D01*
X134877Y224395D01*
X133844Y224837D01*
X132822Y225305D01*
X131812Y225798D01*
X130814Y226316D01*
X129830Y226858D01*
X128859Y227424D01*
X127902Y228013D01*
X126960Y228626D01*
X126033Y229262D01*
X125122Y229920D01*
X124228Y230601D01*
X123350Y231303D01*
X122491Y232027D01*
X121649Y232771D01*
X120825Y233536D01*
X120021Y234321D01*
X119236Y235125D01*
X118471Y235949D01*
X117727Y236791D01*
X117003Y237650D01*
X116301Y238528D01*
X115620Y239422D01*
X114962Y240333D01*
X114326Y241260D01*
X113713Y242202D01*
X113124Y243159D01*
X112558Y244130D01*
X112016Y245114D01*
X111498Y246112D01*
X111005Y247122D01*
X110537Y248144D01*
X110095Y249177D01*
X109677Y250220D01*
X109286Y251273D01*
X108920Y252336D01*
X108581Y253408D01*
X108268Y254487D01*
X107981Y255574D01*
X107722Y256667D01*
X107489Y257767D01*
X107283Y258871D01*
X107105Y259981D01*
X106953Y261095D01*
X106829Y262212D01*
X106733Y263331D01*
X106664Y264453D01*
X106623Y265576D01*
X106609Y266700D01*
D12*
X197499Y191008D02*
X200096Y191008D01*
X200195Y191010D01*
X200295Y191016D01*
X200394Y191025D01*
X200492Y191038D01*
X200590Y191055D01*
X200688Y191076D01*
X200784Y191101D01*
X200879Y191129D01*
X200973Y191161D01*
X201066Y191196D01*
X201158Y191235D01*
X201248Y191278D01*
X201336Y191323D01*
X201423Y191373D01*
X201507Y191425D01*
X201590Y191481D01*
X201670Y191539D01*
X201748Y191601D01*
X201823Y191666D01*
X201896Y191734D01*
X201966Y191804D01*
X202034Y191877D01*
X202099Y191952D01*
X202161Y192030D01*
X202219Y192110D01*
X202275Y192193D01*
X202327Y192277D01*
X202377Y192364D01*
X202422Y192452D01*
X202465Y192542D01*
X202504Y192634D01*
X202539Y192727D01*
X202571Y192821D01*
X202599Y192916D01*
X202624Y193012D01*
X202645Y193110D01*
X202662Y193208D01*
X202675Y193306D01*
X202684Y193405D01*
X202690Y193505D01*
X202692Y193604D01*
X202692Y200096D01*
X202690Y200195D01*
X202684Y200295D01*
X202675Y200394D01*
X202662Y200492D01*
X202645Y200590D01*
X202624Y200688D01*
X202599Y200784D01*
X202571Y200879D01*
X202539Y200973D01*
X202504Y201066D01*
X202465Y201158D01*
X202422Y201248D01*
X202377Y201336D01*
X202327Y201423D01*
X202275Y201507D01*
X202219Y201590D01*
X202161Y201670D01*
X202099Y201748D01*
X202034Y201823D01*
X201966Y201896D01*
X201896Y201966D01*
X201823Y202034D01*
X201748Y202099D01*
X201670Y202161D01*
X201590Y202219D01*
X201507Y202275D01*
X201423Y202327D01*
X201336Y202377D01*
X201248Y202422D01*
X201158Y202465D01*
X201066Y202504D01*
X200973Y202539D01*
X200879Y202571D01*
X200784Y202599D01*
X200688Y202624D01*
X200590Y202645D01*
X200492Y202662D01*
X200394Y202675D01*
X200295Y202684D01*
X200195Y202690D01*
X200096Y202692D01*
X197499Y202692D01*
X192866Y202692D02*
X192866Y191008D01*
X192866Y198797D02*
X189620Y198797D01*
X189533Y198795D01*
X189445Y198789D01*
X189359Y198779D01*
X189272Y198766D01*
X189187Y198748D01*
X189102Y198727D01*
X189018Y198702D01*
X188936Y198673D01*
X188855Y198640D01*
X188775Y198604D01*
X188697Y198565D01*
X188621Y198521D01*
X188547Y198475D01*
X188476Y198425D01*
X188406Y198372D01*
X188339Y198316D01*
X188275Y198257D01*
X188213Y198196D01*
X188154Y198131D01*
X188098Y198064D01*
X188045Y197994D01*
X187995Y197923D01*
X187949Y197849D01*
X187906Y197773D01*
X187866Y197695D01*
X187830Y197615D01*
X187797Y197534D01*
X187768Y197452D01*
X187743Y197368D01*
X187722Y197283D01*
X187704Y197198D01*
X187691Y197111D01*
X187681Y197025D01*
X187675Y196937D01*
X187673Y196850D01*
X187673Y191008D01*
X182131Y191008D02*
X182131Y198797D01*
X178237Y198797D01*
X178237Y197499D01*
X174578Y196201D02*
X174578Y193604D01*
X174577Y196201D02*
X174575Y196302D01*
X174569Y196402D01*
X174559Y196502D01*
X174546Y196602D01*
X174528Y196701D01*
X174507Y196800D01*
X174482Y196897D01*
X174453Y196994D01*
X174420Y197089D01*
X174384Y197183D01*
X174344Y197275D01*
X174301Y197366D01*
X174254Y197455D01*
X174204Y197542D01*
X174150Y197628D01*
X174093Y197711D01*
X174033Y197791D01*
X173970Y197870D01*
X173903Y197946D01*
X173834Y198019D01*
X173762Y198089D01*
X173688Y198157D01*
X173611Y198222D01*
X173531Y198283D01*
X173449Y198342D01*
X173365Y198397D01*
X173279Y198449D01*
X173191Y198498D01*
X173101Y198543D01*
X173009Y198585D01*
X172916Y198623D01*
X172821Y198657D01*
X172726Y198688D01*
X172629Y198715D01*
X172531Y198738D01*
X172432Y198758D01*
X172332Y198773D01*
X172232Y198785D01*
X172132Y198793D01*
X172031Y198797D01*
X171931Y198797D01*
X171830Y198793D01*
X171730Y198785D01*
X171630Y198773D01*
X171530Y198758D01*
X171431Y198738D01*
X171333Y198715D01*
X171236Y198688D01*
X171141Y198657D01*
X171046Y198623D01*
X170953Y198585D01*
X170861Y198543D01*
X170771Y198498D01*
X170683Y198449D01*
X170597Y198397D01*
X170513Y198342D01*
X170431Y198283D01*
X170351Y198222D01*
X170274Y198157D01*
X170200Y198089D01*
X170128Y198019D01*
X170059Y197946D01*
X169992Y197870D01*
X169929Y197791D01*
X169869Y197711D01*
X169812Y197628D01*
X169758Y197542D01*
X169708Y197455D01*
X169661Y197366D01*
X169618Y197275D01*
X169578Y197183D01*
X169542Y197089D01*
X169509Y196994D01*
X169480Y196897D01*
X169455Y196800D01*
X169434Y196701D01*
X169416Y196602D01*
X169403Y196502D01*
X169393Y196402D01*
X169387Y196302D01*
X169385Y196201D01*
X169385Y193604D01*
X169387Y193503D01*
X169393Y193403D01*
X169403Y193303D01*
X169416Y193203D01*
X169434Y193104D01*
X169455Y193005D01*
X169480Y192908D01*
X169509Y192811D01*
X169542Y192716D01*
X169578Y192622D01*
X169618Y192530D01*
X169661Y192439D01*
X169708Y192350D01*
X169758Y192263D01*
X169812Y192177D01*
X169869Y192094D01*
X169929Y192014D01*
X169992Y191935D01*
X170059Y191859D01*
X170128Y191786D01*
X170200Y191716D01*
X170274Y191648D01*
X170351Y191583D01*
X170431Y191522D01*
X170513Y191463D01*
X170597Y191408D01*
X170683Y191356D01*
X170771Y191307D01*
X170861Y191262D01*
X170953Y191220D01*
X171046Y191182D01*
X171141Y191148D01*
X171236Y191117D01*
X171333Y191090D01*
X171431Y191067D01*
X171530Y191047D01*
X171630Y191032D01*
X171730Y191020D01*
X171830Y191012D01*
X171931Y191008D01*
X172031Y191008D01*
X172132Y191012D01*
X172232Y191020D01*
X172332Y191032D01*
X172432Y191047D01*
X172531Y191067D01*
X172629Y191090D01*
X172726Y191117D01*
X172821Y191148D01*
X172916Y191182D01*
X173009Y191220D01*
X173101Y191262D01*
X173191Y191307D01*
X173279Y191356D01*
X173365Y191408D01*
X173449Y191463D01*
X173531Y191522D01*
X173611Y191583D01*
X173688Y191648D01*
X173762Y191716D01*
X173834Y191786D01*
X173903Y191859D01*
X173970Y191935D01*
X174033Y192014D01*
X174093Y192094D01*
X174150Y192177D01*
X174204Y192263D01*
X174254Y192350D01*
X174301Y192439D01*
X174344Y192530D01*
X174384Y192622D01*
X174420Y192716D01*
X174453Y192811D01*
X174482Y192908D01*
X174507Y193005D01*
X174528Y193104D01*
X174546Y193203D01*
X174559Y193303D01*
X174569Y193403D01*
X174575Y193503D01*
X174577Y193604D01*
X164291Y191008D02*
X164291Y198797D01*
X161045Y198797D01*
X160958Y198795D01*
X160870Y198789D01*
X160784Y198779D01*
X160697Y198766D01*
X160612Y198748D01*
X160527Y198727D01*
X160443Y198702D01*
X160361Y198673D01*
X160280Y198640D01*
X160200Y198604D01*
X160122Y198565D01*
X160046Y198521D01*
X159972Y198475D01*
X159901Y198425D01*
X159831Y198372D01*
X159764Y198316D01*
X159700Y198257D01*
X159638Y198196D01*
X159579Y198131D01*
X159523Y198064D01*
X159470Y197994D01*
X159420Y197923D01*
X159374Y197849D01*
X159331Y197773D01*
X159291Y197695D01*
X159255Y197615D01*
X159222Y197534D01*
X159193Y197452D01*
X159168Y197368D01*
X159147Y197283D01*
X159129Y197198D01*
X159116Y197111D01*
X159106Y197025D01*
X159100Y196937D01*
X159098Y196850D01*
X159098Y191008D01*
X154004Y193604D02*
X154004Y196201D01*
X154003Y196201D02*
X154001Y196302D01*
X153995Y196402D01*
X153985Y196502D01*
X153972Y196602D01*
X153954Y196701D01*
X153933Y196800D01*
X153908Y196897D01*
X153879Y196994D01*
X153846Y197089D01*
X153810Y197183D01*
X153770Y197275D01*
X153727Y197366D01*
X153680Y197455D01*
X153630Y197542D01*
X153576Y197628D01*
X153519Y197711D01*
X153459Y197791D01*
X153396Y197870D01*
X153329Y197946D01*
X153260Y198019D01*
X153188Y198089D01*
X153114Y198157D01*
X153037Y198222D01*
X152957Y198283D01*
X152875Y198342D01*
X152791Y198397D01*
X152705Y198449D01*
X152617Y198498D01*
X152527Y198543D01*
X152435Y198585D01*
X152342Y198623D01*
X152247Y198657D01*
X152152Y198688D01*
X152055Y198715D01*
X151957Y198738D01*
X151858Y198758D01*
X151758Y198773D01*
X151658Y198785D01*
X151558Y198793D01*
X151457Y198797D01*
X151357Y198797D01*
X151256Y198793D01*
X151156Y198785D01*
X151056Y198773D01*
X150956Y198758D01*
X150857Y198738D01*
X150759Y198715D01*
X150662Y198688D01*
X150567Y198657D01*
X150472Y198623D01*
X150379Y198585D01*
X150287Y198543D01*
X150197Y198498D01*
X150109Y198449D01*
X150023Y198397D01*
X149939Y198342D01*
X149857Y198283D01*
X149777Y198222D01*
X149700Y198157D01*
X149626Y198089D01*
X149554Y198019D01*
X149485Y197946D01*
X149418Y197870D01*
X149355Y197791D01*
X149295Y197711D01*
X149238Y197628D01*
X149184Y197542D01*
X149134Y197455D01*
X149087Y197366D01*
X149044Y197275D01*
X149004Y197183D01*
X148968Y197089D01*
X148935Y196994D01*
X148906Y196897D01*
X148881Y196800D01*
X148860Y196701D01*
X148842Y196602D01*
X148829Y196502D01*
X148819Y196402D01*
X148813Y196302D01*
X148811Y196201D01*
X148811Y193604D01*
X148813Y193503D01*
X148819Y193403D01*
X148829Y193303D01*
X148842Y193203D01*
X148860Y193104D01*
X148881Y193005D01*
X148906Y192908D01*
X148935Y192811D01*
X148968Y192716D01*
X149004Y192622D01*
X149044Y192530D01*
X149087Y192439D01*
X149134Y192350D01*
X149184Y192263D01*
X149238Y192177D01*
X149295Y192094D01*
X149355Y192014D01*
X149418Y191935D01*
X149485Y191859D01*
X149554Y191786D01*
X149626Y191716D01*
X149700Y191648D01*
X149777Y191583D01*
X149857Y191522D01*
X149939Y191463D01*
X150023Y191408D01*
X150109Y191356D01*
X150197Y191307D01*
X150287Y191262D01*
X150379Y191220D01*
X150472Y191182D01*
X150567Y191148D01*
X150662Y191117D01*
X150759Y191090D01*
X150857Y191067D01*
X150956Y191047D01*
X151056Y191032D01*
X151156Y191020D01*
X151256Y191012D01*
X151357Y191008D01*
X151457Y191008D01*
X151558Y191012D01*
X151658Y191020D01*
X151758Y191032D01*
X151858Y191047D01*
X151957Y191067D01*
X152055Y191090D01*
X152152Y191117D01*
X152247Y191148D01*
X152342Y191182D01*
X152435Y191220D01*
X152527Y191262D01*
X152617Y191307D01*
X152705Y191356D01*
X152791Y191408D01*
X152875Y191463D01*
X152957Y191522D01*
X153037Y191583D01*
X153114Y191648D01*
X153188Y191716D01*
X153260Y191786D01*
X153329Y191859D01*
X153396Y191935D01*
X153459Y192014D01*
X153519Y192094D01*
X153576Y192177D01*
X153630Y192263D01*
X153680Y192350D01*
X153727Y192439D01*
X153770Y192530D01*
X153810Y192622D01*
X153846Y192716D01*
X153879Y192811D01*
X153908Y192908D01*
X153933Y193005D01*
X153954Y193104D01*
X153972Y193203D01*
X153985Y193303D01*
X153995Y193403D01*
X154001Y193503D01*
X154003Y193604D01*
X143604Y191008D02*
X143604Y202692D01*
X140358Y202692D01*
X140245Y202690D01*
X140132Y202684D01*
X140019Y202674D01*
X139906Y202660D01*
X139794Y202643D01*
X139683Y202621D01*
X139573Y202596D01*
X139463Y202566D01*
X139355Y202533D01*
X139248Y202496D01*
X139142Y202456D01*
X139038Y202411D01*
X138935Y202363D01*
X138834Y202312D01*
X138735Y202257D01*
X138638Y202199D01*
X138543Y202137D01*
X138450Y202072D01*
X138360Y202004D01*
X138272Y201933D01*
X138186Y201858D01*
X138103Y201781D01*
X138023Y201701D01*
X137946Y201618D01*
X137871Y201532D01*
X137800Y201444D01*
X137732Y201354D01*
X137667Y201261D01*
X137605Y201166D01*
X137547Y201069D01*
X137492Y200970D01*
X137441Y200869D01*
X137393Y200766D01*
X137348Y200662D01*
X137308Y200556D01*
X137271Y200449D01*
X137238Y200341D01*
X137208Y200231D01*
X137183Y200121D01*
X137161Y200010D01*
X137144Y199898D01*
X137130Y199785D01*
X137120Y199672D01*
X137114Y199559D01*
X137112Y199446D01*
X137113Y199446D02*
X137113Y194254D01*
X137112Y194254D02*
X137114Y194141D01*
X137120Y194028D01*
X137130Y193915D01*
X137144Y193802D01*
X137161Y193690D01*
X137183Y193579D01*
X137208Y193469D01*
X137238Y193359D01*
X137271Y193251D01*
X137308Y193144D01*
X137348Y193038D01*
X137393Y192934D01*
X137441Y192831D01*
X137492Y192730D01*
X137547Y192631D01*
X137605Y192534D01*
X137667Y192439D01*
X137732Y192346D01*
X137800Y192256D01*
X137871Y192168D01*
X137946Y192082D01*
X138023Y191999D01*
X138103Y191919D01*
X138186Y191842D01*
X138272Y191767D01*
X138360Y191696D01*
X138450Y191628D01*
X138543Y191563D01*
X138638Y191501D01*
X138735Y191443D01*
X138834Y191388D01*
X138935Y191337D01*
X139038Y191289D01*
X139142Y191244D01*
X139248Y191204D01*
X139355Y191167D01*
X139463Y191134D01*
X139573Y191104D01*
X139683Y191079D01*
X139794Y191057D01*
X139906Y191040D01*
X140019Y191026D01*
X140132Y191016D01*
X140245Y191010D01*
X140358Y191008D01*
X143604Y191008D01*
X131906Y193604D02*
X131906Y196201D01*
X131905Y196201D02*
X131903Y196302D01*
X131897Y196402D01*
X131887Y196502D01*
X131874Y196602D01*
X131856Y196701D01*
X131835Y196800D01*
X131810Y196897D01*
X131781Y196994D01*
X131748Y197089D01*
X131712Y197183D01*
X131672Y197275D01*
X131629Y197366D01*
X131582Y197455D01*
X131532Y197542D01*
X131478Y197628D01*
X131421Y197711D01*
X131361Y197791D01*
X131298Y197870D01*
X131231Y197946D01*
X131162Y198019D01*
X131090Y198089D01*
X131016Y198157D01*
X130939Y198222D01*
X130859Y198283D01*
X130777Y198342D01*
X130693Y198397D01*
X130607Y198449D01*
X130519Y198498D01*
X130429Y198543D01*
X130337Y198585D01*
X130244Y198623D01*
X130149Y198657D01*
X130054Y198688D01*
X129957Y198715D01*
X129859Y198738D01*
X129760Y198758D01*
X129660Y198773D01*
X129560Y198785D01*
X129460Y198793D01*
X129359Y198797D01*
X129259Y198797D01*
X129158Y198793D01*
X129058Y198785D01*
X128958Y198773D01*
X128858Y198758D01*
X128759Y198738D01*
X128661Y198715D01*
X128564Y198688D01*
X128469Y198657D01*
X128374Y198623D01*
X128281Y198585D01*
X128189Y198543D01*
X128099Y198498D01*
X128011Y198449D01*
X127925Y198397D01*
X127841Y198342D01*
X127759Y198283D01*
X127679Y198222D01*
X127602Y198157D01*
X127528Y198089D01*
X127456Y198019D01*
X127387Y197946D01*
X127320Y197870D01*
X127257Y197791D01*
X127197Y197711D01*
X127140Y197628D01*
X127086Y197542D01*
X127036Y197455D01*
X126989Y197366D01*
X126946Y197275D01*
X126906Y197183D01*
X126870Y197089D01*
X126837Y196994D01*
X126808Y196897D01*
X126783Y196800D01*
X126762Y196701D01*
X126744Y196602D01*
X126731Y196502D01*
X126721Y196402D01*
X126715Y196302D01*
X126713Y196201D01*
X126713Y193604D01*
X126715Y193503D01*
X126721Y193403D01*
X126731Y193303D01*
X126744Y193203D01*
X126762Y193104D01*
X126783Y193005D01*
X126808Y192908D01*
X126837Y192811D01*
X126870Y192716D01*
X126906Y192622D01*
X126946Y192530D01*
X126989Y192439D01*
X127036Y192350D01*
X127086Y192263D01*
X127140Y192177D01*
X127197Y192094D01*
X127257Y192014D01*
X127320Y191935D01*
X127387Y191859D01*
X127456Y191786D01*
X127528Y191716D01*
X127602Y191648D01*
X127679Y191583D01*
X127759Y191522D01*
X127841Y191463D01*
X127925Y191408D01*
X128011Y191356D01*
X128099Y191307D01*
X128189Y191262D01*
X128281Y191220D01*
X128374Y191182D01*
X128469Y191148D01*
X128564Y191117D01*
X128661Y191090D01*
X128759Y191067D01*
X128858Y191047D01*
X128958Y191032D01*
X129058Y191020D01*
X129158Y191012D01*
X129259Y191008D01*
X129359Y191008D01*
X129460Y191012D01*
X129560Y191020D01*
X129660Y191032D01*
X129760Y191047D01*
X129859Y191067D01*
X129957Y191090D01*
X130054Y191117D01*
X130149Y191148D01*
X130244Y191182D01*
X130337Y191220D01*
X130429Y191262D01*
X130519Y191307D01*
X130607Y191356D01*
X130693Y191408D01*
X130777Y191463D01*
X130859Y191522D01*
X130939Y191583D01*
X131016Y191648D01*
X131090Y191716D01*
X131162Y191786D01*
X131231Y191859D01*
X131298Y191935D01*
X131361Y192014D01*
X131421Y192094D01*
X131478Y192177D01*
X131532Y192263D01*
X131582Y192350D01*
X131629Y192439D01*
X131672Y192530D01*
X131712Y192622D01*
X131748Y192716D01*
X131781Y192811D01*
X131810Y192908D01*
X131835Y193005D01*
X131856Y193104D01*
X131874Y193203D01*
X131887Y193303D01*
X131897Y193403D01*
X131903Y193503D01*
X131905Y193604D01*
X122967Y198797D02*
X119072Y198797D01*
X121669Y202692D02*
X121669Y192955D01*
X121668Y192955D02*
X121666Y192868D01*
X121660Y192780D01*
X121650Y192694D01*
X121637Y192607D01*
X121619Y192522D01*
X121598Y192437D01*
X121573Y192353D01*
X121544Y192271D01*
X121511Y192190D01*
X121475Y192110D01*
X121436Y192032D01*
X121392Y191956D01*
X121346Y191882D01*
X121296Y191811D01*
X121243Y191741D01*
X121187Y191674D01*
X121128Y191610D01*
X121066Y191548D01*
X121002Y191489D01*
X120935Y191433D01*
X120865Y191380D01*
X120794Y191330D01*
X120720Y191284D01*
X120644Y191240D01*
X120566Y191201D01*
X120486Y191165D01*
X120405Y191132D01*
X120323Y191103D01*
X120239Y191078D01*
X120154Y191057D01*
X120069Y191039D01*
X119982Y191026D01*
X119896Y191016D01*
X119808Y191010D01*
X119721Y191008D01*
X119072Y191008D01*
X105306Y191008D02*
X109201Y202692D01*
X101412Y202692D02*
X105306Y191008D01*
X93552Y202692D02*
X93445Y202690D01*
X93339Y202684D01*
X93233Y202674D01*
X93127Y202661D01*
X93021Y202643D01*
X92917Y202622D01*
X92813Y202597D01*
X92710Y202568D01*
X92609Y202536D01*
X92509Y202499D01*
X92410Y202459D01*
X92312Y202416D01*
X92216Y202369D01*
X92122Y202318D01*
X92030Y202264D01*
X91940Y202207D01*
X91852Y202147D01*
X91767Y202083D01*
X91684Y202016D01*
X91603Y201946D01*
X91525Y201874D01*
X91449Y201798D01*
X91377Y201720D01*
X91307Y201639D01*
X91240Y201556D01*
X91176Y201471D01*
X91116Y201383D01*
X91059Y201293D01*
X91005Y201201D01*
X90954Y201107D01*
X90907Y201011D01*
X90864Y200913D01*
X90824Y200814D01*
X90787Y200714D01*
X90755Y200613D01*
X90726Y200510D01*
X90701Y200406D01*
X90680Y200302D01*
X90662Y200196D01*
X90649Y200090D01*
X90639Y199984D01*
X90633Y199878D01*
X90631Y199771D01*
X93552Y202692D02*
X93673Y202690D01*
X93794Y202684D01*
X93914Y202674D01*
X94035Y202661D01*
X94154Y202643D01*
X94274Y202622D01*
X94392Y202597D01*
X94509Y202568D01*
X94626Y202535D01*
X94741Y202499D01*
X94855Y202458D01*
X94968Y202415D01*
X95080Y202367D01*
X95189Y202316D01*
X95297Y202261D01*
X95404Y202203D01*
X95508Y202142D01*
X95610Y202077D01*
X95710Y202009D01*
X95808Y201938D01*
X95904Y201864D01*
X95997Y201787D01*
X96087Y201706D01*
X96175Y201623D01*
X96260Y201537D01*
X96343Y201448D01*
X96422Y201357D01*
X96499Y201263D01*
X96572Y201167D01*
X96642Y201069D01*
X96709Y200968D01*
X96773Y200865D01*
X96834Y200760D01*
X96891Y200653D01*
X96944Y200545D01*
X96994Y200435D01*
X97040Y200323D01*
X97083Y200210D01*
X97122Y200095D01*
X91605Y197499D02*
X91526Y197577D01*
X91450Y197657D01*
X91377Y197740D01*
X91307Y197826D01*
X91240Y197913D01*
X91176Y198004D01*
X91116Y198096D01*
X91058Y198190D01*
X91004Y198287D01*
X90954Y198385D01*
X90907Y198485D01*
X90863Y198586D01*
X90823Y198689D01*
X90787Y198794D01*
X90755Y198899D01*
X90726Y199006D01*
X90701Y199113D01*
X90679Y199222D01*
X90662Y199331D01*
X90648Y199440D01*
X90639Y199550D01*
X90633Y199661D01*
X90631Y199771D01*
X91604Y197499D02*
X97122Y191008D01*
X90631Y191008D01*
X86200Y191008D02*
X86200Y191657D01*
X85551Y191657D01*
X85551Y191008D01*
X86200Y191008D01*
X81120Y200096D02*
X77874Y202692D01*
X77874Y191008D01*
X74629Y191008D02*
X81120Y191008D01*
D13*
X184150Y171450D03*
X120650Y171450D03*
M02*
