G04 EAGLE Gerber X2 export*
%TF.Part,Single*%
%TF.FileFunction,Other,Bottom Soldermask*%
%TF.FilePolarity,Positive*%
%TF.GenerationSoftware,Autodesk,EAGLE,9.1.1*%
%TF.CreationDate,2018-07-22T08:43:09Z*%
G75*
%MOMM*%
%FSLAX34Y34*%
%LPD*%
%AMOC8*
5,1,8,0,0,1.08239X$1,22.5*%
G01*
%ADD10R,1.854200X1.854200*%
%ADD11C,1.854200*%
%ADD12C,4.521200*%
%ADD13P,1.759533X8X22.500000*%
%ADD14C,2.082800*%
%ADD15C,2.082800*%
%ADD16C,1.778000*%
%ADD17R,1.712800X1.712800*%
%ADD18R,1.812800X1.812800*%
%ADD19C,1.812800*%


D10*
X200980Y120450D03*
D11*
X200980Y95450D03*
X71120Y561340D03*
X71120Y535940D03*
D12*
X137000Y88900D03*
X77000Y88900D03*
X107000Y41900D03*
D13*
X502600Y139700D03*
X528000Y139700D03*
X502600Y88900D03*
X528000Y88900D03*
X502600Y38100D03*
X528000Y38100D03*
D14*
X417068Y208280D02*
X398272Y208280D01*
X398272Y233680D02*
X417068Y233680D01*
X417068Y259080D02*
X398272Y259080D01*
X398272Y284480D02*
X417068Y284480D01*
X417068Y309880D02*
X398272Y309880D01*
X398272Y335280D02*
X417068Y335280D01*
D15*
X749300Y25400D03*
X723900Y25400D03*
X698500Y25400D03*
X673100Y25400D03*
X647700Y25400D03*
X622300Y25400D03*
X596900Y25400D03*
X571500Y25400D03*
X388300Y114300D03*
X464500Y114300D03*
X388300Y76200D03*
X464500Y76200D03*
X388300Y38100D03*
X464500Y38100D03*
X406400Y421640D03*
X406400Y447040D03*
X406400Y472440D03*
X406400Y497840D03*
X406400Y523240D03*
X406400Y548640D03*
X406400Y574040D03*
D16*
X25400Y448310D03*
X50800Y448310D03*
X76200Y448310D03*
X101600Y448310D03*
X127000Y448310D03*
X152400Y448310D03*
X177800Y448310D03*
X203200Y448310D03*
X228600Y448310D03*
X254000Y448310D03*
X279400Y448310D03*
X304800Y448310D03*
X330200Y448310D03*
X355600Y448310D03*
X355600Y600710D03*
X330200Y600710D03*
X304800Y600710D03*
X279400Y600710D03*
X254000Y600710D03*
X228600Y600710D03*
X203200Y600710D03*
X177800Y600710D03*
X152400Y600710D03*
X127000Y600710D03*
X101600Y600710D03*
X76200Y600710D03*
X50800Y600710D03*
X25400Y600710D03*
D17*
X271780Y246380D03*
X271780Y220980D03*
X271780Y195580D03*
X271780Y170180D03*
X44450Y246380D03*
X44450Y220980D03*
X44450Y195580D03*
X44450Y170180D03*
D18*
X532130Y556260D03*
D19*
X532130Y530860D03*
X532130Y505460D03*
X506730Y505460D03*
X506730Y530860D03*
X506730Y556260D03*
X506730Y480060D03*
D18*
X532130Y480060D03*
D15*
X650000Y110000D03*
X675400Y110000D03*
X700800Y110000D03*
D14*
X347218Y38100D02*
X328422Y38100D01*
X328422Y63500D02*
X347218Y63500D01*
X347218Y88900D02*
X328422Y88900D01*
D11*
X458470Y481330D03*
X458470Y455930D03*
D10*
X200660Y59490D03*
D11*
X200660Y34490D03*
M02*
