G04 EAGLE Gerber X2 export*
%TF.Part,Single*%
%TF.FileFunction,Other,Top Copper*%
%TF.FilePolarity,Positive*%
%TF.GenerationSoftware,Autodesk,EAGLE,9.1.1*%
%TF.CreationDate,2018-07-22T08:43:09Z*%
G75*
%MOMM*%
%FSLAX34Y34*%
%LPD*%
%AMOC8*
5,1,8,0,0,1.08239X$1,22.5*%
G01*
%ADD10R,1.651000X1.651000*%
%ADD11C,1.651000*%
%ADD12C,4.318000*%
%ADD13P,1.539592X8X22.500000*%
%ADD14C,1.879600*%
%ADD15C,1.879600*%
%ADD16C,1.574800*%
%ADD17R,1.509600X1.509600*%
%ADD18R,1.609600X1.609600*%
%ADD19C,1.609600*%
%ADD20C,0.381000*%
%ADD21C,0.203200*%
%ADD22C,1.016000*%
%ADD23C,0.635000*%


D10*
X200980Y120450D03*
D11*
X200980Y95450D03*
X71120Y561340D03*
X71120Y535940D03*
D12*
X137000Y88900D03*
X77000Y88900D03*
X107000Y41900D03*
D13*
X502600Y139700D03*
X528000Y139700D03*
X502600Y88900D03*
X528000Y88900D03*
X502600Y38100D03*
X528000Y38100D03*
D14*
X417068Y208280D02*
X398272Y208280D01*
X398272Y233680D02*
X417068Y233680D01*
X417068Y259080D02*
X398272Y259080D01*
X398272Y284480D02*
X417068Y284480D01*
X417068Y309880D02*
X398272Y309880D01*
X398272Y335280D02*
X417068Y335280D01*
D15*
X749300Y25400D03*
X723900Y25400D03*
X698500Y25400D03*
X673100Y25400D03*
X647700Y25400D03*
X622300Y25400D03*
X596900Y25400D03*
X571500Y25400D03*
X388300Y114300D03*
X464500Y114300D03*
X388300Y76200D03*
X464500Y76200D03*
X388300Y38100D03*
X464500Y38100D03*
X406400Y421640D03*
X406400Y447040D03*
X406400Y472440D03*
X406400Y497840D03*
X406400Y523240D03*
X406400Y548640D03*
X406400Y574040D03*
D16*
X25400Y448310D03*
X50800Y448310D03*
X76200Y448310D03*
X101600Y448310D03*
X127000Y448310D03*
X152400Y448310D03*
X177800Y448310D03*
X203200Y448310D03*
X228600Y448310D03*
X254000Y448310D03*
X279400Y448310D03*
X304800Y448310D03*
X330200Y448310D03*
X355600Y448310D03*
X355600Y600710D03*
X330200Y600710D03*
X304800Y600710D03*
X279400Y600710D03*
X254000Y600710D03*
X228600Y600710D03*
X203200Y600710D03*
X177800Y600710D03*
X152400Y600710D03*
X127000Y600710D03*
X101600Y600710D03*
X76200Y600710D03*
X50800Y600710D03*
X25400Y600710D03*
D17*
X271780Y246380D03*
X271780Y220980D03*
X271780Y195580D03*
X271780Y170180D03*
X44450Y246380D03*
X44450Y220980D03*
X44450Y195580D03*
X44450Y170180D03*
D18*
X532130Y556260D03*
D19*
X532130Y530860D03*
X532130Y505460D03*
X506730Y505460D03*
X506730Y530860D03*
X506730Y556260D03*
X506730Y480060D03*
D18*
X532130Y480060D03*
D15*
X650000Y110000D03*
X675400Y110000D03*
X700800Y110000D03*
D14*
X347218Y38100D02*
X328422Y38100D01*
X328422Y63500D02*
X347218Y63500D01*
X347218Y88900D02*
X328422Y88900D01*
D11*
X458470Y481330D03*
X458470Y455930D03*
D10*
X200660Y59490D03*
D11*
X200660Y34490D03*
D20*
X100584Y220472D02*
X44704Y220472D01*
X100584Y220472D02*
X200152Y120904D01*
X44704Y220472D02*
X44450Y220980D01*
X200152Y120904D02*
X200980Y120450D01*
X231648Y89408D02*
X337312Y89408D01*
X231648Y89408D02*
X202184Y118872D01*
X337312Y89408D02*
X337820Y88900D01*
X202184Y118872D02*
X200980Y120450D01*
D21*
X43688Y196088D02*
X29464Y210312D01*
X29464Y335280D01*
X141224Y447040D01*
X141224Y538480D01*
X203200Y600456D01*
X43688Y196088D02*
X44450Y195580D01*
X203200Y600456D02*
X203200Y600710D01*
X372872Y497840D02*
X406400Y497840D01*
X372872Y497840D02*
X312928Y557784D01*
D22*
X312928Y557784D03*
D21*
X44704Y175768D02*
X44704Y170688D01*
X44704Y175768D02*
X55880Y186944D01*
X55880Y204216D01*
X49784Y210312D01*
X35560Y210312D01*
X33528Y212344D01*
X33528Y313944D01*
X166624Y447040D01*
X166624Y538480D01*
X228600Y600456D01*
X44704Y170688D02*
X44450Y170180D01*
X228600Y600456D02*
X228600Y600710D01*
X386080Y472440D02*
X406400Y472440D01*
X386080Y472440D02*
X312928Y545592D01*
D22*
X312928Y545592D03*
D21*
X304800Y515112D02*
X304800Y600710D01*
X304800Y515112D02*
X393192Y426720D01*
X393192Y349504D01*
X407416Y335280D01*
X407670Y335280D01*
X398272Y600456D02*
X355600Y600456D01*
X398272Y600456D02*
X470408Y528320D01*
X470408Y370840D01*
X409448Y309880D01*
X407670Y309880D01*
X355600Y600456D02*
X355600Y600710D01*
X355600Y448310D02*
X355600Y308864D01*
X405384Y259080D01*
X407670Y259080D01*
D23*
X64008Y561340D02*
X25400Y599948D01*
X25400Y600710D01*
X165608Y59944D02*
X200152Y59944D01*
X165608Y59944D02*
X137160Y88392D01*
X200152Y59944D02*
X200660Y59490D01*
X137160Y88392D02*
X137000Y88900D01*
X205232Y62992D02*
X337312Y62992D01*
X205232Y62992D02*
X203200Y60960D01*
X337312Y62992D02*
X337820Y63500D01*
X203200Y60960D02*
X200660Y59490D01*
X390906Y233680D02*
X407670Y233680D01*
X390906Y233680D02*
X363982Y206756D01*
X363982Y82042D01*
X346964Y65024D01*
X340360Y65024D01*
X337820Y63500D01*
X10922Y527304D02*
X44958Y561340D01*
X10922Y527304D02*
X10922Y391160D01*
X35306Y366776D01*
D22*
X36576Y366776D03*
D23*
X64008Y561340D02*
X71120Y561340D01*
X44958Y561340D01*
X36576Y366776D02*
X35306Y366776D01*
D21*
X76200Y388112D02*
X76200Y448310D01*
X76200Y388112D02*
X25400Y337312D01*
X25400Y169672D01*
X81280Y113792D01*
X87376Y113792D01*
X111760Y89408D01*
X111760Y79248D01*
X178816Y12192D01*
X633984Y12192D01*
X647192Y25400D01*
X647700Y25400D01*
X50800Y368808D02*
X50800Y448310D01*
X50800Y368808D02*
X21336Y339344D01*
X21336Y108712D01*
X66040Y64008D01*
X93472Y64008D01*
X96520Y67056D01*
X117856Y67056D01*
X176784Y8128D01*
X655320Y8128D01*
X672592Y25400D01*
X673100Y25400D01*
X228600Y448310D02*
X228600Y534416D01*
X293624Y599440D01*
X293624Y605536D01*
X303784Y615696D01*
X447040Y615696D01*
X505968Y556768D01*
X506730Y556260D01*
X177800Y509016D02*
X177800Y448310D01*
X177800Y509016D02*
X268224Y599440D01*
X268224Y605536D01*
X282448Y619760D01*
X459232Y619760D01*
X520192Y558800D01*
X520192Y517144D01*
X531368Y505968D01*
X532130Y505460D01*
X101600Y509016D02*
X101600Y448310D01*
X101600Y509016D02*
X192024Y599440D01*
X192024Y605536D01*
X210312Y623824D01*
X485648Y623824D01*
X543560Y565912D01*
X543560Y500888D01*
X536448Y493776D01*
X524256Y493776D01*
X513080Y504952D01*
X506984Y504952D01*
X506730Y505460D01*
X346456Y537464D02*
X346456Y594360D01*
X344424Y596392D01*
X344424Y605536D01*
X350520Y611632D01*
X393192Y611632D01*
X494792Y510032D01*
X494792Y500888D01*
X503936Y491744D01*
X520192Y491744D01*
X531368Y480568D01*
X532130Y480060D01*
D22*
X346456Y537464D03*
D21*
X517144Y139192D02*
X527304Y139192D01*
X517144Y139192D02*
X492760Y114808D01*
X465328Y114808D01*
X527304Y139192D02*
X528000Y139700D01*
X465328Y114808D02*
X464500Y114300D01*
X517144Y88392D02*
X527304Y88392D01*
X517144Y88392D02*
X504952Y76200D01*
X464500Y76200D01*
X527304Y88392D02*
X528000Y88900D01*
X527304Y38608D02*
X517144Y38608D01*
X506984Y48768D01*
X475488Y48768D01*
X465328Y38608D01*
X527304Y38608D02*
X528000Y38100D01*
X465328Y38608D02*
X464500Y38100D01*
X411480Y176784D02*
X633984Y176784D01*
X700024Y110744D01*
X700800Y110000D01*
D22*
X411480Y176784D03*
M02*
