M48
;GenerationSoftware,Autodesk,EAGLE,9.1.1*%
;CreationDate,2018-07-22T08:43:09Z*%
FMAT,2
ICI,OFF
METRIC,TZ,000.000
T9C0.508
T8C0.700
T7C0.813
T6C0.900
T5C0.965
T4C1.000
T3C1.016
T2C1.118
T1C2.997
%
G90
M71
T1
X13700Y8890
X7700Y8890
X10700Y4190
T2
X33782Y8890
X33782Y6350
X33782Y3810
X40767Y20828
X40767Y23368
X40767Y25908
X40767Y28448
X40767Y30988
X40767Y33528
T3
X40640Y54864
X70080Y11000
X67540Y11000
X65000Y11000
X40640Y57404
X40640Y52324
X40640Y49784
X40640Y47244
X40640Y44704
X40640Y42164
X57150Y2540
X59690Y2540
X74930Y2540
X72390Y2540
X69850Y2540
X67310Y2540
X64770Y2540
X62230Y2540
T4
X50673Y53086
X50673Y50546
X53213Y50546
X53213Y53086
X53213Y55626
X50673Y55626
X53213Y48006
X50673Y48006
T5
X12700Y44831
X27940Y60071
X35560Y44831
X2540Y60071
X5080Y60071
X7620Y60071
X10160Y60071
X2540Y44831
X5080Y44831
X7620Y44831
X10160Y44831
X12700Y60071
X15240Y44831
X17780Y44831
X20320Y44831
X22860Y44831
X25400Y44831
X27940Y44831
X30480Y44831
X33020Y44831
X15240Y60071
X35560Y60071
X33020Y60071
X30480Y60071
X17780Y60071
X25400Y60071
X22860Y60071
X20320Y60071
T6
X4445Y17018
X38830Y7620
X46450Y7620
X38830Y3810
X46450Y11430
X46450Y3810
X38830Y11430
X27178Y24638
X27178Y22098
X27178Y19558
X27178Y17018
X4445Y24638
X4445Y22098
X4445Y19558
T7
X50260Y8890
X52800Y8890
X52800Y3810
X50260Y13970
X52800Y13970
X50260Y3810
T8
X20066Y3449
X7112Y53594
X7112Y56134
X20098Y9545
X20098Y12045
X45847Y48133
X45847Y45593
X20066Y5949
T9
X41148Y17678
X34646Y53746
X3658Y36678
X31293Y54559
X31293Y55778
M30