G04 EAGLE Gerber X2 export*
%TF.Part,Single*%
%TF.FileFunction,Other,Top Silkscreen*%
%TF.FilePolarity,Positive*%
%TF.GenerationSoftware,Autodesk,EAGLE,9.1.1*%
%TF.CreationDate,2018-08-06T02:20:56Z*%
G75*
%MOIN*%
%FSLAX34Y34*%
%LPD*%
%AMOC8*
5,1,8,0,0,1.08239X$1,22.5*%
G01*
%ADD10C,0.006000*%
%ADD11C,0.002000*%
%ADD12C,0.008000*%
%ADD13C,0.005000*%
%ADD14C,0.010000*%
%ADD15C,0.004000*%


D10*
X29299Y1423D02*
X29725Y1423D01*
X29512Y1210D02*
X29512Y1637D01*
X26457Y1415D02*
X26030Y1415D01*
X26243Y1202D02*
X26243Y1628D01*
X22972Y1340D02*
X22546Y1340D01*
X22759Y1126D02*
X22759Y1553D01*
X31405Y1573D02*
X31832Y1573D01*
X28550Y1516D02*
X28123Y1516D01*
X25162Y1418D02*
X24736Y1418D01*
D11*
X643Y22620D02*
X570Y22840D01*
X717Y22840D02*
X643Y22620D01*
X846Y22620D02*
X895Y22620D01*
X846Y22620D02*
X833Y22622D01*
X822Y22627D01*
X811Y22634D01*
X804Y22645D01*
X799Y22656D01*
X797Y22669D01*
X798Y22669D02*
X798Y22791D01*
X797Y22791D02*
X799Y22804D01*
X804Y22815D01*
X811Y22826D01*
X821Y22833D01*
X833Y22838D01*
X846Y22840D01*
X895Y22840D01*
X1026Y22620D02*
X1075Y22620D01*
X1026Y22620D02*
X1013Y22622D01*
X1002Y22627D01*
X991Y22634D01*
X984Y22645D01*
X979Y22656D01*
X977Y22669D01*
X978Y22669D02*
X978Y22791D01*
X977Y22791D02*
X979Y22804D01*
X984Y22815D01*
X991Y22826D01*
X1001Y22833D01*
X1013Y22838D01*
X1026Y22840D01*
X1075Y22840D01*
X15787Y2500D02*
X15860Y2280D01*
X15933Y2500D01*
X16063Y2280D02*
X16112Y2280D01*
X16063Y2280D02*
X16050Y2282D01*
X16039Y2287D01*
X16028Y2294D01*
X16021Y2305D01*
X16016Y2316D01*
X16014Y2329D01*
X16014Y2451D01*
X16016Y2464D01*
X16021Y2475D01*
X16028Y2486D01*
X16038Y2493D01*
X16050Y2498D01*
X16063Y2500D01*
X16112Y2500D01*
X16243Y2280D02*
X16292Y2280D01*
X16243Y2280D02*
X16230Y2282D01*
X16219Y2287D01*
X16208Y2294D01*
X16201Y2305D01*
X16196Y2316D01*
X16194Y2329D01*
X16194Y2451D01*
X16196Y2464D01*
X16201Y2475D01*
X16208Y2486D01*
X16218Y2493D01*
X16230Y2498D01*
X16243Y2500D01*
X16292Y2500D01*
X15441Y1343D02*
X15404Y1343D01*
X15441Y1343D02*
X15441Y1221D01*
X15368Y1221D01*
X15355Y1223D01*
X15344Y1228D01*
X15333Y1235D01*
X15326Y1246D01*
X15321Y1257D01*
X15319Y1270D01*
X15319Y1392D01*
X15321Y1405D01*
X15326Y1416D01*
X15333Y1427D01*
X15343Y1434D01*
X15355Y1439D01*
X15368Y1441D01*
X15441Y1441D01*
X15549Y1441D02*
X15549Y1221D01*
X15671Y1221D02*
X15549Y1441D01*
X15671Y1441D02*
X15671Y1221D01*
X15779Y1221D02*
X15779Y1441D01*
X15841Y1441D01*
X15855Y1439D01*
X15867Y1435D01*
X15879Y1428D01*
X15889Y1418D01*
X15896Y1406D01*
X15900Y1394D01*
X15902Y1380D01*
X15902Y1282D01*
X15900Y1268D01*
X15896Y1256D01*
X15889Y1244D01*
X15879Y1234D01*
X15867Y1227D01*
X15855Y1223D01*
X15841Y1221D01*
X15779Y1221D01*
X15817Y3290D02*
X15878Y3290D01*
X15893Y3292D01*
X15906Y3297D01*
X15918Y3305D01*
X15928Y3316D01*
X15935Y3329D01*
X15939Y3344D01*
X15939Y3358D01*
X15935Y3373D01*
X15928Y3386D01*
X15918Y3397D01*
X15906Y3405D01*
X15893Y3410D01*
X15878Y3412D01*
X15890Y3510D02*
X15817Y3510D01*
X15890Y3510D02*
X15903Y3508D01*
X15915Y3503D01*
X15925Y3496D01*
X15932Y3486D01*
X15937Y3474D01*
X15939Y3461D01*
X15937Y3448D01*
X15932Y3437D01*
X15925Y3426D01*
X15915Y3419D01*
X15903Y3414D01*
X15890Y3412D01*
X15841Y3412D01*
X16023Y3302D02*
X16023Y3290D01*
X16023Y3302D02*
X16035Y3302D01*
X16035Y3290D01*
X16023Y3290D01*
X16119Y3290D02*
X16180Y3290D01*
X16195Y3292D01*
X16208Y3297D01*
X16220Y3305D01*
X16230Y3316D01*
X16237Y3329D01*
X16241Y3344D01*
X16241Y3358D01*
X16237Y3373D01*
X16230Y3386D01*
X16220Y3397D01*
X16208Y3405D01*
X16195Y3410D01*
X16180Y3412D01*
X16193Y3510D02*
X16119Y3510D01*
X16193Y3510D02*
X16206Y3508D01*
X16218Y3503D01*
X16228Y3496D01*
X16235Y3486D01*
X16240Y3474D01*
X16242Y3461D01*
X16240Y3448D01*
X16235Y3437D01*
X16228Y3426D01*
X16218Y3419D01*
X16206Y3414D01*
X16193Y3412D01*
X16144Y3412D01*
X16323Y3510D02*
X16396Y3290D01*
X16470Y3510D01*
X25196Y4182D02*
X25232Y4182D01*
X25232Y4060D01*
X25159Y4060D01*
X25146Y4062D01*
X25135Y4067D01*
X25124Y4074D01*
X25117Y4085D01*
X25112Y4096D01*
X25110Y4109D01*
X25110Y4231D01*
X25112Y4244D01*
X25117Y4255D01*
X25124Y4266D01*
X25134Y4273D01*
X25146Y4278D01*
X25159Y4280D01*
X25232Y4280D01*
X25340Y4280D02*
X25340Y4060D01*
X25463Y4060D02*
X25340Y4280D01*
X25463Y4280D02*
X25463Y4060D01*
X25571Y4060D02*
X25571Y4280D01*
X25632Y4280D01*
X25646Y4278D01*
X25658Y4274D01*
X25670Y4267D01*
X25680Y4257D01*
X25687Y4245D01*
X25691Y4233D01*
X25693Y4219D01*
X25693Y4121D01*
X25691Y4107D01*
X25687Y4095D01*
X25680Y4083D01*
X25670Y4073D01*
X25658Y4066D01*
X25646Y4062D01*
X25632Y4060D01*
X25571Y4060D01*
X2782Y4332D02*
X2746Y4332D01*
X2782Y4332D02*
X2782Y4210D01*
X2709Y4210D01*
X2696Y4212D01*
X2685Y4217D01*
X2674Y4224D01*
X2667Y4235D01*
X2662Y4246D01*
X2660Y4259D01*
X2660Y4381D01*
X2662Y4394D01*
X2667Y4405D01*
X2674Y4416D01*
X2684Y4423D01*
X2696Y4428D01*
X2709Y4430D01*
X2782Y4430D01*
X2890Y4430D02*
X2890Y4210D01*
X3013Y4210D02*
X2890Y4430D01*
X3013Y4430D02*
X3013Y4210D01*
X3121Y4210D02*
X3121Y4430D01*
X3182Y4430D01*
X3196Y4428D01*
X3208Y4424D01*
X3220Y4417D01*
X3230Y4407D01*
X3237Y4395D01*
X3241Y4383D01*
X3243Y4369D01*
X3243Y4271D01*
X3241Y4257D01*
X3237Y4245D01*
X3230Y4233D01*
X3220Y4223D01*
X3208Y4216D01*
X3196Y4212D01*
X3182Y4210D01*
X3121Y4210D01*
X502Y16572D02*
X466Y16572D01*
X502Y16572D02*
X502Y16450D01*
X429Y16450D01*
X416Y16452D01*
X405Y16457D01*
X394Y16464D01*
X387Y16475D01*
X382Y16486D01*
X380Y16499D01*
X380Y16621D01*
X382Y16634D01*
X387Y16645D01*
X394Y16656D01*
X404Y16663D01*
X416Y16668D01*
X429Y16670D01*
X502Y16670D01*
X610Y16670D02*
X610Y16450D01*
X733Y16450D02*
X610Y16670D01*
X733Y16670D02*
X733Y16450D01*
X841Y16450D02*
X841Y16670D01*
X902Y16670D01*
X916Y16668D01*
X928Y16664D01*
X940Y16657D01*
X950Y16647D01*
X957Y16635D01*
X961Y16623D01*
X963Y16609D01*
X963Y16511D01*
X961Y16497D01*
X957Y16485D01*
X950Y16473D01*
X940Y16463D01*
X928Y16456D01*
X916Y16452D01*
X902Y16450D01*
X841Y16450D01*
X26060Y4280D02*
X26133Y4060D01*
X26207Y4280D01*
X26336Y4060D02*
X26385Y4060D01*
X26336Y4060D02*
X26323Y4062D01*
X26312Y4067D01*
X26301Y4074D01*
X26294Y4085D01*
X26289Y4096D01*
X26287Y4109D01*
X26288Y4109D02*
X26288Y4231D01*
X26287Y4231D02*
X26289Y4244D01*
X26294Y4255D01*
X26301Y4266D01*
X26311Y4273D01*
X26323Y4278D01*
X26336Y4280D01*
X26385Y4280D01*
X26516Y4060D02*
X26565Y4060D01*
X26516Y4060D02*
X26503Y4062D01*
X26492Y4067D01*
X26481Y4074D01*
X26474Y4085D01*
X26469Y4096D01*
X26467Y4109D01*
X26468Y4109D02*
X26468Y4231D01*
X26467Y4231D02*
X26469Y4244D01*
X26474Y4255D01*
X26481Y4266D01*
X26491Y4273D01*
X26503Y4278D01*
X26516Y4280D01*
X26565Y4280D01*
D12*
X6246Y4379D02*
X6248Y4441D01*
X6254Y4504D01*
X6264Y4565D01*
X6278Y4626D01*
X6295Y4686D01*
X6316Y4745D01*
X6342Y4802D01*
X6370Y4857D01*
X6402Y4911D01*
X6438Y4962D01*
X6476Y5012D01*
X6518Y5058D01*
X6562Y5102D01*
X6610Y5143D01*
X6659Y5181D01*
X6711Y5215D01*
X6765Y5246D01*
X6821Y5274D01*
X6879Y5298D01*
X6938Y5319D01*
X6998Y5335D01*
X7059Y5348D01*
X7121Y5357D01*
X7183Y5362D01*
X7246Y5363D01*
X7308Y5360D01*
X7370Y5353D01*
X7432Y5342D01*
X7492Y5327D01*
X7552Y5309D01*
X7610Y5287D01*
X7667Y5261D01*
X7722Y5231D01*
X7775Y5198D01*
X7826Y5162D01*
X7874Y5123D01*
X7920Y5080D01*
X7963Y5035D01*
X8003Y4987D01*
X8040Y4937D01*
X8074Y4884D01*
X8105Y4830D01*
X8131Y4774D01*
X8155Y4716D01*
X8174Y4656D01*
X8190Y4596D01*
X8202Y4534D01*
X8210Y4473D01*
X8214Y4410D01*
X8214Y4348D01*
X8210Y4285D01*
X8202Y4224D01*
X8190Y4162D01*
X8174Y4102D01*
X8155Y4042D01*
X8131Y3984D01*
X8105Y3928D01*
X8074Y3874D01*
X8040Y3821D01*
X8003Y3771D01*
X7963Y3723D01*
X7920Y3678D01*
X7874Y3635D01*
X7826Y3596D01*
X7775Y3560D01*
X7722Y3527D01*
X7667Y3497D01*
X7610Y3471D01*
X7552Y3449D01*
X7492Y3431D01*
X7432Y3416D01*
X7370Y3405D01*
X7308Y3398D01*
X7246Y3395D01*
X7183Y3396D01*
X7121Y3401D01*
X7059Y3410D01*
X6998Y3423D01*
X6938Y3439D01*
X6879Y3460D01*
X6821Y3484D01*
X6765Y3512D01*
X6711Y3543D01*
X6659Y3577D01*
X6610Y3615D01*
X6562Y3656D01*
X6518Y3700D01*
X6476Y3746D01*
X6438Y3796D01*
X6402Y3847D01*
X6370Y3901D01*
X6342Y3956D01*
X6316Y4013D01*
X6295Y4072D01*
X6278Y4132D01*
X6264Y4193D01*
X6254Y4254D01*
X6248Y4317D01*
X6246Y4379D01*
D13*
X6155Y4320D02*
X6155Y4278D01*
X6154Y4278D02*
X6153Y4267D01*
X6148Y4257D01*
X6142Y4248D01*
X6133Y4242D01*
X6123Y4237D01*
X6112Y4236D01*
X6112Y4235D02*
X6007Y4235D01*
X6007Y4236D02*
X5996Y4237D01*
X5986Y4242D01*
X5977Y4248D01*
X5971Y4257D01*
X5966Y4267D01*
X5965Y4278D01*
X5965Y4320D01*
X6007Y4417D02*
X5965Y4469D01*
X6155Y4469D01*
X6155Y4417D02*
X6155Y4522D01*
X8305Y4069D02*
X8347Y4016D01*
X8305Y4069D02*
X8495Y4069D01*
X8495Y4121D02*
X8495Y4016D01*
X8400Y4231D02*
X8376Y4233D01*
X8353Y4238D01*
X8331Y4247D01*
X8331Y4248D02*
X8321Y4254D01*
X8312Y4262D01*
X8307Y4273D01*
X8305Y4285D01*
X8307Y4297D01*
X8312Y4308D01*
X8321Y4316D01*
X8331Y4322D01*
X8353Y4331D01*
X8376Y4336D01*
X8400Y4338D01*
X8400Y4231D02*
X8424Y4233D01*
X8447Y4238D01*
X8469Y4247D01*
X8468Y4248D02*
X8478Y4254D01*
X8487Y4262D01*
X8492Y4273D01*
X8494Y4285D01*
X8469Y4322D02*
X8447Y4331D01*
X8424Y4336D01*
X8400Y4338D01*
X8468Y4322D02*
X8478Y4316D01*
X8487Y4308D01*
X8492Y4297D01*
X8494Y4285D01*
X8452Y4242D02*
X8347Y4327D01*
X8368Y4451D02*
X8463Y4451D01*
X8473Y4453D01*
X8482Y4457D01*
X8489Y4464D01*
X8493Y4473D01*
X8495Y4483D01*
X8495Y4536D01*
X8368Y4536D01*
X8305Y4657D02*
X8495Y4657D01*
X8305Y4657D02*
X8305Y4742D01*
X8389Y4742D02*
X8389Y4657D01*
D12*
X6680Y4087D02*
X6680Y3687D01*
X6680Y4671D02*
X6680Y5071D01*
X6480Y4871D02*
X6880Y4871D01*
X5394Y2555D02*
X5394Y1728D01*
X3268Y1728D02*
X1181Y1728D01*
X5118Y1728D02*
X5394Y1728D01*
X5394Y5272D02*
X1181Y5272D01*
X5394Y5272D02*
X5394Y4445D01*
X1181Y5272D02*
X1181Y1728D01*
D13*
X893Y3793D02*
X745Y3793D01*
X893Y3793D02*
X904Y3792D01*
X914Y3787D01*
X923Y3781D01*
X929Y3772D01*
X934Y3762D01*
X935Y3751D01*
X935Y3730D01*
X787Y3909D02*
X745Y3962D01*
X935Y3962D01*
X935Y3909D02*
X935Y4015D01*
X535Y2223D02*
X345Y2223D01*
X345Y2276D01*
X347Y2290D01*
X352Y2303D01*
X361Y2313D01*
X372Y2322D01*
X384Y2327D01*
X398Y2329D01*
X412Y2327D01*
X425Y2322D01*
X435Y2313D01*
X444Y2303D01*
X449Y2290D01*
X451Y2276D01*
X451Y2223D01*
X482Y2426D02*
X398Y2426D01*
X384Y2428D01*
X372Y2433D01*
X361Y2442D01*
X352Y2453D01*
X347Y2465D01*
X345Y2479D01*
X347Y2493D01*
X352Y2506D01*
X361Y2516D01*
X372Y2525D01*
X384Y2530D01*
X398Y2532D01*
X482Y2532D01*
X496Y2530D01*
X509Y2525D01*
X519Y2516D01*
X528Y2506D01*
X533Y2493D01*
X535Y2479D01*
X533Y2465D01*
X528Y2453D01*
X519Y2442D01*
X508Y2433D01*
X496Y2428D01*
X482Y2426D01*
X345Y2640D02*
X535Y2682D01*
X408Y2724D01*
X535Y2766D01*
X345Y2809D01*
X535Y2924D02*
X535Y3009D01*
X535Y2924D02*
X345Y2924D01*
X345Y3009D01*
X429Y2987D02*
X429Y2924D01*
X345Y3113D02*
X535Y3113D01*
X345Y3113D02*
X345Y3166D01*
X347Y3180D01*
X352Y3193D01*
X361Y3203D01*
X372Y3212D01*
X384Y3217D01*
X398Y3219D01*
X412Y3217D01*
X425Y3212D01*
X435Y3203D01*
X444Y3193D01*
X449Y3180D01*
X451Y3166D01*
X451Y3113D01*
X451Y3176D02*
X535Y3219D01*
X556Y3315D02*
X556Y3400D01*
X493Y3534D02*
X345Y3534D01*
X493Y3534D02*
X504Y3533D01*
X514Y3528D01*
X523Y3522D01*
X529Y3513D01*
X534Y3503D01*
X535Y3492D01*
X535Y3471D01*
X535Y3640D02*
X345Y3703D01*
X535Y3767D01*
X488Y3751D02*
X488Y3656D01*
X535Y3908D02*
X535Y3950D01*
X535Y3908D02*
X534Y3897D01*
X529Y3887D01*
X523Y3878D01*
X514Y3872D01*
X504Y3867D01*
X493Y3866D01*
X493Y3865D02*
X387Y3865D01*
X387Y3866D02*
X376Y3867D01*
X366Y3872D01*
X357Y3878D01*
X351Y3887D01*
X346Y3897D01*
X345Y3908D01*
X345Y3950D01*
X345Y4059D02*
X535Y4059D01*
X461Y4059D02*
X345Y4165D01*
X419Y4102D02*
X535Y4165D01*
D10*
X30584Y2687D02*
X30631Y2685D01*
X30679Y2679D01*
X30725Y2670D01*
X30771Y2657D01*
X30815Y2641D01*
X30859Y2620D01*
X30900Y2597D01*
X30939Y2571D01*
X30976Y2541D01*
X31011Y2508D01*
X31043Y2473D01*
X31072Y2436D01*
X30584Y2687D02*
X30538Y2685D01*
X30492Y2680D01*
X30446Y2671D01*
X30401Y2659D01*
X30358Y2643D01*
X30316Y2624D01*
X30275Y2601D01*
X30236Y2576D01*
X30200Y2548D01*
X30165Y2517D01*
X30133Y2483D01*
X30104Y2447D01*
X30584Y1487D02*
X30629Y1489D01*
X30675Y1494D01*
X30719Y1502D01*
X30763Y1514D01*
X30806Y1530D01*
X30848Y1548D01*
X30888Y1570D01*
X30926Y1594D01*
X30962Y1621D01*
X30997Y1651D01*
X31028Y1684D01*
X31058Y1719D01*
X30584Y1487D02*
X30539Y1489D01*
X30493Y1494D01*
X30449Y1502D01*
X30405Y1514D01*
X30362Y1530D01*
X30320Y1548D01*
X30280Y1570D01*
X30242Y1594D01*
X30206Y1621D01*
X30171Y1651D01*
X30140Y1684D01*
X30110Y1719D01*
D14*
X30584Y2887D02*
X30638Y2885D01*
X30691Y2880D01*
X30745Y2871D01*
X30797Y2858D01*
X30848Y2842D01*
X30899Y2822D01*
X30948Y2800D01*
X30995Y2774D01*
X31040Y2744D01*
X31083Y2712D01*
X31124Y2677D01*
X31163Y2639D01*
X31199Y2599D01*
X30584Y2887D02*
X30530Y2885D01*
X30476Y2880D01*
X30423Y2871D01*
X30370Y2858D01*
X30319Y2842D01*
X30269Y2822D01*
X30220Y2799D01*
X30172Y2773D01*
X30127Y2744D01*
X30084Y2711D01*
X30043Y2676D01*
X30004Y2638D01*
X29968Y2598D01*
X29935Y2555D01*
X29905Y2510D01*
X29878Y2463D01*
X30584Y1287D02*
X30637Y1289D01*
X30691Y1294D01*
X30743Y1303D01*
X30795Y1315D01*
X30846Y1331D01*
X30896Y1350D01*
X30945Y1373D01*
X30992Y1399D01*
X31037Y1427D01*
X31080Y1459D01*
X31120Y1493D01*
X31159Y1531D01*
X31195Y1570D01*
X30584Y1287D02*
X30528Y1289D01*
X30472Y1295D01*
X30417Y1305D01*
X30363Y1318D01*
X30309Y1336D01*
X30257Y1357D01*
X30207Y1381D01*
X30158Y1410D01*
X30112Y1441D01*
X30068Y1476D01*
X30026Y1513D01*
X29988Y1554D01*
X29952Y1597D01*
X29919Y1642D01*
X29889Y1690D01*
D13*
X31359Y2262D02*
X31359Y2712D01*
X31359Y2262D02*
X31559Y2262D01*
X31749Y2262D02*
X31949Y2262D01*
X31749Y2262D02*
X31749Y2712D01*
X31949Y2712D01*
X31899Y2512D02*
X31749Y2512D01*
X32138Y2712D02*
X32138Y2262D01*
X32138Y2712D02*
X32263Y2712D01*
X32283Y2710D01*
X32302Y2706D01*
X32320Y2698D01*
X32336Y2688D01*
X32351Y2675D01*
X32364Y2660D01*
X32374Y2644D01*
X32382Y2626D01*
X32386Y2607D01*
X32388Y2587D01*
X32388Y2387D01*
X32386Y2367D01*
X32382Y2348D01*
X32374Y2330D01*
X32364Y2314D01*
X32351Y2299D01*
X32336Y2286D01*
X32320Y2276D01*
X32302Y2268D01*
X32283Y2264D01*
X32263Y2262D01*
X32138Y2262D01*
X32603Y2612D02*
X32728Y2712D01*
X32728Y2262D01*
X32603Y2262D02*
X32853Y2262D01*
D10*
X27701Y2407D02*
X27672Y2444D01*
X27640Y2479D01*
X27605Y2512D01*
X27568Y2542D01*
X27529Y2568D01*
X27488Y2591D01*
X27444Y2612D01*
X27400Y2628D01*
X27354Y2641D01*
X27308Y2650D01*
X27260Y2656D01*
X27213Y2658D01*
X27167Y2656D01*
X27121Y2651D01*
X27075Y2642D01*
X27030Y2630D01*
X26987Y2614D01*
X26945Y2595D01*
X26904Y2572D01*
X26865Y2547D01*
X26829Y2519D01*
X26794Y2488D01*
X26762Y2454D01*
X26733Y2418D01*
X27213Y1458D02*
X27258Y1460D01*
X27304Y1465D01*
X27348Y1473D01*
X27392Y1485D01*
X27435Y1501D01*
X27477Y1519D01*
X27517Y1541D01*
X27555Y1565D01*
X27591Y1592D01*
X27626Y1622D01*
X27657Y1655D01*
X27687Y1690D01*
X27213Y1458D02*
X27168Y1460D01*
X27122Y1465D01*
X27078Y1473D01*
X27034Y1485D01*
X26991Y1501D01*
X26949Y1519D01*
X26909Y1541D01*
X26871Y1565D01*
X26835Y1592D01*
X26800Y1622D01*
X26769Y1655D01*
X26739Y1690D01*
D14*
X27213Y2858D02*
X27267Y2856D01*
X27320Y2851D01*
X27374Y2842D01*
X27426Y2829D01*
X27477Y2813D01*
X27528Y2793D01*
X27577Y2771D01*
X27624Y2745D01*
X27669Y2715D01*
X27712Y2683D01*
X27753Y2648D01*
X27792Y2610D01*
X27828Y2570D01*
X27213Y2858D02*
X27159Y2856D01*
X27105Y2851D01*
X27052Y2842D01*
X26999Y2829D01*
X26948Y2813D01*
X26898Y2793D01*
X26849Y2770D01*
X26801Y2744D01*
X26756Y2715D01*
X26713Y2682D01*
X26672Y2647D01*
X26633Y2609D01*
X26597Y2569D01*
X26564Y2526D01*
X26534Y2481D01*
X26507Y2434D01*
X27213Y1258D02*
X27266Y1260D01*
X27320Y1265D01*
X27372Y1274D01*
X27424Y1286D01*
X27475Y1302D01*
X27525Y1321D01*
X27574Y1344D01*
X27621Y1370D01*
X27666Y1398D01*
X27709Y1430D01*
X27749Y1464D01*
X27788Y1502D01*
X27824Y1541D01*
X27213Y1258D02*
X27157Y1260D01*
X27101Y1266D01*
X27046Y1276D01*
X26992Y1289D01*
X26938Y1307D01*
X26886Y1328D01*
X26836Y1352D01*
X26787Y1381D01*
X26741Y1412D01*
X26697Y1447D01*
X26655Y1484D01*
X26617Y1525D01*
X26581Y1568D01*
X26548Y1613D01*
X26518Y1661D01*
D13*
X27988Y2233D02*
X27988Y2683D01*
X27988Y2233D02*
X28188Y2233D01*
X28378Y2233D02*
X28578Y2233D01*
X28378Y2233D02*
X28378Y2683D01*
X28578Y2683D01*
X28528Y2483D02*
X28378Y2483D01*
X28767Y2683D02*
X28767Y2233D01*
X28767Y2683D02*
X28892Y2683D01*
X28912Y2681D01*
X28931Y2677D01*
X28949Y2669D01*
X28965Y2659D01*
X28980Y2646D01*
X28993Y2631D01*
X29003Y2615D01*
X29011Y2597D01*
X29015Y2578D01*
X29017Y2558D01*
X29017Y2358D01*
X29015Y2338D01*
X29011Y2319D01*
X29003Y2301D01*
X28993Y2285D01*
X28980Y2270D01*
X28965Y2257D01*
X28949Y2247D01*
X28931Y2239D01*
X28912Y2235D01*
X28892Y2233D01*
X28767Y2233D01*
X29369Y2684D02*
X29389Y2682D01*
X29408Y2677D01*
X29426Y2669D01*
X29442Y2658D01*
X29456Y2644D01*
X29467Y2628D01*
X29475Y2610D01*
X29480Y2591D01*
X29482Y2571D01*
X29369Y2684D02*
X29346Y2682D01*
X29324Y2677D01*
X29303Y2668D01*
X29284Y2656D01*
X29266Y2641D01*
X29252Y2624D01*
X29240Y2605D01*
X29231Y2584D01*
X29444Y2483D02*
X29457Y2498D01*
X29468Y2514D01*
X29476Y2532D01*
X29480Y2551D01*
X29482Y2571D01*
X29444Y2483D02*
X29232Y2233D01*
X29482Y2233D01*
D10*
X24383Y2418D02*
X24354Y2455D01*
X24322Y2490D01*
X24287Y2523D01*
X24250Y2553D01*
X24211Y2579D01*
X24170Y2602D01*
X24126Y2623D01*
X24082Y2639D01*
X24036Y2652D01*
X23990Y2661D01*
X23942Y2667D01*
X23895Y2669D01*
X23849Y2667D01*
X23803Y2662D01*
X23757Y2653D01*
X23712Y2641D01*
X23669Y2625D01*
X23627Y2606D01*
X23586Y2583D01*
X23547Y2558D01*
X23511Y2530D01*
X23476Y2499D01*
X23444Y2465D01*
X23415Y2429D01*
X23895Y1469D02*
X23940Y1471D01*
X23986Y1476D01*
X24030Y1484D01*
X24074Y1496D01*
X24117Y1512D01*
X24159Y1530D01*
X24199Y1552D01*
X24237Y1576D01*
X24273Y1603D01*
X24308Y1633D01*
X24339Y1666D01*
X24369Y1701D01*
X23895Y1469D02*
X23850Y1471D01*
X23804Y1476D01*
X23760Y1484D01*
X23716Y1496D01*
X23673Y1512D01*
X23631Y1530D01*
X23591Y1552D01*
X23553Y1576D01*
X23517Y1603D01*
X23482Y1633D01*
X23451Y1666D01*
X23421Y1701D01*
D14*
X23895Y2869D02*
X23949Y2867D01*
X24002Y2862D01*
X24056Y2853D01*
X24108Y2840D01*
X24159Y2824D01*
X24210Y2804D01*
X24259Y2782D01*
X24306Y2756D01*
X24351Y2726D01*
X24394Y2694D01*
X24435Y2659D01*
X24474Y2621D01*
X24510Y2581D01*
X23895Y2869D02*
X23841Y2867D01*
X23787Y2862D01*
X23734Y2853D01*
X23681Y2840D01*
X23630Y2824D01*
X23580Y2804D01*
X23531Y2781D01*
X23483Y2755D01*
X23438Y2726D01*
X23395Y2693D01*
X23354Y2658D01*
X23315Y2620D01*
X23279Y2580D01*
X23246Y2537D01*
X23216Y2492D01*
X23189Y2445D01*
X23895Y1269D02*
X23948Y1271D01*
X24002Y1276D01*
X24054Y1285D01*
X24106Y1297D01*
X24157Y1313D01*
X24207Y1332D01*
X24256Y1355D01*
X24303Y1381D01*
X24348Y1409D01*
X24391Y1441D01*
X24431Y1475D01*
X24470Y1513D01*
X24506Y1552D01*
X23895Y1269D02*
X23839Y1271D01*
X23783Y1277D01*
X23728Y1287D01*
X23674Y1300D01*
X23620Y1318D01*
X23568Y1339D01*
X23518Y1363D01*
X23469Y1392D01*
X23423Y1423D01*
X23379Y1458D01*
X23337Y1495D01*
X23299Y1536D01*
X23263Y1579D01*
X23230Y1624D01*
X23200Y1672D01*
D13*
X24670Y2244D02*
X24670Y2694D01*
X24670Y2244D02*
X24870Y2244D01*
X25060Y2244D02*
X25260Y2244D01*
X25060Y2244D02*
X25060Y2694D01*
X25260Y2694D01*
X25210Y2494D02*
X25060Y2494D01*
X25449Y2694D02*
X25449Y2244D01*
X25449Y2694D02*
X25574Y2694D01*
X25594Y2692D01*
X25613Y2688D01*
X25631Y2680D01*
X25647Y2670D01*
X25662Y2657D01*
X25675Y2642D01*
X25685Y2626D01*
X25693Y2608D01*
X25697Y2589D01*
X25699Y2569D01*
X25699Y2369D01*
X25697Y2349D01*
X25693Y2330D01*
X25685Y2312D01*
X25675Y2296D01*
X25662Y2281D01*
X25647Y2268D01*
X25631Y2258D01*
X25613Y2250D01*
X25594Y2246D01*
X25574Y2244D01*
X25449Y2244D01*
X25914Y2244D02*
X26039Y2244D01*
X26060Y2246D01*
X26080Y2251D01*
X26098Y2259D01*
X26116Y2270D01*
X26131Y2284D01*
X26144Y2301D01*
X26153Y2319D01*
X26160Y2338D01*
X26164Y2359D01*
X26164Y2379D01*
X26160Y2400D01*
X26153Y2419D01*
X26144Y2437D01*
X26131Y2454D01*
X26116Y2468D01*
X26098Y2479D01*
X26080Y2487D01*
X26060Y2492D01*
X26039Y2494D01*
X26064Y2694D02*
X25914Y2694D01*
X26064Y2694D02*
X26082Y2692D01*
X26100Y2687D01*
X26117Y2679D01*
X26131Y2668D01*
X26144Y2654D01*
X26154Y2639D01*
X26160Y2621D01*
X26164Y2603D01*
X26164Y2585D01*
X26160Y2567D01*
X26154Y2549D01*
X26144Y2534D01*
X26131Y2520D01*
X26117Y2509D01*
X26100Y2501D01*
X26082Y2496D01*
X26064Y2494D01*
X25964Y2494D01*
D12*
X15570Y8370D02*
X15070Y8370D01*
X15070Y14370D02*
X15570Y14370D01*
D13*
X14495Y8395D02*
X14305Y8395D01*
X14411Y8458D01*
X14305Y8522D01*
X14495Y8522D01*
X14495Y8653D02*
X14305Y8653D01*
X14495Y8632D02*
X14495Y8674D01*
X14305Y8674D02*
X14305Y8632D01*
X14495Y8814D02*
X14495Y8856D01*
X14495Y8814D02*
X14494Y8803D01*
X14489Y8793D01*
X14483Y8784D01*
X14474Y8778D01*
X14464Y8773D01*
X14453Y8772D01*
X14347Y8772D01*
X14336Y8773D01*
X14326Y8778D01*
X14317Y8784D01*
X14311Y8793D01*
X14306Y8803D01*
X14305Y8814D01*
X14305Y8856D01*
X14305Y8962D02*
X14495Y8962D01*
X14305Y8962D02*
X14305Y9015D01*
X14307Y9029D01*
X14312Y9042D01*
X14321Y9052D01*
X14332Y9061D01*
X14344Y9066D01*
X14358Y9068D01*
X14372Y9066D01*
X14385Y9061D01*
X14395Y9052D01*
X14404Y9042D01*
X14409Y9029D01*
X14411Y9015D01*
X14411Y8962D01*
X14411Y9026D02*
X14495Y9068D01*
X14442Y9176D02*
X14358Y9176D01*
X14344Y9178D01*
X14332Y9183D01*
X14321Y9192D01*
X14312Y9203D01*
X14307Y9215D01*
X14305Y9229D01*
X14307Y9243D01*
X14312Y9256D01*
X14321Y9266D01*
X14332Y9275D01*
X14344Y9280D01*
X14358Y9282D01*
X14442Y9282D01*
X14456Y9280D01*
X14469Y9275D01*
X14479Y9266D01*
X14488Y9256D01*
X14493Y9243D01*
X14495Y9229D01*
X14493Y9215D01*
X14488Y9203D01*
X14479Y9192D01*
X14469Y9183D01*
X14456Y9178D01*
X14442Y9176D01*
X14516Y9381D02*
X14516Y9465D01*
X14495Y9621D02*
X14494Y9632D01*
X14489Y9642D01*
X14483Y9651D01*
X14474Y9657D01*
X14464Y9662D01*
X14453Y9663D01*
X14495Y9621D02*
X14493Y9604D01*
X14488Y9587D01*
X14480Y9571D01*
X14469Y9558D01*
X14347Y9563D02*
X14336Y9564D01*
X14326Y9569D01*
X14317Y9575D01*
X14311Y9584D01*
X14306Y9594D01*
X14305Y9605D01*
X14307Y9622D01*
X14312Y9638D01*
X14321Y9652D01*
X14347Y9563D02*
X14358Y9564D01*
X14368Y9569D01*
X14377Y9575D01*
X14384Y9584D01*
X14416Y9642D02*
X14423Y9651D01*
X14432Y9657D01*
X14442Y9662D01*
X14453Y9663D01*
X14416Y9642D02*
X14384Y9584D01*
X14305Y9774D02*
X14495Y9774D01*
X14305Y9774D02*
X14305Y9826D01*
X14307Y9840D01*
X14312Y9853D01*
X14321Y9863D01*
X14332Y9872D01*
X14344Y9877D01*
X14358Y9879D01*
X14442Y9879D01*
X14456Y9877D01*
X14469Y9872D01*
X14479Y9863D01*
X14488Y9852D01*
X14493Y9840D01*
X14495Y9826D01*
X14495Y9774D01*
X14516Y9986D02*
X14516Y10070D01*
X14495Y10211D02*
X14495Y10253D01*
X14495Y10211D02*
X14494Y10200D01*
X14489Y10190D01*
X14483Y10181D01*
X14474Y10175D01*
X14464Y10170D01*
X14453Y10169D01*
X14453Y10168D02*
X14347Y10168D01*
X14347Y10169D02*
X14336Y10170D01*
X14326Y10175D01*
X14317Y10181D01*
X14311Y10190D01*
X14306Y10200D01*
X14305Y10211D01*
X14305Y10253D01*
X14305Y10402D02*
X14495Y10339D01*
X14495Y10466D02*
X14305Y10402D01*
X14448Y10450D02*
X14448Y10355D01*
X14495Y10575D02*
X14305Y10575D01*
X14305Y10628D01*
X14307Y10642D01*
X14312Y10655D01*
X14321Y10665D01*
X14332Y10674D01*
X14344Y10679D01*
X14358Y10681D01*
X14372Y10679D01*
X14385Y10674D01*
X14395Y10665D01*
X14404Y10655D01*
X14409Y10642D01*
X14411Y10628D01*
X14411Y10575D01*
X14411Y10639D02*
X14495Y10681D01*
X14495Y10796D02*
X14305Y10796D01*
X14305Y10849D01*
X14307Y10863D01*
X14312Y10876D01*
X14321Y10886D01*
X14332Y10895D01*
X14344Y10900D01*
X14358Y10902D01*
X14358Y10901D02*
X14442Y10901D01*
X14442Y10902D02*
X14456Y10900D01*
X14469Y10895D01*
X14479Y10886D01*
X14488Y10875D01*
X14493Y10863D01*
X14495Y10849D01*
X14495Y10796D01*
X14516Y11008D02*
X14516Y11093D01*
X14495Y11202D02*
X14305Y11202D01*
X14305Y11254D01*
X14307Y11268D01*
X14312Y11281D01*
X14321Y11291D01*
X14332Y11300D01*
X14344Y11305D01*
X14358Y11307D01*
X14372Y11305D01*
X14385Y11300D01*
X14395Y11291D01*
X14404Y11281D01*
X14409Y11268D01*
X14411Y11254D01*
X14411Y11202D01*
X14411Y11265D02*
X14495Y11307D01*
X14495Y11423D02*
X14495Y11508D01*
X14495Y11423D02*
X14305Y11423D01*
X14305Y11508D01*
X14389Y11486D02*
X14389Y11423D01*
X14495Y11592D02*
X14305Y11655D01*
X14495Y11718D01*
X14448Y11703D02*
X14448Y11608D01*
X14495Y11826D02*
X14305Y11826D01*
X14305Y11878D01*
X14307Y11892D01*
X14312Y11905D01*
X14321Y11915D01*
X14332Y11924D01*
X14344Y11929D01*
X14358Y11931D01*
X14442Y11931D01*
X14456Y11929D01*
X14469Y11924D01*
X14479Y11915D01*
X14488Y11904D01*
X14493Y11892D01*
X14495Y11878D01*
X14495Y11826D01*
X14495Y12057D02*
X14495Y12141D01*
X14495Y12057D02*
X14305Y12057D01*
X14305Y12141D01*
X14389Y12120D02*
X14389Y12057D01*
X14305Y12246D02*
X14495Y12246D01*
X14305Y12246D02*
X14305Y12298D01*
X14307Y12312D01*
X14312Y12325D01*
X14321Y12335D01*
X14332Y12344D01*
X14344Y12349D01*
X14358Y12351D01*
X14372Y12349D01*
X14385Y12344D01*
X14395Y12335D01*
X14404Y12325D01*
X14409Y12312D01*
X14411Y12298D01*
X14411Y12246D01*
X14411Y12309D02*
X14495Y12351D01*
D12*
X21297Y4073D02*
X21297Y2073D01*
X21297Y4073D02*
X21597Y4073D01*
X21897Y4073D01*
X21897Y2073D01*
X21597Y2073D01*
X21297Y2073D01*
X21597Y4073D02*
X21597Y4173D01*
X21597Y2073D02*
X21597Y1973D01*
D13*
X21172Y2914D02*
X20982Y2914D01*
X20982Y2966D01*
X20981Y2966D02*
X20983Y2980D01*
X20988Y2993D01*
X20997Y3003D01*
X21008Y3012D01*
X21020Y3017D01*
X21034Y3019D01*
X21048Y3017D01*
X21061Y3012D01*
X21071Y3003D01*
X21080Y2993D01*
X21085Y2980D01*
X21087Y2966D01*
X21087Y2914D01*
X21087Y2977D02*
X21172Y3019D01*
X21024Y3127D02*
X20982Y3180D01*
X21172Y3180D01*
X21172Y3127D02*
X21172Y3233D01*
X22022Y2972D02*
X22064Y2919D01*
X22022Y2972D02*
X22212Y2972D01*
X22212Y3024D02*
X22212Y2919D01*
X22212Y3143D02*
X22022Y3143D01*
X22085Y3227D02*
X22148Y3143D01*
X22122Y3180D02*
X22212Y3227D01*
D12*
X19997Y4059D02*
X19997Y2059D01*
X19997Y4059D02*
X20297Y4059D01*
X20597Y4059D01*
X20597Y2059D01*
X20297Y2059D01*
X19997Y2059D01*
X20297Y4059D02*
X20297Y4159D01*
X20297Y2059D02*
X20297Y1959D01*
D13*
X19872Y2900D02*
X19682Y2900D01*
X19682Y2953D01*
X19681Y2953D02*
X19683Y2967D01*
X19688Y2980D01*
X19697Y2990D01*
X19708Y2999D01*
X19720Y3004D01*
X19734Y3006D01*
X19748Y3004D01*
X19761Y2999D01*
X19771Y2990D01*
X19780Y2980D01*
X19785Y2967D01*
X19787Y2953D01*
X19787Y2900D01*
X19787Y2963D02*
X19872Y3005D01*
X19681Y3171D02*
X19683Y3183D01*
X19687Y3195D01*
X19695Y3205D01*
X19705Y3213D01*
X19717Y3217D01*
X19729Y3219D01*
X19682Y3171D02*
X19683Y3158D01*
X19687Y3146D01*
X19694Y3135D01*
X19702Y3126D01*
X19713Y3118D01*
X19724Y3113D01*
X19766Y3203D02*
X19755Y3212D01*
X19743Y3217D01*
X19729Y3219D01*
X19766Y3203D02*
X19872Y3113D01*
X19872Y3219D01*
X20722Y2958D02*
X20764Y2905D01*
X20722Y2958D02*
X20912Y2958D01*
X20912Y2905D02*
X20912Y3011D01*
X20912Y3129D02*
X20722Y3129D01*
X20785Y3214D02*
X20848Y3129D01*
X20822Y3166D02*
X20912Y3214D01*
D12*
X18647Y4036D02*
X18647Y2036D01*
X18647Y4036D02*
X18947Y4036D01*
X19247Y4036D01*
X19247Y2036D01*
X18947Y2036D01*
X18647Y2036D01*
X18947Y4036D02*
X18947Y4136D01*
X18947Y2036D02*
X18947Y1936D01*
D13*
X18522Y2877D02*
X18332Y2877D01*
X18332Y2929D01*
X18334Y2943D01*
X18339Y2956D01*
X18348Y2966D01*
X18359Y2975D01*
X18371Y2980D01*
X18385Y2982D01*
X18399Y2980D01*
X18412Y2975D01*
X18422Y2966D01*
X18431Y2956D01*
X18436Y2943D01*
X18438Y2929D01*
X18438Y2877D01*
X18438Y2940D02*
X18522Y2982D01*
X18522Y3090D02*
X18522Y3143D01*
X18520Y3157D01*
X18515Y3170D01*
X18506Y3180D01*
X18496Y3189D01*
X18483Y3194D01*
X18469Y3196D01*
X18455Y3194D01*
X18443Y3189D01*
X18432Y3180D01*
X18423Y3170D01*
X18418Y3157D01*
X18416Y3143D01*
X18332Y3154D02*
X18332Y3090D01*
X18332Y3154D02*
X18334Y3166D01*
X18339Y3177D01*
X18346Y3186D01*
X18357Y3192D01*
X18368Y3196D01*
X18380Y3196D01*
X18391Y3192D01*
X18402Y3186D01*
X18409Y3177D01*
X18414Y3166D01*
X18416Y3154D01*
X18417Y3154D02*
X18417Y3111D01*
X19372Y2935D02*
X19414Y2882D01*
X19372Y2935D02*
X19562Y2935D01*
X19562Y2882D02*
X19562Y2988D01*
X19562Y3106D02*
X19372Y3106D01*
X19436Y3190D02*
X19499Y3106D01*
X19473Y3143D02*
X19562Y3190D01*
X16370Y23680D02*
X23870Y23680D01*
X26370Y23680D01*
X26370Y17880D01*
X23870Y17880D01*
X16370Y17880D01*
X16370Y19030D01*
X16370Y19530D01*
X16370Y20030D01*
X16370Y20530D01*
X16370Y21030D01*
X16370Y21530D01*
X16370Y22030D01*
X16370Y22530D01*
X16370Y23680D01*
X23870Y23680D02*
X23870Y17880D01*
D10*
X24800Y18954D02*
X25440Y18741D01*
X25440Y19168D02*
X24800Y18954D01*
X25280Y19114D02*
X25280Y18794D01*
X25440Y19412D02*
X24800Y19412D01*
X25440Y19768D01*
X24800Y19768D01*
X24800Y20185D02*
X25440Y20185D01*
X24800Y20007D02*
X24800Y20363D01*
X25440Y20603D02*
X25440Y20888D01*
X25440Y20603D02*
X24800Y20603D01*
X24800Y20888D01*
X25084Y20817D02*
X25084Y20603D01*
X24800Y21136D02*
X25440Y21136D01*
X25440Y21491D02*
X24800Y21136D01*
X24800Y21491D02*
X25440Y21491D01*
X25440Y21792D02*
X24800Y21792D01*
X25440Y22148D01*
X24800Y22148D01*
X24800Y22606D02*
X25440Y22392D01*
X25440Y22819D02*
X24800Y22606D01*
X25280Y22766D02*
X25280Y22446D01*
D13*
X16620Y22780D02*
X16370Y22530D01*
X16620Y22780D02*
X17120Y22780D01*
X17370Y22530D01*
X17620Y22780D01*
X18120Y22780D01*
X18370Y22530D01*
X18370Y22030D01*
X18120Y21780D01*
X18370Y21530D01*
X18370Y21030D01*
X18120Y20780D01*
X18370Y20530D01*
X18370Y20030D01*
X18120Y19780D01*
X18370Y19530D01*
X18370Y19030D01*
X18120Y18780D01*
X17620Y18780D01*
X17370Y19030D01*
X17120Y18780D01*
X16620Y18780D01*
X16370Y19030D01*
X16370Y19530D02*
X16620Y19780D01*
X16370Y20030D01*
X16370Y20530D02*
X16620Y20780D01*
X16370Y21030D01*
X16370Y21530D02*
X16620Y21780D01*
X16370Y22030D01*
D15*
X20815Y24178D02*
X20815Y24510D01*
X20815Y24178D02*
X20817Y24157D01*
X20822Y24136D01*
X20830Y24117D01*
X20842Y24099D01*
X20856Y24084D01*
X20873Y24071D01*
X20892Y24061D01*
X20912Y24054D01*
X20932Y24050D01*
X20954Y24050D01*
X20974Y24054D01*
X20994Y24061D01*
X21013Y24071D01*
X21030Y24084D01*
X21044Y24099D01*
X21056Y24117D01*
X21064Y24136D01*
X21069Y24157D01*
X21071Y24178D01*
X21070Y24178D02*
X21070Y24510D01*
X21378Y24510D02*
X21378Y24050D01*
X21378Y24280D02*
X21314Y24318D01*
X21314Y24319D02*
X21301Y24329D01*
X21290Y24342D01*
X21282Y24356D01*
X21278Y24373D01*
X21277Y24389D01*
X21280Y24406D01*
X21287Y24421D01*
X21296Y24435D01*
X21309Y24446D01*
X21323Y24454D01*
X21339Y24459D01*
X21340Y24459D02*
X21364Y24462D01*
X21388Y24462D01*
X21412Y24459D01*
X21436Y24453D01*
X21458Y24444D01*
X21480Y24433D01*
X21378Y24280D02*
X21441Y24242D01*
X21441Y24241D02*
X21454Y24231D01*
X21465Y24218D01*
X21473Y24204D01*
X21477Y24187D01*
X21478Y24171D01*
X21475Y24154D01*
X21468Y24139D01*
X21459Y24125D01*
X21446Y24114D01*
X21432Y24106D01*
X21416Y24101D01*
X21415Y24101D02*
X21391Y24098D01*
X21367Y24098D01*
X21343Y24101D01*
X21319Y24107D01*
X21297Y24116D01*
X21275Y24127D01*
X21670Y24152D02*
X21772Y24510D01*
X21670Y24152D02*
X21925Y24152D01*
X21849Y24254D02*
X21849Y24050D01*
X17206Y17510D02*
X17309Y17050D01*
X17411Y17357D01*
X17513Y17050D01*
X17615Y17510D01*
X17831Y17510D02*
X17831Y17050D01*
X17780Y17050D02*
X17882Y17050D01*
X17882Y17510D02*
X17780Y17510D01*
X18081Y17510D02*
X18081Y17050D01*
X18081Y17510D02*
X18209Y17510D01*
X18230Y17508D01*
X18251Y17503D01*
X18270Y17495D01*
X18288Y17483D01*
X18303Y17469D01*
X18316Y17452D01*
X18326Y17433D01*
X18333Y17413D01*
X18337Y17393D01*
X18337Y17371D01*
X18333Y17351D01*
X18326Y17331D01*
X18316Y17312D01*
X18303Y17295D01*
X18288Y17281D01*
X18270Y17269D01*
X18251Y17261D01*
X18230Y17256D01*
X18209Y17254D01*
X18081Y17254D01*
X18234Y17254D02*
X18337Y17050D01*
X18544Y17050D02*
X18748Y17050D01*
X18544Y17050D02*
X18544Y17510D01*
X18748Y17510D01*
X18697Y17306D02*
X18544Y17306D01*
X18934Y17510D02*
X18934Y17050D01*
X19138Y17050D01*
X19324Y17050D02*
X19528Y17050D01*
X19324Y17050D02*
X19324Y17510D01*
X19528Y17510D01*
X19477Y17306D02*
X19324Y17306D01*
X19836Y17050D02*
X19854Y17052D01*
X19871Y17056D01*
X19887Y17064D01*
X19902Y17074D01*
X19914Y17086D01*
X19924Y17101D01*
X19932Y17117D01*
X19936Y17134D01*
X19938Y17152D01*
X19836Y17050D02*
X19808Y17052D01*
X19780Y17057D01*
X19753Y17067D01*
X19727Y17079D01*
X19704Y17095D01*
X19683Y17114D01*
X19696Y17408D02*
X19698Y17426D01*
X19702Y17443D01*
X19710Y17459D01*
X19720Y17474D01*
X19732Y17486D01*
X19747Y17496D01*
X19763Y17504D01*
X19780Y17508D01*
X19798Y17510D01*
X19823Y17508D01*
X19847Y17504D01*
X19870Y17496D01*
X19893Y17485D01*
X19913Y17472D01*
X19696Y17408D02*
X19698Y17390D01*
X19702Y17373D01*
X19710Y17356D01*
X19720Y17342D01*
X19733Y17329D01*
X19747Y17318D01*
X19888Y17242D02*
X19902Y17231D01*
X19915Y17218D01*
X19925Y17204D01*
X19933Y17187D01*
X19937Y17170D01*
X19939Y17152D01*
X19888Y17242D02*
X19747Y17318D01*
X20256Y17050D02*
X20274Y17052D01*
X20291Y17056D01*
X20307Y17064D01*
X20322Y17074D01*
X20334Y17086D01*
X20344Y17101D01*
X20352Y17117D01*
X20356Y17134D01*
X20358Y17152D01*
X20256Y17050D02*
X20228Y17052D01*
X20200Y17057D01*
X20173Y17067D01*
X20147Y17079D01*
X20124Y17095D01*
X20103Y17114D01*
X20116Y17408D02*
X20118Y17426D01*
X20122Y17443D01*
X20130Y17459D01*
X20140Y17474D01*
X20152Y17486D01*
X20167Y17496D01*
X20183Y17504D01*
X20200Y17508D01*
X20218Y17510D01*
X20243Y17508D01*
X20267Y17504D01*
X20290Y17496D01*
X20313Y17485D01*
X20333Y17472D01*
X20116Y17408D02*
X20118Y17390D01*
X20122Y17373D01*
X20130Y17356D01*
X20140Y17342D01*
X20153Y17329D01*
X20167Y17318D01*
X20308Y17242D02*
X20322Y17231D01*
X20335Y17218D01*
X20345Y17204D01*
X20353Y17187D01*
X20357Y17170D01*
X20359Y17152D01*
X20308Y17242D02*
X20167Y17318D01*
X20543Y17229D02*
X20849Y17229D01*
X21031Y17510D02*
X21134Y17050D01*
X21236Y17357D01*
X21338Y17050D01*
X21440Y17510D01*
X21656Y17510D02*
X21656Y17050D01*
X21605Y17050D02*
X21707Y17050D01*
X21707Y17510D02*
X21605Y17510D01*
X21904Y17510D02*
X21904Y17050D01*
X21904Y17510D02*
X22108Y17510D01*
X22108Y17306D02*
X21904Y17306D01*
X22316Y17510D02*
X22316Y17050D01*
X22265Y17050D02*
X22367Y17050D01*
X22367Y17510D02*
X22265Y17510D01*
X22553Y17229D02*
X22859Y17229D01*
X23074Y17050D02*
X23278Y17050D01*
X23074Y17050D02*
X23074Y17510D01*
X23278Y17510D01*
X23227Y17306D02*
X23074Y17306D01*
X23586Y17050D02*
X23604Y17052D01*
X23621Y17056D01*
X23637Y17064D01*
X23652Y17074D01*
X23664Y17086D01*
X23674Y17101D01*
X23682Y17117D01*
X23686Y17134D01*
X23688Y17152D01*
X23586Y17050D02*
X23558Y17052D01*
X23530Y17057D01*
X23503Y17067D01*
X23477Y17079D01*
X23454Y17095D01*
X23433Y17114D01*
X23446Y17408D02*
X23448Y17426D01*
X23452Y17443D01*
X23460Y17459D01*
X23470Y17474D01*
X23482Y17486D01*
X23497Y17496D01*
X23513Y17504D01*
X23530Y17508D01*
X23548Y17510D01*
X23573Y17508D01*
X23597Y17504D01*
X23620Y17496D01*
X23643Y17485D01*
X23663Y17472D01*
X23446Y17408D02*
X23448Y17390D01*
X23452Y17373D01*
X23460Y17356D01*
X23470Y17342D01*
X23483Y17329D01*
X23497Y17318D01*
X23638Y17242D02*
X23652Y17231D01*
X23665Y17218D01*
X23675Y17204D01*
X23683Y17187D01*
X23687Y17170D01*
X23689Y17152D01*
X23638Y17242D02*
X23497Y17318D01*
X23890Y17510D02*
X23890Y17050D01*
X23890Y17510D02*
X24017Y17510D01*
X24038Y17508D01*
X24059Y17503D01*
X24078Y17495D01*
X24096Y17483D01*
X24111Y17469D01*
X24124Y17452D01*
X24134Y17433D01*
X24141Y17413D01*
X24145Y17393D01*
X24145Y17371D01*
X24141Y17351D01*
X24134Y17331D01*
X24124Y17312D01*
X24111Y17295D01*
X24096Y17281D01*
X24078Y17269D01*
X24059Y17261D01*
X24038Y17256D01*
X24017Y17254D01*
X23890Y17254D01*
X24322Y17229D02*
X24629Y17229D01*
X24828Y17280D02*
X24830Y17314D01*
X24834Y17348D01*
X24842Y17382D01*
X24853Y17415D01*
X24866Y17446D01*
X24873Y17461D01*
X24882Y17475D01*
X24894Y17487D01*
X24908Y17497D01*
X24923Y17504D01*
X24939Y17509D01*
X24956Y17510D01*
X24973Y17509D01*
X24989Y17504D01*
X25004Y17497D01*
X25018Y17487D01*
X25030Y17475D01*
X25039Y17461D01*
X25046Y17446D01*
X25059Y17415D01*
X25070Y17382D01*
X25078Y17348D01*
X25082Y17314D01*
X25084Y17280D01*
X24828Y17280D02*
X24830Y17246D01*
X24834Y17212D01*
X24842Y17178D01*
X24853Y17145D01*
X24866Y17114D01*
X24873Y17099D01*
X24882Y17085D01*
X24894Y17073D01*
X24908Y17063D01*
X24923Y17056D01*
X24939Y17051D01*
X24956Y17050D01*
X25046Y17114D02*
X25059Y17145D01*
X25070Y17178D01*
X25078Y17212D01*
X25082Y17246D01*
X25084Y17280D01*
X25046Y17114D02*
X25039Y17099D01*
X25030Y17085D01*
X25018Y17073D01*
X25004Y17063D01*
X24989Y17056D01*
X24973Y17051D01*
X24956Y17050D01*
X24854Y17152D02*
X25058Y17408D01*
X25278Y17408D02*
X25406Y17510D01*
X25406Y17050D01*
X25278Y17050D02*
X25534Y17050D01*
D13*
X34674Y9137D02*
X34864Y9137D01*
X34864Y9221D01*
X34864Y9357D02*
X34864Y9399D01*
X34864Y9357D02*
X34863Y9346D01*
X34858Y9336D01*
X34852Y9327D01*
X34843Y9321D01*
X34833Y9316D01*
X34822Y9315D01*
X34716Y9315D01*
X34705Y9316D01*
X34695Y9321D01*
X34686Y9327D01*
X34680Y9336D01*
X34675Y9346D01*
X34674Y9357D01*
X34674Y9399D01*
X34674Y9503D02*
X34864Y9503D01*
X34674Y9503D02*
X34674Y9556D01*
X34676Y9570D01*
X34681Y9583D01*
X34690Y9593D01*
X34701Y9602D01*
X34713Y9607D01*
X34727Y9609D01*
X34811Y9609D01*
X34825Y9607D01*
X34838Y9602D01*
X34848Y9593D01*
X34857Y9582D01*
X34862Y9570D01*
X34864Y9556D01*
X34864Y9503D01*
X34885Y9715D02*
X34885Y9800D01*
X34864Y9906D02*
X34674Y9906D01*
X34674Y9959D01*
X34676Y9973D01*
X34681Y9986D01*
X34690Y9996D01*
X34701Y10005D01*
X34713Y10010D01*
X34727Y10012D01*
X34811Y10012D01*
X34825Y10010D01*
X34838Y10005D01*
X34848Y9996D01*
X34857Y9985D01*
X34862Y9973D01*
X34864Y9959D01*
X34864Y9906D01*
X34864Y10139D02*
X34674Y10139D01*
X34864Y10118D02*
X34864Y10160D01*
X34674Y10160D02*
X34674Y10118D01*
X34864Y10315D02*
X34863Y10326D01*
X34858Y10336D01*
X34852Y10345D01*
X34843Y10351D01*
X34833Y10356D01*
X34822Y10357D01*
X34864Y10315D02*
X34862Y10298D01*
X34857Y10281D01*
X34849Y10265D01*
X34838Y10252D01*
X34716Y10257D02*
X34705Y10258D01*
X34695Y10263D01*
X34686Y10269D01*
X34680Y10278D01*
X34675Y10288D01*
X34674Y10299D01*
X34676Y10316D01*
X34681Y10332D01*
X34690Y10346D01*
X34716Y10257D02*
X34727Y10258D01*
X34737Y10263D01*
X34746Y10269D01*
X34753Y10278D01*
X34785Y10336D02*
X34792Y10345D01*
X34801Y10351D01*
X34811Y10356D01*
X34822Y10357D01*
X34785Y10336D02*
X34753Y10278D01*
X34674Y10474D02*
X34864Y10474D01*
X34674Y10474D02*
X34674Y10526D01*
X34676Y10540D01*
X34681Y10553D01*
X34690Y10563D01*
X34701Y10572D01*
X34713Y10577D01*
X34727Y10579D01*
X34741Y10577D01*
X34754Y10572D01*
X34764Y10563D01*
X34773Y10553D01*
X34778Y10540D01*
X34780Y10526D01*
X34780Y10474D01*
X34864Y10685D02*
X34674Y10685D01*
X34864Y10685D02*
X34864Y10769D01*
X34864Y10853D02*
X34674Y10917D01*
X34864Y10980D01*
X34817Y10964D02*
X34817Y10869D01*
X34674Y11069D02*
X34764Y11133D01*
X34674Y11196D01*
X34764Y11133D02*
X34864Y11133D01*
D12*
X17566Y1266D02*
X17066Y1266D01*
X17066Y4266D02*
X17566Y4266D01*
D13*
X16449Y1355D02*
X16301Y1355D01*
X16449Y1354D02*
X16460Y1353D01*
X16470Y1348D01*
X16479Y1342D01*
X16485Y1333D01*
X16490Y1323D01*
X16491Y1312D01*
X16491Y1291D01*
X16301Y1529D02*
X16303Y1541D01*
X16307Y1553D01*
X16315Y1563D01*
X16325Y1571D01*
X16337Y1575D01*
X16349Y1577D01*
X16301Y1529D02*
X16302Y1516D01*
X16306Y1504D01*
X16313Y1493D01*
X16321Y1484D01*
X16332Y1476D01*
X16343Y1471D01*
X16386Y1560D02*
X16375Y1569D01*
X16363Y1574D01*
X16349Y1576D01*
X16386Y1560D02*
X16491Y1471D01*
X16491Y1576D01*
D12*
X16530Y16880D02*
X17030Y16880D01*
D13*
X16355Y16821D02*
X16355Y16779D01*
X16354Y16768D01*
X16349Y16758D01*
X16343Y16749D01*
X16334Y16743D01*
X16324Y16738D01*
X16313Y16737D01*
X16207Y16737D01*
X16196Y16738D01*
X16186Y16743D01*
X16177Y16749D01*
X16171Y16758D01*
X16166Y16768D01*
X16165Y16779D01*
X16165Y16821D01*
X16355Y16918D02*
X16355Y16971D01*
X16353Y16985D01*
X16348Y16998D01*
X16339Y17008D01*
X16329Y17017D01*
X16316Y17022D01*
X16302Y17024D01*
X16288Y17022D01*
X16276Y17017D01*
X16265Y17008D01*
X16256Y16998D01*
X16251Y16985D01*
X16249Y16971D01*
X16165Y16981D02*
X16165Y16918D01*
X16165Y16981D02*
X16167Y16993D01*
X16172Y17004D01*
X16179Y17013D01*
X16190Y17019D01*
X16201Y17023D01*
X16213Y17023D01*
X16224Y17019D01*
X16235Y17013D01*
X16242Y17004D01*
X16247Y16993D01*
X16249Y16981D01*
X16249Y16939D01*
X17205Y16579D02*
X17207Y16591D01*
X17211Y16603D01*
X17219Y16613D01*
X17229Y16621D01*
X17241Y16625D01*
X17253Y16627D01*
X17205Y16579D02*
X17206Y16566D01*
X17210Y16554D01*
X17217Y16543D01*
X17225Y16534D01*
X17236Y16526D01*
X17247Y16521D01*
X17290Y16610D02*
X17279Y16619D01*
X17267Y16624D01*
X17253Y16626D01*
X17289Y16610D02*
X17395Y16521D01*
X17395Y16626D01*
X17205Y16795D02*
X17207Y16807D01*
X17211Y16819D01*
X17219Y16829D01*
X17229Y16837D01*
X17241Y16841D01*
X17253Y16843D01*
X17205Y16795D02*
X17206Y16782D01*
X17210Y16770D01*
X17217Y16759D01*
X17225Y16750D01*
X17236Y16742D01*
X17247Y16737D01*
X17290Y16826D02*
X17279Y16835D01*
X17267Y16840D01*
X17253Y16842D01*
X17289Y16826D02*
X17395Y16737D01*
X17395Y16842D01*
X17458Y16958D02*
X17268Y16958D01*
X17268Y17011D01*
X17270Y17021D01*
X17274Y17030D01*
X17281Y17037D01*
X17290Y17041D01*
X17300Y17043D01*
X17300Y17042D02*
X17363Y17042D01*
X17363Y17043D02*
X17373Y17041D01*
X17382Y17037D01*
X17389Y17030D01*
X17393Y17021D01*
X17395Y17011D01*
X17395Y16958D01*
X17395Y17155D02*
X17205Y17155D01*
X17205Y17239D01*
X17289Y17239D02*
X17289Y17155D01*
D12*
X6272Y2097D02*
X6274Y2159D01*
X6280Y2222D01*
X6290Y2283D01*
X6304Y2344D01*
X6321Y2404D01*
X6342Y2463D01*
X6368Y2520D01*
X6396Y2575D01*
X6428Y2629D01*
X6464Y2680D01*
X6502Y2730D01*
X6544Y2776D01*
X6588Y2820D01*
X6636Y2861D01*
X6685Y2899D01*
X6737Y2933D01*
X6791Y2964D01*
X6847Y2992D01*
X6905Y3016D01*
X6964Y3037D01*
X7024Y3053D01*
X7085Y3066D01*
X7147Y3075D01*
X7209Y3080D01*
X7272Y3081D01*
X7334Y3078D01*
X7396Y3071D01*
X7458Y3060D01*
X7518Y3045D01*
X7578Y3027D01*
X7636Y3005D01*
X7693Y2979D01*
X7748Y2949D01*
X7801Y2916D01*
X7852Y2880D01*
X7900Y2841D01*
X7946Y2798D01*
X7989Y2753D01*
X8029Y2705D01*
X8066Y2655D01*
X8100Y2602D01*
X8131Y2548D01*
X8157Y2492D01*
X8181Y2434D01*
X8200Y2374D01*
X8216Y2314D01*
X8228Y2252D01*
X8236Y2191D01*
X8240Y2128D01*
X8240Y2066D01*
X8236Y2003D01*
X8228Y1942D01*
X8216Y1880D01*
X8200Y1820D01*
X8181Y1760D01*
X8157Y1702D01*
X8131Y1646D01*
X8100Y1592D01*
X8066Y1539D01*
X8029Y1489D01*
X7989Y1441D01*
X7946Y1396D01*
X7900Y1353D01*
X7852Y1314D01*
X7801Y1278D01*
X7748Y1245D01*
X7693Y1215D01*
X7636Y1189D01*
X7578Y1167D01*
X7518Y1149D01*
X7458Y1134D01*
X7396Y1123D01*
X7334Y1116D01*
X7272Y1113D01*
X7209Y1114D01*
X7147Y1119D01*
X7085Y1128D01*
X7024Y1141D01*
X6964Y1157D01*
X6905Y1178D01*
X6847Y1202D01*
X6791Y1230D01*
X6737Y1261D01*
X6685Y1295D01*
X6636Y1333D01*
X6588Y1374D01*
X6544Y1418D01*
X6502Y1464D01*
X6464Y1514D01*
X6428Y1565D01*
X6396Y1619D01*
X6368Y1674D01*
X6342Y1731D01*
X6321Y1790D01*
X6304Y1850D01*
X6290Y1911D01*
X6280Y1972D01*
X6274Y2035D01*
X6272Y2097D01*
D13*
X6181Y2038D02*
X6181Y1996D01*
X6180Y1985D01*
X6175Y1975D01*
X6169Y1966D01*
X6160Y1960D01*
X6150Y1955D01*
X6139Y1954D01*
X6034Y1954D01*
X6023Y1955D01*
X6013Y1960D01*
X6004Y1966D01*
X5998Y1975D01*
X5993Y1985D01*
X5992Y1996D01*
X5991Y1996D02*
X5991Y2038D01*
X5991Y2177D02*
X6139Y2135D01*
X6139Y2240D01*
X6097Y2209D02*
X6181Y2209D01*
X8331Y1787D02*
X8374Y1734D01*
X8331Y1787D02*
X8521Y1787D01*
X8521Y1839D02*
X8521Y1734D01*
X8426Y1949D02*
X8402Y1951D01*
X8379Y1956D01*
X8357Y1965D01*
X8357Y1966D02*
X8347Y1972D01*
X8338Y1980D01*
X8333Y1991D01*
X8331Y2003D01*
X8333Y2015D01*
X8338Y2026D01*
X8347Y2034D01*
X8357Y2040D01*
X8379Y2049D01*
X8402Y2054D01*
X8426Y2056D01*
X8426Y1949D02*
X8450Y1951D01*
X8473Y1956D01*
X8495Y1965D01*
X8495Y1966D02*
X8505Y1972D01*
X8514Y1980D01*
X8519Y1991D01*
X8521Y2003D01*
X8495Y2040D02*
X8473Y2049D01*
X8450Y2054D01*
X8426Y2056D01*
X8495Y2040D02*
X8505Y2034D01*
X8514Y2026D01*
X8519Y2015D01*
X8521Y2003D01*
X8479Y1960D02*
X8374Y2045D01*
X8395Y2169D02*
X8490Y2169D01*
X8500Y2171D01*
X8509Y2175D01*
X8516Y2182D01*
X8520Y2191D01*
X8522Y2201D01*
X8521Y2201D02*
X8521Y2254D01*
X8395Y2254D01*
X8331Y2375D02*
X8521Y2375D01*
X8331Y2375D02*
X8331Y2460D01*
X8416Y2460D02*
X8416Y2375D01*
D12*
X6706Y1805D02*
X6706Y1405D01*
X6706Y2389D02*
X6706Y2789D01*
X6506Y2589D02*
X6906Y2589D01*
X780Y19730D02*
X780Y20730D01*
X280Y20730D01*
X280Y23730D01*
X14280Y23730D01*
X14280Y16730D01*
X280Y16730D01*
X280Y19730D01*
X780Y19730D01*
D15*
X1300Y18750D02*
X1632Y18750D01*
X1653Y18752D01*
X1674Y18757D01*
X1693Y18765D01*
X1711Y18777D01*
X1726Y18791D01*
X1739Y18808D01*
X1749Y18827D01*
X1756Y18847D01*
X1760Y18867D01*
X1760Y18889D01*
X1756Y18909D01*
X1749Y18929D01*
X1739Y18948D01*
X1726Y18965D01*
X1711Y18979D01*
X1693Y18991D01*
X1674Y18999D01*
X1653Y19004D01*
X1632Y19006D01*
X1300Y19006D01*
X1300Y19313D02*
X1760Y19313D01*
X1530Y19313D02*
X1492Y19249D01*
X1491Y19249D02*
X1481Y19236D01*
X1468Y19225D01*
X1454Y19217D01*
X1437Y19213D01*
X1421Y19212D01*
X1404Y19215D01*
X1389Y19222D01*
X1375Y19231D01*
X1364Y19244D01*
X1356Y19258D01*
X1351Y19274D01*
X1351Y19275D02*
X1348Y19299D01*
X1348Y19323D01*
X1351Y19347D01*
X1357Y19371D01*
X1366Y19393D01*
X1377Y19415D01*
X1530Y19313D02*
X1568Y19377D01*
X1569Y19376D02*
X1579Y19389D01*
X1592Y19400D01*
X1607Y19408D01*
X1623Y19412D01*
X1639Y19413D01*
X1656Y19410D01*
X1671Y19403D01*
X1685Y19394D01*
X1696Y19381D01*
X1704Y19367D01*
X1709Y19351D01*
X1712Y19327D01*
X1712Y19303D01*
X1709Y19279D01*
X1703Y19255D01*
X1694Y19233D01*
X1683Y19211D01*
X1402Y19605D02*
X1300Y19733D01*
X1760Y19733D01*
X1760Y19605D02*
X1760Y19861D01*
X12300Y18878D02*
X12760Y18878D01*
X12300Y18750D02*
X12300Y19006D01*
X12760Y19186D02*
X12760Y19390D01*
X12760Y19186D02*
X12300Y19186D01*
X12300Y19390D01*
X12504Y19339D02*
X12504Y19186D01*
X12760Y19576D02*
X12760Y19780D01*
X12760Y19576D02*
X12300Y19576D01*
X12300Y19780D01*
X12504Y19729D02*
X12504Y19576D01*
X12300Y19965D02*
X12760Y19965D01*
X12760Y20221D02*
X12300Y19965D01*
X12300Y20221D02*
X12760Y20221D01*
X12760Y20568D02*
X12758Y20586D01*
X12754Y20603D01*
X12746Y20619D01*
X12736Y20634D01*
X12724Y20646D01*
X12709Y20656D01*
X12693Y20664D01*
X12676Y20668D01*
X12658Y20670D01*
X12760Y20568D02*
X12758Y20540D01*
X12753Y20512D01*
X12743Y20485D01*
X12731Y20459D01*
X12715Y20436D01*
X12696Y20415D01*
X12402Y20428D02*
X12384Y20430D01*
X12367Y20434D01*
X12351Y20442D01*
X12336Y20452D01*
X12324Y20464D01*
X12314Y20479D01*
X12306Y20495D01*
X12302Y20512D01*
X12300Y20530D01*
X12302Y20555D01*
X12306Y20579D01*
X12314Y20602D01*
X12325Y20625D01*
X12338Y20645D01*
X12402Y20428D02*
X12420Y20430D01*
X12437Y20434D01*
X12454Y20442D01*
X12468Y20452D01*
X12481Y20465D01*
X12492Y20479D01*
X12568Y20620D02*
X12579Y20634D01*
X12592Y20647D01*
X12606Y20657D01*
X12623Y20665D01*
X12640Y20669D01*
X12658Y20671D01*
X12568Y20619D02*
X12492Y20479D01*
X12300Y20824D02*
X12517Y20978D01*
X12300Y21131D01*
X12517Y20978D02*
X12760Y20978D01*
X12811Y21281D02*
X12811Y21485D01*
X12760Y21660D02*
X12760Y21788D01*
X12758Y21809D01*
X12753Y21830D01*
X12745Y21849D01*
X12733Y21867D01*
X12719Y21882D01*
X12702Y21895D01*
X12683Y21905D01*
X12663Y21912D01*
X12643Y21916D01*
X12621Y21916D01*
X12601Y21912D01*
X12581Y21905D01*
X12562Y21895D01*
X12545Y21882D01*
X12531Y21867D01*
X12519Y21849D01*
X12511Y21830D01*
X12506Y21809D01*
X12504Y21788D01*
X12300Y21813D02*
X12300Y21660D01*
X12300Y21813D02*
X12302Y21832D01*
X12307Y21850D01*
X12315Y21867D01*
X12327Y21882D01*
X12341Y21894D01*
X12357Y21904D01*
X12374Y21911D01*
X12393Y21915D01*
X12411Y21915D01*
X12430Y21911D01*
X12447Y21904D01*
X12463Y21894D01*
X12477Y21882D01*
X12489Y21867D01*
X12497Y21850D01*
X12502Y21832D01*
X12504Y21813D01*
X12504Y21711D01*
X12734Y22090D02*
X12760Y22090D01*
X12734Y22090D02*
X12734Y22116D01*
X12760Y22116D01*
X12760Y22090D01*
X12402Y22290D02*
X12300Y22418D01*
X12760Y22418D01*
X12760Y22290D02*
X12760Y22546D01*
X12581Y22744D02*
X12581Y23051D01*
X12760Y23250D02*
X12760Y23378D01*
X12758Y23399D01*
X12753Y23420D01*
X12745Y23439D01*
X12733Y23457D01*
X12719Y23472D01*
X12702Y23485D01*
X12683Y23495D01*
X12663Y23502D01*
X12643Y23506D01*
X12621Y23506D01*
X12601Y23502D01*
X12581Y23495D01*
X12562Y23485D01*
X12545Y23472D01*
X12531Y23457D01*
X12519Y23439D01*
X12511Y23420D01*
X12506Y23399D01*
X12504Y23378D01*
X12300Y23403D02*
X12300Y23250D01*
X12300Y23403D02*
X12302Y23422D01*
X12307Y23440D01*
X12315Y23457D01*
X12327Y23472D01*
X12341Y23484D01*
X12357Y23494D01*
X12374Y23501D01*
X12393Y23505D01*
X12411Y23505D01*
X12430Y23501D01*
X12447Y23494D01*
X12463Y23484D01*
X12477Y23472D01*
X12489Y23457D01*
X12497Y23440D01*
X12502Y23422D01*
X12504Y23403D01*
X12504Y23301D01*
X12734Y23680D02*
X12760Y23680D01*
X12734Y23680D02*
X12734Y23706D01*
X12760Y23706D01*
X12760Y23680D01*
X12415Y24136D02*
X12395Y24134D01*
X12376Y24129D01*
X12358Y24121D01*
X12341Y24109D01*
X12327Y24095D01*
X12315Y24079D01*
X12307Y24060D01*
X12302Y24041D01*
X12300Y24021D01*
X12302Y23998D01*
X12307Y23975D01*
X12316Y23954D01*
X12328Y23934D01*
X12343Y23916D01*
X12361Y23901D01*
X12381Y23889D01*
X12402Y23880D01*
X12505Y24098D02*
X12490Y24111D01*
X12473Y24122D01*
X12454Y24130D01*
X12435Y24134D01*
X12415Y24136D01*
X12504Y24097D02*
X12760Y23880D01*
X12760Y24136D01*
X12811Y24311D02*
X12811Y24515D01*
X12760Y24705D02*
X12300Y24705D01*
X12300Y24833D01*
X12302Y24853D01*
X12306Y24873D01*
X12314Y24891D01*
X12324Y24908D01*
X12337Y24924D01*
X12353Y24937D01*
X12370Y24947D01*
X12388Y24955D01*
X12408Y24959D01*
X12428Y24961D01*
X12632Y24961D01*
X12652Y24959D01*
X12672Y24955D01*
X12690Y24947D01*
X12707Y24937D01*
X12723Y24924D01*
X12736Y24908D01*
X12746Y24891D01*
X12754Y24873D01*
X12758Y24853D01*
X12760Y24833D01*
X12760Y24705D01*
X12760Y25208D02*
X12300Y25208D01*
X12760Y25157D02*
X12760Y25259D01*
X12300Y25259D02*
X12300Y25157D01*
X12300Y25456D02*
X12760Y25456D01*
X12760Y25660D01*
M02*
