M48
;GenerationSoftware,Autodesk,EAGLE,9.1.1*%
;CreationDate,2018-08-06T02:16:34Z*%
FMAT,2
ICI,OFF
METRIC,TZ,000.000
T9C0.508
T8C0.700
T7C0.813
T6C0.900
T5C0.965
T4C1.000
T3C1.016
T2C1.118
T1C2.997
%
G90
M71
T1
X10700Y4190
X7700Y8890
X13700Y8890
T2
X38913Y32690
X38913Y35230
X38913Y30150
X43983Y4486
X43983Y7026
X43983Y9566
X38913Y27610
X38913Y25070
X38913Y22530
T3
X76708Y9017
X86612Y27231
X86612Y22151
X86612Y24691
X74168Y9017
X71628Y9017
X69088Y9017
X66548Y9017
X64008Y9017
X61468Y9017
X58928Y9017
X38735Y57023
X38735Y54483
X38735Y51943
X38735Y49403
X38735Y41783
X38735Y44323
X38735Y46863
T4
X42850Y51511
X45390Y51511
X42850Y56591
X42850Y48971
X45390Y48971
X42850Y54051
X45390Y54051
X45390Y56591
T5
X27381Y43764
X29921Y43764
X32461Y43764
X35001Y43764
X24841Y43764
X22301Y43764
X19761Y43764
X17221Y43764
X14681Y43764
X12141Y43764
X9601Y43764
X7061Y43764
X35001Y59004
X32461Y59004
X29921Y59004
X27381Y59004
X24841Y59004
X22301Y59004
X19761Y59004
X17221Y59004
X14681Y59004
X12141Y59004
X9601Y59004
X7061Y59004
X4521Y59004
X1981Y59004
X4521Y43764
X1981Y43764
T6
X4445Y19558
X4445Y17018
X4445Y22098
X4445Y24638
X27178Y17018
X27178Y19558
X27178Y22098
X27178Y24638
X48126Y11522
X48126Y3902
X51553Y11581
X51553Y3961
X54855Y11616
X54855Y3996
T7
X61964Y5256
X59424Y5256
X70391Y5228
X67851Y5228
X78954Y5301
X76414Y5301
T8
X18431Y4076
X42621Y44145
X42621Y41605
X18431Y6576
X2010Y40019
X2010Y37479
X18363Y9872
X18363Y12372
T9
X52832Y48260
X22454Y56286
M30