G04 EAGLE Gerber X2 export*
%TF.Part,Single*%
%TF.FileFunction,Other,Bottom Copper*%
%TF.FilePolarity,Positive*%
%TF.GenerationSoftware,Autodesk,EAGLE,9.1.1*%
%TF.CreationDate,2018-08-06T02:15:33Z*%
G75*
%MOIN*%
%FSLAX34Y34*%
%LPD*%
%AMOC8*
5,1,8,0,0,1.08239X$1,22.5*%
G01*
%ADD10R,0.065000X0.065000*%
%ADD11C,0.065000*%
%ADD12C,0.170000*%
%ADD13P,0.060614X8X22.500000*%
%ADD14C,0.074000*%
%ADD15C,0.074000*%
%ADD16R,0.059433X0.059433*%
%ADD17R,0.063370X0.063370*%
%ADD18C,0.063370*%
%ADD19C,0.062000*%
%ADD20C,0.015000*%
%ADD21C,0.008000*%
%ADD22C,0.040000*%

G36*
X35258Y131D02*
X35258Y131D01*
X35263Y132D01*
X35264Y132D01*
X35265Y132D01*
X35270Y134D01*
X35275Y136D01*
X35276Y136D01*
X35277Y137D01*
X35281Y140D01*
X35285Y143D01*
X35286Y144D01*
X35287Y144D01*
X35290Y148D01*
X35293Y152D01*
X35294Y153D01*
X35295Y154D01*
X35297Y158D01*
X35299Y163D01*
X35299Y164D01*
X35300Y165D01*
X35302Y177D01*
X35302Y179D01*
X35302Y180D01*
X35302Y24820D01*
X35302Y24825D01*
X35301Y24830D01*
X35301Y24831D01*
X35301Y24832D01*
X35299Y24837D01*
X35297Y24842D01*
X35297Y24843D01*
X35296Y24844D01*
X35293Y24848D01*
X35291Y24852D01*
X35290Y24853D01*
X35289Y24854D01*
X35285Y24857D01*
X35281Y24860D01*
X35280Y24861D01*
X35279Y24862D01*
X35275Y24864D01*
X35270Y24866D01*
X35269Y24866D01*
X35268Y24867D01*
X35256Y24869D01*
X35254Y24869D01*
X35253Y24869D01*
X180Y24869D01*
X175Y24869D01*
X170Y24868D01*
X169Y24868D01*
X168Y24868D01*
X163Y24866D01*
X158Y24864D01*
X157Y24864D01*
X156Y24863D01*
X152Y24860D01*
X148Y24857D01*
X147Y24856D01*
X146Y24856D01*
X143Y24852D01*
X140Y24848D01*
X139Y24847D01*
X138Y24846D01*
X136Y24842D01*
X134Y24837D01*
X134Y24836D01*
X133Y24835D01*
X131Y24823D01*
X131Y24821D01*
X131Y24820D01*
X131Y180D01*
X131Y175D01*
X132Y170D01*
X132Y169D01*
X132Y168D01*
X134Y163D01*
X136Y158D01*
X136Y157D01*
X137Y156D01*
X140Y152D01*
X143Y148D01*
X144Y147D01*
X144Y146D01*
X148Y143D01*
X152Y140D01*
X153Y139D01*
X154Y138D01*
X158Y136D01*
X163Y134D01*
X164Y134D01*
X165Y133D01*
X177Y131D01*
X179Y131D01*
X180Y131D01*
X35253Y131D01*
X35258Y131D01*
G37*
%LPC*%
G36*
X3702Y339D02*
X3702Y339D01*
X659Y3382D01*
X659Y9818D01*
X1605Y10764D01*
X1607Y10767D01*
X1610Y10770D01*
X1611Y10772D01*
X1612Y10774D01*
X1614Y10778D01*
X1616Y10781D01*
X1616Y10783D01*
X1617Y10785D01*
X1619Y10797D01*
X1619Y10798D01*
X1619Y10799D01*
X1619Y16819D01*
X1619Y16821D01*
X1619Y16822D01*
X1618Y16827D01*
X1618Y16831D01*
X1617Y16833D01*
X1617Y16834D01*
X1615Y16839D01*
X1613Y16843D01*
X1612Y16844D01*
X1612Y16846D01*
X1609Y16849D01*
X1606Y16853D01*
X1605Y16854D01*
X1604Y16855D01*
X1601Y16856D01*
X1596Y16861D01*
X1591Y16863D01*
X1589Y16865D01*
X1547Y16882D01*
X1432Y16997D01*
X1369Y17148D01*
X1369Y17312D01*
X1432Y17463D01*
X1547Y17578D01*
X1698Y17641D01*
X1862Y17641D01*
X2013Y17578D01*
X2128Y17463D01*
X2191Y17312D01*
X2191Y17148D01*
X2128Y16997D01*
X2013Y16882D01*
X1931Y16848D01*
X1930Y16847D01*
X1928Y16847D01*
X1924Y16844D01*
X1920Y16842D01*
X1919Y16841D01*
X1918Y16840D01*
X1915Y16836D01*
X1911Y16833D01*
X1911Y16832D01*
X1910Y16831D01*
X1907Y16827D01*
X1905Y16823D01*
X1905Y16821D01*
X1904Y16820D01*
X1903Y16817D01*
X1901Y16811D01*
X1901Y16805D01*
X1901Y16803D01*
X1901Y10939D01*
X1901Y10933D01*
X1902Y10928D01*
X1902Y10927D01*
X1902Y10926D01*
X1904Y10921D01*
X1906Y10916D01*
X1907Y10915D01*
X1910Y10910D01*
X1913Y10906D01*
X1914Y10905D01*
X1919Y10901D01*
X1923Y10898D01*
X1923Y10897D01*
X1924Y10897D01*
X1929Y10895D01*
X1934Y10892D01*
X1935Y10892D01*
X1941Y10891D01*
X1946Y10890D01*
X1947Y10890D01*
X1953Y10890D01*
X1959Y10890D01*
X1960Y10890D01*
X1965Y10892D01*
X1970Y10894D01*
X1971Y10894D01*
X1972Y10894D01*
X1982Y10901D01*
X1984Y10903D01*
X1985Y10904D01*
X2605Y11524D01*
X2607Y11527D01*
X2610Y11530D01*
X2611Y11532D01*
X2612Y11534D01*
X2614Y11538D01*
X2616Y11541D01*
X2616Y11543D01*
X2617Y11545D01*
X2619Y11557D01*
X2619Y11558D01*
X2619Y11559D01*
X2619Y16819D01*
X2619Y16821D01*
X2619Y16822D01*
X2618Y16827D01*
X2618Y16831D01*
X2617Y16833D01*
X2617Y16834D01*
X2615Y16839D01*
X2613Y16843D01*
X2612Y16844D01*
X2612Y16846D01*
X2609Y16849D01*
X2606Y16853D01*
X2605Y16854D01*
X2604Y16855D01*
X2601Y16856D01*
X2596Y16861D01*
X2591Y16863D01*
X2589Y16865D01*
X2547Y16882D01*
X2432Y16997D01*
X2369Y17148D01*
X2369Y17312D01*
X2432Y17463D01*
X2547Y17578D01*
X2698Y17641D01*
X2862Y17641D01*
X3013Y17578D01*
X3128Y17463D01*
X3191Y17312D01*
X3191Y17148D01*
X3128Y16997D01*
X3013Y16882D01*
X2931Y16848D01*
X2930Y16847D01*
X2928Y16847D01*
X2924Y16844D01*
X2920Y16842D01*
X2919Y16841D01*
X2918Y16840D01*
X2915Y16836D01*
X2911Y16833D01*
X2911Y16832D01*
X2910Y16831D01*
X2907Y16827D01*
X2905Y16823D01*
X2905Y16821D01*
X2904Y16820D01*
X2903Y16817D01*
X2901Y16811D01*
X2901Y16805D01*
X2901Y16803D01*
X2901Y11422D01*
X1661Y10182D01*
X1658Y10178D01*
X1654Y10173D01*
X1653Y10172D01*
X1651Y10167D01*
X1649Y10162D01*
X1649Y10161D01*
X1648Y10155D01*
X1647Y10150D01*
X1647Y10149D01*
X1647Y10148D01*
X1647Y10143D01*
X1648Y10137D01*
X1648Y10136D01*
X1650Y10131D01*
X1652Y10126D01*
X1652Y10125D01*
X1652Y10124D01*
X1655Y10120D01*
X1658Y10115D01*
X1659Y10115D01*
X1659Y10114D01*
X1662Y10112D01*
X1662Y9788D01*
X1339Y9788D01*
X1334Y9792D01*
X1330Y9795D01*
X1329Y9795D01*
X1329Y9796D01*
X1324Y9798D01*
X1319Y9801D01*
X1318Y9801D01*
X1312Y9802D01*
X1307Y9803D01*
X1306Y9803D01*
X1305Y9803D01*
X1300Y9803D01*
X1294Y9803D01*
X1294Y9802D01*
X1293Y9802D01*
X1288Y9801D01*
X1282Y9799D01*
X1281Y9798D01*
X1271Y9792D01*
X1269Y9790D01*
X1268Y9789D01*
X1115Y9636D01*
X1113Y9633D01*
X1110Y9630D01*
X1109Y9628D01*
X1108Y9626D01*
X1106Y9622D01*
X1104Y9619D01*
X1104Y9617D01*
X1103Y9615D01*
X1101Y9603D01*
X1101Y9602D01*
X1101Y9601D01*
X1101Y3599D01*
X1101Y3594D01*
X1101Y3590D01*
X1102Y3588D01*
X1102Y3586D01*
X1104Y3582D01*
X1105Y3578D01*
X1106Y3577D01*
X1107Y3575D01*
X1114Y3565D01*
X1115Y3564D01*
X3185Y1494D01*
X3187Y1493D01*
X3188Y1491D01*
X3192Y1489D01*
X3195Y1486D01*
X3197Y1486D01*
X3199Y1484D01*
X3203Y1483D01*
X3206Y1481D01*
X3208Y1481D01*
X3210Y1480D01*
X3215Y1480D01*
X3219Y1480D01*
X3221Y1480D01*
X3223Y1480D01*
X3227Y1480D01*
X3231Y1481D01*
X3233Y1482D01*
X3235Y1482D01*
X3239Y1484D01*
X3243Y1485D01*
X3244Y1486D01*
X3246Y1487D01*
X3249Y1490D01*
X3253Y1492D01*
X3254Y1494D01*
X3256Y1495D01*
X3258Y1499D01*
X3261Y1502D01*
X3262Y1504D01*
X3263Y1505D01*
X3265Y1509D01*
X3266Y1513D01*
X3267Y1515D01*
X3268Y1517D01*
X3268Y1519D01*
X3269Y1525D01*
X3269Y1532D01*
X3269Y1534D01*
X3267Y1550D01*
X4163Y1550D01*
X4167Y1551D01*
X4172Y1551D01*
X4174Y1552D01*
X4175Y1552D01*
X4180Y1554D01*
X4184Y1555D01*
X4185Y1556D01*
X4186Y1557D01*
X4190Y1559D01*
X4195Y1562D01*
X4195Y1563D01*
X4196Y1564D01*
X4200Y1568D01*
X4203Y1571D01*
X4204Y1573D01*
X4204Y1574D01*
X4206Y1578D01*
X4209Y1582D01*
X4209Y1583D01*
X4210Y1585D01*
X4212Y1597D01*
X4212Y1599D01*
X4212Y1600D01*
X4212Y1650D01*
X4213Y1650D01*
X4213Y1600D01*
X4214Y1595D01*
X4214Y1590D01*
X4215Y1589D01*
X4215Y1587D01*
X4217Y1583D01*
X4218Y1578D01*
X4219Y1577D01*
X4220Y1576D01*
X4222Y1572D01*
X4225Y1568D01*
X4226Y1567D01*
X4227Y1566D01*
X4231Y1563D01*
X4234Y1559D01*
X4235Y1559D01*
X4237Y1558D01*
X4241Y1556D01*
X4245Y1553D01*
X4246Y1553D01*
X4248Y1553D01*
X4260Y1550D01*
X4262Y1551D01*
X4263Y1550D01*
X5158Y1550D01*
X5151Y1490D01*
X5128Y1386D01*
X5092Y1285D01*
X5046Y1189D01*
X4989Y1099D01*
X4923Y1015D01*
X4847Y940D01*
X4764Y873D01*
X4762Y872D01*
X4758Y869D01*
X4754Y866D01*
X4753Y865D01*
X4752Y864D01*
X4749Y860D01*
X4746Y856D01*
X4745Y855D01*
X4745Y854D01*
X4743Y849D01*
X4741Y845D01*
X4741Y843D01*
X4740Y842D01*
X4739Y837D01*
X4739Y833D01*
X4739Y831D01*
X4739Y830D01*
X4739Y825D01*
X4740Y820D01*
X4740Y819D01*
X4740Y818D01*
X4742Y813D01*
X4744Y808D01*
X4744Y807D01*
X4745Y806D01*
X4748Y802D01*
X4750Y798D01*
X4751Y797D01*
X4752Y796D01*
X4756Y793D01*
X4760Y790D01*
X4761Y789D01*
X4762Y788D01*
X4766Y786D01*
X4771Y784D01*
X4772Y784D01*
X4773Y783D01*
X4785Y781D01*
X4787Y781D01*
X4788Y781D01*
X23481Y781D01*
X23486Y781D01*
X23490Y781D01*
X23492Y782D01*
X23494Y782D01*
X23498Y784D01*
X23502Y785D01*
X23503Y786D01*
X23505Y787D01*
X23515Y794D01*
X23516Y795D01*
X24325Y1605D01*
X24329Y1609D01*
X24332Y1613D01*
X24333Y1614D01*
X24335Y1619D01*
X24338Y1625D01*
X24338Y1626D01*
X24339Y1631D01*
X24340Y1637D01*
X24340Y1638D01*
X24339Y1644D01*
X24339Y1649D01*
X24339Y1650D01*
X24337Y1656D01*
X24335Y1661D01*
X24334Y1662D01*
X24331Y1667D01*
X24328Y1671D01*
X24328Y1672D01*
X24327Y1672D01*
X24323Y1676D01*
X24319Y1680D01*
X24318Y1680D01*
X24313Y1683D01*
X24308Y1685D01*
X24307Y1686D01*
X24295Y1688D01*
X24292Y1688D01*
X24291Y1689D01*
X24238Y1689D01*
X24015Y1912D01*
X24015Y2227D01*
X24238Y2450D01*
X24553Y2450D01*
X24776Y2227D01*
X24776Y2174D01*
X24777Y2169D01*
X24777Y2163D01*
X24778Y2162D01*
X24780Y2157D01*
X24782Y2151D01*
X24782Y2150D01*
X24786Y2146D01*
X24789Y2141D01*
X24790Y2140D01*
X24794Y2137D01*
X24798Y2133D01*
X24799Y2133D01*
X24799Y2132D01*
X24804Y2130D01*
X24809Y2128D01*
X24810Y2127D01*
X24811Y2127D01*
X24816Y2126D01*
X24822Y2125D01*
X24823Y2125D01*
X24828Y2125D01*
X24834Y2126D01*
X24835Y2126D01*
X24841Y2128D01*
X24846Y2129D01*
X24846Y2130D01*
X24847Y2130D01*
X24857Y2137D01*
X24859Y2138D01*
X24860Y2139D01*
X25868Y3147D01*
X25871Y3151D01*
X25874Y3154D01*
X25875Y3156D01*
X25875Y3157D01*
X25877Y3161D01*
X25880Y3166D01*
X25880Y3167D01*
X25880Y3168D01*
X25881Y3173D01*
X25882Y3178D01*
X25882Y3179D01*
X25882Y3180D01*
X25882Y3185D01*
X25881Y3190D01*
X25881Y3191D01*
X25881Y3193D01*
X25879Y3197D01*
X25878Y3202D01*
X25877Y3203D01*
X25877Y3204D01*
X25870Y3215D01*
X25868Y3216D01*
X25801Y3283D01*
X25746Y3417D01*
X25743Y3422D01*
X25740Y3427D01*
X25739Y3428D01*
X25735Y3432D01*
X25732Y3436D01*
X25731Y3436D01*
X25731Y3437D01*
X25726Y3440D01*
X25721Y3443D01*
X25720Y3443D01*
X25715Y3445D01*
X25709Y3447D01*
X25708Y3447D01*
X25703Y3447D01*
X25697Y3447D01*
X25696Y3447D01*
X25690Y3446D01*
X25685Y3445D01*
X25684Y3445D01*
X25679Y3442D01*
X25674Y3440D01*
X25673Y3439D01*
X25672Y3439D01*
X25668Y3435D01*
X25664Y3432D01*
X25664Y3431D01*
X25663Y3431D01*
X25656Y3421D01*
X25655Y3418D01*
X25654Y3417D01*
X25599Y3283D01*
X25467Y3151D01*
X25294Y3079D01*
X25106Y3079D01*
X24933Y3151D01*
X24801Y3283D01*
X24744Y3421D01*
X24743Y3422D01*
X24743Y3423D01*
X24740Y3427D01*
X24738Y3431D01*
X24737Y3432D01*
X24736Y3433D01*
X24733Y3437D01*
X24729Y3440D01*
X24728Y3441D01*
X24727Y3442D01*
X24723Y3444D01*
X24719Y3447D01*
X24717Y3447D01*
X24716Y3448D01*
X24711Y3449D01*
X24707Y3450D01*
X24705Y3450D01*
X24704Y3451D01*
X24699Y3451D01*
X24694Y3451D01*
X24693Y3451D01*
X24692Y3450D01*
X24687Y3449D01*
X24682Y3448D01*
X24681Y3448D01*
X24680Y3447D01*
X24675Y3445D01*
X24671Y3443D01*
X24670Y3442D01*
X24669Y3441D01*
X24665Y3438D01*
X24662Y3434D01*
X24661Y3433D01*
X24660Y3432D01*
X24659Y3430D01*
X24655Y3424D01*
X24653Y3419D01*
X24652Y3417D01*
X24636Y3369D01*
X24603Y3303D01*
X24559Y3243D01*
X24507Y3191D01*
X24447Y3147D01*
X24381Y3114D01*
X24310Y3091D01*
X24299Y3089D01*
X24299Y3500D01*
X24299Y3505D01*
X24298Y3510D01*
X24298Y3511D01*
X24298Y3512D01*
X24296Y3517D01*
X24294Y3522D01*
X24294Y3523D01*
X24293Y3524D01*
X24290Y3528D01*
X24287Y3532D01*
X24286Y3533D01*
X24286Y3534D01*
X24282Y3537D01*
X24278Y3540D01*
X24277Y3541D01*
X24276Y3542D01*
X24272Y3544D01*
X24267Y3546D01*
X24266Y3546D01*
X24265Y3547D01*
X24253Y3549D01*
X24251Y3549D01*
X24250Y3549D01*
X24150Y3549D01*
X24145Y3549D01*
X24140Y3548D01*
X24139Y3548D01*
X24138Y3548D01*
X24133Y3546D01*
X24128Y3544D01*
X24127Y3544D01*
X24126Y3543D01*
X24122Y3540D01*
X24118Y3537D01*
X24117Y3536D01*
X24116Y3536D01*
X24113Y3532D01*
X24110Y3528D01*
X24109Y3527D01*
X24108Y3526D01*
X24106Y3522D01*
X24104Y3517D01*
X24104Y3516D01*
X24103Y3515D01*
X24101Y3503D01*
X24101Y3501D01*
X24101Y3500D01*
X24101Y3089D01*
X24090Y3091D01*
X24019Y3114D01*
X23953Y3147D01*
X23893Y3191D01*
X23841Y3243D01*
X23797Y3303D01*
X23764Y3369D01*
X23748Y3417D01*
X23748Y3418D01*
X23747Y3419D01*
X23745Y3424D01*
X23743Y3428D01*
X23742Y3429D01*
X23742Y3430D01*
X23738Y3434D01*
X23735Y3438D01*
X23734Y3438D01*
X23733Y3439D01*
X23729Y3442D01*
X23725Y3445D01*
X23724Y3445D01*
X23723Y3446D01*
X23718Y3448D01*
X23713Y3450D01*
X23712Y3450D01*
X23711Y3450D01*
X23706Y3450D01*
X23701Y3451D01*
X23700Y3451D01*
X23698Y3451D01*
X23694Y3450D01*
X23689Y3449D01*
X23687Y3449D01*
X23686Y3449D01*
X23682Y3446D01*
X23677Y3445D01*
X23676Y3444D01*
X23675Y3443D01*
X23671Y3440D01*
X23667Y3437D01*
X23666Y3436D01*
X23665Y3435D01*
X23664Y3433D01*
X23659Y3427D01*
X23657Y3423D01*
X23656Y3421D01*
X23599Y3283D01*
X23467Y3151D01*
X23294Y3079D01*
X23106Y3079D01*
X22933Y3151D01*
X22801Y3283D01*
X22729Y3456D01*
X22729Y3644D01*
X22801Y3817D01*
X22933Y3949D01*
X23106Y4021D01*
X23294Y4021D01*
X23467Y3949D01*
X23599Y3817D01*
X23656Y3679D01*
X23657Y3678D01*
X23657Y3677D01*
X23660Y3673D01*
X23662Y3669D01*
X23663Y3668D01*
X23664Y3667D01*
X23667Y3663D01*
X23671Y3660D01*
X23672Y3659D01*
X23673Y3658D01*
X23677Y3656D01*
X23681Y3653D01*
X23683Y3653D01*
X23684Y3652D01*
X23689Y3651D01*
X23693Y3650D01*
X23695Y3650D01*
X23696Y3649D01*
X23701Y3649D01*
X23706Y3649D01*
X23707Y3649D01*
X23708Y3650D01*
X23713Y3651D01*
X23718Y3652D01*
X23719Y3652D01*
X23720Y3653D01*
X23725Y3655D01*
X23729Y3657D01*
X23730Y3658D01*
X23731Y3659D01*
X23735Y3662D01*
X23738Y3666D01*
X23739Y3667D01*
X23740Y3668D01*
X23741Y3670D01*
X23745Y3676D01*
X23747Y3681D01*
X23748Y3683D01*
X23764Y3731D01*
X23797Y3797D01*
X23841Y3857D01*
X23893Y3909D01*
X23953Y3953D01*
X24019Y3986D01*
X24090Y4009D01*
X24101Y4011D01*
X24101Y3600D01*
X24101Y3595D01*
X24102Y3590D01*
X24102Y3589D01*
X24102Y3588D01*
X24104Y3583D01*
X24106Y3578D01*
X24106Y3577D01*
X24107Y3576D01*
X24110Y3572D01*
X24113Y3568D01*
X24114Y3567D01*
X24114Y3566D01*
X24118Y3563D01*
X24122Y3560D01*
X24123Y3559D01*
X24124Y3558D01*
X24128Y3556D01*
X24133Y3554D01*
X24134Y3554D01*
X24135Y3553D01*
X24147Y3551D01*
X24149Y3551D01*
X24150Y3551D01*
X24250Y3551D01*
X24255Y3551D01*
X24260Y3552D01*
X24261Y3552D01*
X24262Y3552D01*
X24267Y3554D01*
X24272Y3556D01*
X24273Y3556D01*
X24274Y3557D01*
X24278Y3560D01*
X24282Y3563D01*
X24283Y3564D01*
X24284Y3564D01*
X24287Y3568D01*
X24290Y3572D01*
X24291Y3573D01*
X24292Y3574D01*
X24294Y3578D01*
X24296Y3583D01*
X24296Y3584D01*
X24297Y3585D01*
X24299Y3597D01*
X24299Y3599D01*
X24299Y3600D01*
X24299Y4011D01*
X24310Y4009D01*
X24381Y3986D01*
X24447Y3953D01*
X24507Y3909D01*
X24559Y3857D01*
X24603Y3797D01*
X24636Y3731D01*
X24652Y3683D01*
X24652Y3682D01*
X24653Y3681D01*
X24655Y3676D01*
X24657Y3672D01*
X24658Y3671D01*
X24658Y3670D01*
X24662Y3666D01*
X24665Y3662D01*
X24666Y3662D01*
X24667Y3661D01*
X24671Y3658D01*
X24675Y3655D01*
X24676Y3655D01*
X24677Y3654D01*
X24682Y3652D01*
X24687Y3650D01*
X24688Y3650D01*
X24689Y3650D01*
X24694Y3650D01*
X24699Y3649D01*
X24700Y3649D01*
X24702Y3649D01*
X24706Y3650D01*
X24711Y3651D01*
X24713Y3651D01*
X24714Y3651D01*
X24718Y3654D01*
X24723Y3655D01*
X24724Y3656D01*
X24725Y3657D01*
X24729Y3660D01*
X24733Y3663D01*
X24734Y3664D01*
X24735Y3665D01*
X24736Y3667D01*
X24741Y3673D01*
X24743Y3677D01*
X24744Y3679D01*
X24801Y3817D01*
X24933Y3949D01*
X25106Y4021D01*
X25294Y4021D01*
X25467Y3949D01*
X25599Y3817D01*
X25654Y3683D01*
X25657Y3678D01*
X25660Y3673D01*
X25661Y3672D01*
X25665Y3668D01*
X25668Y3664D01*
X25669Y3664D01*
X25669Y3663D01*
X25674Y3660D01*
X25679Y3657D01*
X25680Y3657D01*
X25685Y3655D01*
X25691Y3653D01*
X25692Y3653D01*
X25697Y3653D01*
X25703Y3653D01*
X25704Y3653D01*
X25710Y3654D01*
X25715Y3655D01*
X25716Y3655D01*
X25721Y3658D01*
X25726Y3660D01*
X25727Y3661D01*
X25728Y3661D01*
X25732Y3665D01*
X25736Y3668D01*
X25736Y3669D01*
X25737Y3669D01*
X25744Y3679D01*
X25745Y3682D01*
X25746Y3683D01*
X25801Y3817D01*
X25933Y3949D01*
X26106Y4021D01*
X26294Y4021D01*
X26467Y3949D01*
X26599Y3817D01*
X26654Y3683D01*
X26657Y3678D01*
X26660Y3673D01*
X26661Y3672D01*
X26665Y3668D01*
X26668Y3664D01*
X26669Y3664D01*
X26669Y3663D01*
X26674Y3660D01*
X26679Y3657D01*
X26680Y3657D01*
X26685Y3655D01*
X26691Y3653D01*
X26692Y3653D01*
X26697Y3653D01*
X26703Y3653D01*
X26704Y3653D01*
X26710Y3654D01*
X26715Y3655D01*
X26716Y3655D01*
X26721Y3658D01*
X26726Y3660D01*
X26727Y3661D01*
X26728Y3661D01*
X26732Y3665D01*
X26736Y3668D01*
X26736Y3669D01*
X26737Y3669D01*
X26744Y3679D01*
X26745Y3682D01*
X26746Y3683D01*
X26801Y3817D01*
X26933Y3949D01*
X27106Y4021D01*
X27294Y4021D01*
X27467Y3949D01*
X27599Y3817D01*
X27654Y3683D01*
X27657Y3678D01*
X27660Y3673D01*
X27661Y3672D01*
X27665Y3668D01*
X27668Y3664D01*
X27669Y3664D01*
X27669Y3663D01*
X27674Y3660D01*
X27679Y3657D01*
X27680Y3657D01*
X27685Y3655D01*
X27691Y3653D01*
X27692Y3653D01*
X27697Y3653D01*
X27703Y3653D01*
X27704Y3653D01*
X27710Y3654D01*
X27715Y3655D01*
X27716Y3655D01*
X27721Y3658D01*
X27726Y3660D01*
X27727Y3661D01*
X27728Y3661D01*
X27732Y3665D01*
X27736Y3668D01*
X27736Y3669D01*
X27737Y3669D01*
X27744Y3679D01*
X27745Y3682D01*
X27746Y3683D01*
X27801Y3817D01*
X27933Y3949D01*
X28106Y4021D01*
X28294Y4021D01*
X28467Y3949D01*
X28599Y3817D01*
X28654Y3683D01*
X28657Y3678D01*
X28660Y3673D01*
X28661Y3672D01*
X28665Y3668D01*
X28668Y3664D01*
X28669Y3664D01*
X28669Y3663D01*
X28674Y3660D01*
X28679Y3657D01*
X28680Y3657D01*
X28685Y3655D01*
X28691Y3653D01*
X28692Y3653D01*
X28697Y3653D01*
X28703Y3653D01*
X28704Y3653D01*
X28710Y3654D01*
X28715Y3655D01*
X28716Y3655D01*
X28721Y3658D01*
X28726Y3660D01*
X28727Y3661D01*
X28728Y3661D01*
X28732Y3665D01*
X28736Y3668D01*
X28736Y3669D01*
X28737Y3669D01*
X28744Y3679D01*
X28745Y3682D01*
X28746Y3683D01*
X28801Y3817D01*
X28933Y3949D01*
X29106Y4021D01*
X29294Y4021D01*
X29467Y3949D01*
X29599Y3817D01*
X29654Y3683D01*
X29657Y3678D01*
X29660Y3673D01*
X29661Y3672D01*
X29665Y3668D01*
X29668Y3664D01*
X29669Y3664D01*
X29669Y3663D01*
X29674Y3660D01*
X29679Y3657D01*
X29680Y3657D01*
X29685Y3655D01*
X29691Y3653D01*
X29692Y3653D01*
X29697Y3653D01*
X29703Y3653D01*
X29704Y3653D01*
X29710Y3654D01*
X29715Y3655D01*
X29716Y3655D01*
X29721Y3658D01*
X29726Y3660D01*
X29727Y3661D01*
X29728Y3661D01*
X29732Y3665D01*
X29736Y3668D01*
X29736Y3669D01*
X29737Y3669D01*
X29744Y3679D01*
X29745Y3682D01*
X29746Y3683D01*
X29801Y3817D01*
X29933Y3949D01*
X30106Y4021D01*
X30294Y4021D01*
X30467Y3949D01*
X30495Y3921D01*
X30500Y3917D01*
X30504Y3914D01*
X30504Y3913D01*
X30505Y3913D01*
X30510Y3911D01*
X30515Y3908D01*
X30516Y3908D01*
X30522Y3907D01*
X30527Y3906D01*
X30528Y3906D01*
X30529Y3906D01*
X30534Y3907D01*
X30540Y3907D01*
X30541Y3907D01*
X30546Y3909D01*
X30552Y3911D01*
X30553Y3912D01*
X30557Y3915D01*
X30562Y3918D01*
X30563Y3919D01*
X30567Y3923D01*
X30570Y3927D01*
X30571Y3928D01*
X30574Y3933D01*
X30576Y3938D01*
X30576Y3939D01*
X30577Y3939D01*
X30579Y3952D01*
X30579Y3954D01*
X30579Y3955D01*
X30579Y10161D01*
X30579Y10166D01*
X30579Y10170D01*
X30578Y10172D01*
X30578Y10174D01*
X30576Y10178D01*
X30575Y10182D01*
X30574Y10183D01*
X30573Y10185D01*
X30566Y10195D01*
X30565Y10196D01*
X18372Y22389D01*
X18367Y22393D01*
X18363Y22396D01*
X18362Y22396D01*
X18362Y22397D01*
X18357Y22399D01*
X18352Y22401D01*
X18351Y22402D01*
X18350Y22402D01*
X18345Y22403D01*
X18339Y22404D01*
X18338Y22404D01*
X18333Y22403D01*
X18327Y22403D01*
X18326Y22403D01*
X18326Y22402D01*
X18321Y22401D01*
X18315Y22399D01*
X18315Y22398D01*
X18314Y22398D01*
X18310Y22395D01*
X18305Y22392D01*
X18304Y22391D01*
X18300Y22387D01*
X18297Y22383D01*
X18296Y22382D01*
X18294Y22378D01*
X17968Y22378D01*
X17968Y22704D01*
X17973Y22707D01*
X17977Y22710D01*
X17978Y22711D01*
X17982Y22715D01*
X17986Y22720D01*
X17986Y22721D01*
X17989Y22726D01*
X17991Y22731D01*
X17991Y22732D01*
X17992Y22738D01*
X17994Y22743D01*
X17994Y22744D01*
X17993Y22750D01*
X17993Y22755D01*
X17993Y22756D01*
X17993Y22757D01*
X17991Y22762D01*
X17989Y22767D01*
X17989Y22768D01*
X17982Y22779D01*
X17980Y22780D01*
X17979Y22782D01*
X17236Y23525D01*
X17233Y23527D01*
X17230Y23530D01*
X17228Y23531D01*
X17226Y23532D01*
X17222Y23534D01*
X17219Y23536D01*
X17217Y23536D01*
X17215Y23537D01*
X17203Y23539D01*
X17202Y23539D01*
X17201Y23539D01*
X14170Y23539D01*
X14168Y23539D01*
X14166Y23539D01*
X14162Y23538D01*
X14158Y23538D01*
X14156Y23537D01*
X14154Y23536D01*
X14150Y23535D01*
X14146Y23533D01*
X14145Y23532D01*
X14143Y23531D01*
X14140Y23528D01*
X14136Y23526D01*
X14135Y23524D01*
X14133Y23523D01*
X14131Y23519D01*
X14128Y23516D01*
X14128Y23514D01*
X14126Y23512D01*
X14125Y23509D01*
X14123Y23505D01*
X14123Y23503D01*
X14122Y23501D01*
X14122Y23497D01*
X14121Y23493D01*
X14121Y23490D01*
X14121Y23488D01*
X14122Y23486D01*
X14122Y23480D01*
X14124Y23474D01*
X14125Y23471D01*
X14191Y23312D01*
X14191Y23148D01*
X14133Y23009D01*
X14132Y23007D01*
X14132Y23005D01*
X14131Y23001D01*
X14130Y22997D01*
X14130Y22995D01*
X14129Y22993D01*
X14130Y22989D01*
X14130Y22984D01*
X14130Y22982D01*
X14130Y22980D01*
X14132Y22976D01*
X14133Y22972D01*
X14134Y22970D01*
X14134Y22968D01*
X14136Y22965D01*
X14138Y22961D01*
X14140Y22960D01*
X14141Y22958D01*
X14144Y22955D01*
X14147Y22952D01*
X14149Y22951D01*
X14150Y22950D01*
X14154Y22948D01*
X14157Y22946D01*
X14159Y22945D01*
X14161Y22944D01*
X14164Y22943D01*
X14169Y22942D01*
X14176Y22941D01*
X14178Y22941D01*
X14801Y22941D01*
X14806Y22941D01*
X14810Y22941D01*
X14812Y22942D01*
X14814Y22942D01*
X14818Y22944D01*
X14822Y22945D01*
X14823Y22946D01*
X14825Y22947D01*
X14835Y22954D01*
X14836Y22955D01*
X14885Y23004D01*
X14982Y23101D01*
X16898Y23101D01*
X17379Y22620D01*
X17383Y22617D01*
X17387Y22614D01*
X17388Y22613D01*
X17389Y22613D01*
X17393Y22611D01*
X17398Y22608D01*
X17399Y22608D01*
X17400Y22608D01*
X17405Y22607D01*
X17410Y22606D01*
X17411Y22606D01*
X17412Y22606D01*
X17417Y22606D01*
X17423Y22607D01*
X17424Y22607D01*
X17425Y22607D01*
X17429Y22609D01*
X17434Y22610D01*
X17435Y22611D01*
X17436Y22611D01*
X17441Y22614D01*
X17445Y22617D01*
X17445Y22618D01*
X17447Y22619D01*
X17455Y22628D01*
X17455Y22630D01*
X17456Y22630D01*
X17473Y22659D01*
X17491Y22677D01*
X17514Y22691D01*
X17540Y22698D01*
X17772Y22698D01*
X17772Y22328D01*
X17773Y22324D01*
X17773Y22319D01*
X17774Y22317D01*
X17774Y22316D01*
X17776Y22312D01*
X17777Y22307D01*
X17778Y22306D01*
X17778Y22305D01*
X17781Y22301D01*
X17784Y22296D01*
X17785Y22296D01*
X17786Y22295D01*
X17790Y22291D01*
X17793Y22288D01*
X17794Y22287D01*
X17795Y22287D01*
X17800Y22285D01*
X17804Y22282D01*
X17805Y22282D01*
X17807Y22281D01*
X17815Y22280D01*
X17812Y22280D01*
X17811Y22279D01*
X17809Y22279D01*
X17805Y22277D01*
X17800Y22276D01*
X17799Y22275D01*
X17798Y22275D01*
X17794Y22272D01*
X17790Y22269D01*
X17789Y22268D01*
X17788Y22267D01*
X17785Y22263D01*
X17781Y22260D01*
X17781Y22259D01*
X17780Y22258D01*
X17778Y22253D01*
X17775Y22249D01*
X17775Y22248D01*
X17775Y22246D01*
X17772Y22234D01*
X17773Y22233D01*
X17772Y22232D01*
X17772Y21862D01*
X17590Y21862D01*
X17585Y21862D01*
X17580Y21861D01*
X17579Y21861D01*
X17578Y21861D01*
X17573Y21859D01*
X17568Y21857D01*
X17567Y21857D01*
X17566Y21856D01*
X17562Y21853D01*
X17558Y21851D01*
X17557Y21850D01*
X17556Y21849D01*
X17553Y21845D01*
X17550Y21841D01*
X17549Y21840D01*
X17548Y21839D01*
X17546Y21835D01*
X17544Y21830D01*
X17544Y21829D01*
X17543Y21828D01*
X17541Y21816D01*
X17541Y21814D01*
X17541Y21813D01*
X17541Y21799D01*
X17541Y21794D01*
X17541Y21790D01*
X17542Y21788D01*
X17542Y21786D01*
X17544Y21782D01*
X17545Y21778D01*
X17546Y21777D01*
X17547Y21775D01*
X17554Y21765D01*
X17555Y21764D01*
X17647Y21672D01*
X17648Y21671D01*
X17649Y21670D01*
X17653Y21668D01*
X17656Y21665D01*
X17658Y21664D01*
X17659Y21663D01*
X17664Y21662D01*
X17668Y21660D01*
X17669Y21660D01*
X17671Y21659D01*
X17676Y21659D01*
X17680Y21658D01*
X17682Y21658D01*
X17683Y21658D01*
X17686Y21659D01*
X17693Y21659D01*
X17698Y21661D01*
X17700Y21662D01*
X17787Y21698D01*
X17953Y21698D01*
X18107Y21634D01*
X18224Y21517D01*
X18288Y21363D01*
X18288Y21197D01*
X18224Y21043D01*
X18107Y20926D01*
X17953Y20862D01*
X17787Y20862D01*
X17633Y20926D01*
X17516Y21043D01*
X17452Y21197D01*
X17452Y21363D01*
X17471Y21407D01*
X17471Y21409D01*
X17472Y21410D01*
X17473Y21415D01*
X17474Y21419D01*
X17474Y21421D01*
X17474Y21422D01*
X17474Y21427D01*
X17474Y21432D01*
X17474Y21433D01*
X17474Y21435D01*
X17472Y21439D01*
X17471Y21444D01*
X17470Y21445D01*
X17470Y21447D01*
X17469Y21449D01*
X17465Y21455D01*
X17461Y21459D01*
X17460Y21461D01*
X17259Y21662D01*
X17259Y21960D01*
X17259Y21965D01*
X17258Y21971D01*
X17258Y21972D01*
X17256Y21977D01*
X17254Y21983D01*
X17253Y21983D01*
X17253Y21984D01*
X17250Y21988D01*
X17247Y21993D01*
X17246Y21993D01*
X17246Y21994D01*
X17241Y21997D01*
X17237Y22001D01*
X17236Y22002D01*
X17231Y22004D01*
X17226Y22006D01*
X17225Y22006D01*
X17225Y22007D01*
X17219Y22008D01*
X17214Y22009D01*
X17213Y22009D01*
X17207Y22009D01*
X17201Y22008D01*
X17200Y22008D01*
X17195Y22006D01*
X17190Y22005D01*
X17189Y22004D01*
X17188Y22004D01*
X17178Y21997D01*
X17176Y21995D01*
X17175Y21995D01*
X17107Y21926D01*
X16953Y21862D01*
X16787Y21862D01*
X16700Y21898D01*
X16699Y21899D01*
X16698Y21899D01*
X16693Y21900D01*
X16688Y21902D01*
X16687Y21902D01*
X16685Y21902D01*
X16681Y21902D01*
X16676Y21902D01*
X16674Y21901D01*
X16673Y21901D01*
X16668Y21900D01*
X16664Y21899D01*
X16662Y21898D01*
X16661Y21898D01*
X16659Y21896D01*
X16653Y21893D01*
X16649Y21889D01*
X16647Y21888D01*
X16578Y21819D01*
X15665Y21819D01*
X15660Y21819D01*
X15654Y21818D01*
X15653Y21818D01*
X15648Y21816D01*
X15643Y21814D01*
X15642Y21813D01*
X15637Y21810D01*
X15632Y21807D01*
X15632Y21806D01*
X15631Y21806D01*
X15628Y21801D01*
X15624Y21797D01*
X15624Y21796D01*
X15621Y21791D01*
X15619Y21786D01*
X15619Y21785D01*
X15618Y21785D01*
X15617Y21779D01*
X15616Y21774D01*
X15616Y21773D01*
X15617Y21767D01*
X15617Y21761D01*
X15617Y21760D01*
X15619Y21755D01*
X15621Y21750D01*
X15621Y21749D01*
X15621Y21748D01*
X15628Y21738D01*
X15630Y21736D01*
X15631Y21735D01*
X15649Y21717D01*
X15721Y21544D01*
X15721Y21356D01*
X15649Y21183D01*
X15517Y21051D01*
X15383Y20995D01*
X15378Y20993D01*
X15373Y20990D01*
X15372Y20989D01*
X15368Y20985D01*
X15364Y20982D01*
X15364Y20981D01*
X15363Y20981D01*
X15360Y20976D01*
X15357Y20971D01*
X15357Y20970D01*
X15355Y20965D01*
X15353Y20959D01*
X15353Y20958D01*
X15353Y20953D01*
X15353Y20947D01*
X15353Y20946D01*
X15354Y20940D01*
X15355Y20935D01*
X15355Y20934D01*
X15358Y20929D01*
X15360Y20924D01*
X15361Y20923D01*
X15361Y20922D01*
X15365Y20918D01*
X15368Y20914D01*
X15369Y20914D01*
X15369Y20913D01*
X15379Y20906D01*
X15382Y20905D01*
X15383Y20904D01*
X15517Y20849D01*
X15649Y20717D01*
X15721Y20544D01*
X15721Y20356D01*
X15649Y20183D01*
X15517Y20051D01*
X15383Y19995D01*
X15378Y19993D01*
X15373Y19990D01*
X15372Y19989D01*
X15368Y19985D01*
X15364Y19982D01*
X15364Y19981D01*
X15363Y19981D01*
X15360Y19976D01*
X15357Y19971D01*
X15357Y19970D01*
X15355Y19965D01*
X15353Y19959D01*
X15353Y19958D01*
X15353Y19953D01*
X15353Y19947D01*
X15353Y19946D01*
X15354Y19940D01*
X15355Y19935D01*
X15355Y19934D01*
X15358Y19929D01*
X15360Y19924D01*
X15361Y19923D01*
X15361Y19922D01*
X15365Y19918D01*
X15368Y19914D01*
X15369Y19914D01*
X15369Y19913D01*
X15379Y19906D01*
X15382Y19905D01*
X15383Y19904D01*
X15517Y19849D01*
X15649Y19717D01*
X15721Y19544D01*
X15721Y19356D01*
X15649Y19182D01*
X15647Y19180D01*
X15644Y19176D01*
X15643Y19176D01*
X15643Y19175D01*
X15641Y19170D01*
X15638Y19165D01*
X15638Y19164D01*
X15637Y19158D01*
X15636Y19153D01*
X15636Y19152D01*
X15636Y19151D01*
X15637Y19146D01*
X15637Y19140D01*
X15637Y19139D01*
X15639Y19134D01*
X15641Y19128D01*
X15642Y19127D01*
X15645Y19123D01*
X15648Y19118D01*
X15649Y19117D01*
X15653Y19113D01*
X15657Y19110D01*
X15658Y19109D01*
X15663Y19106D01*
X15668Y19104D01*
X15669Y19104D01*
X15669Y19103D01*
X15682Y19101D01*
X15684Y19101D01*
X15685Y19101D01*
X16419Y19101D01*
X16421Y19101D01*
X16423Y19101D01*
X16427Y19102D01*
X16431Y19102D01*
X16433Y19103D01*
X16435Y19104D01*
X16439Y19105D01*
X16442Y19107D01*
X16444Y19108D01*
X16446Y19109D01*
X16449Y19112D01*
X16452Y19114D01*
X16454Y19116D01*
X16455Y19117D01*
X16458Y19121D01*
X16460Y19124D01*
X16461Y19126D01*
X16462Y19128D01*
X16464Y19131D01*
X16466Y19135D01*
X16466Y19137D01*
X16467Y19139D01*
X16467Y19143D01*
X16468Y19147D01*
X16468Y19150D01*
X16468Y19152D01*
X16467Y19154D01*
X16467Y19160D01*
X16465Y19166D01*
X16464Y19169D01*
X16452Y19197D01*
X16452Y19363D01*
X16516Y19517D01*
X16581Y19581D01*
X16584Y19585D01*
X16587Y19589D01*
X16587Y19590D01*
X16588Y19591D01*
X16590Y19596D01*
X16592Y19600D01*
X16593Y19601D01*
X16593Y19602D01*
X16594Y19607D01*
X16595Y19612D01*
X16595Y19613D01*
X16595Y19615D01*
X16595Y19620D01*
X16594Y19625D01*
X16594Y19626D01*
X16594Y19627D01*
X16592Y19632D01*
X16591Y19636D01*
X16590Y19637D01*
X16589Y19639D01*
X16582Y19649D01*
X16581Y19650D01*
X16581Y19651D01*
X16302Y19930D01*
X16184Y20047D01*
X16184Y20873D01*
X16446Y21134D01*
X16446Y21135D01*
X16448Y21136D01*
X16450Y21140D01*
X16453Y21144D01*
X16454Y21145D01*
X16455Y21147D01*
X16456Y21151D01*
X16458Y21155D01*
X16458Y21157D01*
X16459Y21158D01*
X16459Y21163D01*
X16460Y21168D01*
X16460Y21169D01*
X16460Y21171D01*
X16459Y21173D01*
X16459Y21180D01*
X16457Y21185D01*
X16456Y21188D01*
X16452Y21197D01*
X16452Y21363D01*
X16516Y21517D01*
X16633Y21634D01*
X16787Y21698D01*
X16953Y21698D01*
X17107Y21634D01*
X17224Y21517D01*
X17288Y21363D01*
X17288Y21197D01*
X17224Y21043D01*
X17107Y20926D01*
X16953Y20862D01*
X16787Y20862D01*
X16735Y20884D01*
X16734Y20884D01*
X16733Y20885D01*
X16728Y20886D01*
X16723Y20887D01*
X16722Y20887D01*
X16720Y20887D01*
X16716Y20887D01*
X16711Y20887D01*
X16709Y20887D01*
X16708Y20887D01*
X16703Y20885D01*
X16699Y20884D01*
X16697Y20884D01*
X16696Y20883D01*
X16694Y20882D01*
X16688Y20878D01*
X16684Y20875D01*
X16682Y20873D01*
X16550Y20742D01*
X16548Y20738D01*
X16545Y20735D01*
X16544Y20733D01*
X16543Y20732D01*
X16541Y20728D01*
X16539Y20724D01*
X16539Y20723D01*
X16538Y20720D01*
X16536Y20708D01*
X16536Y20707D01*
X16536Y20655D01*
X16536Y20650D01*
X16537Y20644D01*
X16537Y20643D01*
X16539Y20638D01*
X16541Y20632D01*
X16542Y20632D01*
X16542Y20631D01*
X16545Y20627D01*
X16548Y20622D01*
X16549Y20622D01*
X16549Y20621D01*
X16554Y20618D01*
X16558Y20614D01*
X16559Y20613D01*
X16564Y20611D01*
X16569Y20609D01*
X16570Y20609D01*
X16570Y20608D01*
X16576Y20607D01*
X16581Y20606D01*
X16582Y20606D01*
X16588Y20606D01*
X16594Y20607D01*
X16595Y20607D01*
X16600Y20609D01*
X16605Y20610D01*
X16606Y20611D01*
X16607Y20611D01*
X16617Y20618D01*
X16619Y20620D01*
X16620Y20620D01*
X16633Y20634D01*
X16787Y20698D01*
X16953Y20698D01*
X17107Y20634D01*
X17224Y20517D01*
X17288Y20363D01*
X17288Y20197D01*
X17263Y20139D01*
X17263Y20137D01*
X17262Y20136D01*
X17261Y20131D01*
X17260Y20127D01*
X17260Y20125D01*
X17260Y20124D01*
X17260Y20119D01*
X17260Y20114D01*
X17260Y20113D01*
X17260Y20111D01*
X17262Y20107D01*
X17263Y20102D01*
X17264Y20101D01*
X17264Y20099D01*
X17266Y20097D01*
X17269Y20091D01*
X17273Y20087D01*
X17274Y20085D01*
X17461Y19898D01*
X17461Y19747D01*
X17461Y19742D01*
X17462Y19737D01*
X17462Y19736D01*
X17462Y19735D01*
X17464Y19730D01*
X17466Y19725D01*
X17466Y19724D01*
X17467Y19723D01*
X17470Y19719D01*
X17473Y19715D01*
X17474Y19714D01*
X17474Y19713D01*
X17478Y19710D01*
X17482Y19707D01*
X17483Y19706D01*
X17484Y19705D01*
X17488Y19703D01*
X17493Y19701D01*
X17494Y19701D01*
X17495Y19700D01*
X17507Y19698D01*
X17509Y19698D01*
X17510Y19698D01*
X18229Y19698D01*
X18288Y19639D01*
X18288Y18921D01*
X18229Y18862D01*
X17642Y18862D01*
X17638Y18862D01*
X17633Y18862D01*
X17631Y18861D01*
X17630Y18861D01*
X17626Y18859D01*
X17621Y18858D01*
X17620Y18857D01*
X17618Y18856D01*
X17608Y18849D01*
X17607Y18848D01*
X16638Y17879D01*
X16636Y17876D01*
X16634Y17874D01*
X16632Y17871D01*
X16630Y17869D01*
X16629Y17866D01*
X16627Y17863D01*
X16626Y17860D01*
X16625Y17857D01*
X16625Y17854D01*
X16624Y17851D01*
X16624Y17848D01*
X16623Y17845D01*
X16624Y17842D01*
X16624Y17839D01*
X16624Y17836D01*
X16625Y17833D01*
X16626Y17830D01*
X16626Y17827D01*
X16628Y17824D01*
X16629Y17821D01*
X16631Y17819D01*
X16632Y17816D01*
X16634Y17813D01*
X16636Y17811D01*
X16638Y17809D01*
X16641Y17806D01*
X16643Y17805D01*
X16645Y17803D01*
X16648Y17801D01*
X16651Y17800D01*
X16654Y17799D01*
X16657Y17797D01*
X16660Y17797D01*
X16663Y17796D01*
X16665Y17796D01*
X16669Y17795D01*
X16679Y17795D01*
X16680Y17795D01*
X16712Y17800D01*
X16712Y17448D01*
X16360Y17448D01*
X16365Y17480D01*
X16385Y17543D01*
X16416Y17603D01*
X16455Y17657D01*
X16503Y17705D01*
X16538Y17730D01*
X16540Y17732D01*
X16543Y17734D01*
X16544Y17737D01*
X16547Y17739D01*
X16548Y17741D01*
X16550Y17744D01*
X16552Y17747D01*
X16553Y17749D01*
X16554Y17752D01*
X16556Y17755D01*
X16556Y17758D01*
X16557Y17761D01*
X16557Y17764D01*
X16558Y17767D01*
X16558Y17770D01*
X16558Y17773D01*
X16557Y17777D01*
X16557Y17780D01*
X16556Y17783D01*
X16555Y17786D01*
X16554Y17789D01*
X16553Y17792D01*
X16551Y17794D01*
X16550Y17797D01*
X16548Y17799D01*
X16546Y17802D01*
X16544Y17804D01*
X16542Y17806D01*
X16539Y17808D01*
X16537Y17810D01*
X16534Y17812D01*
X16532Y17813D01*
X16529Y17815D01*
X16526Y17816D01*
X16524Y17817D01*
X16520Y17818D01*
X16510Y17819D01*
X16509Y17819D01*
X15665Y17819D01*
X15660Y17819D01*
X15654Y17818D01*
X15653Y17818D01*
X15648Y17816D01*
X15643Y17814D01*
X15642Y17813D01*
X15637Y17810D01*
X15632Y17807D01*
X15632Y17806D01*
X15631Y17806D01*
X15628Y17801D01*
X15624Y17797D01*
X15624Y17796D01*
X15621Y17791D01*
X15619Y17786D01*
X15619Y17785D01*
X15618Y17785D01*
X15617Y17779D01*
X15616Y17774D01*
X15616Y17773D01*
X15617Y17767D01*
X15617Y17761D01*
X15617Y17760D01*
X15619Y17755D01*
X15621Y17750D01*
X15621Y17749D01*
X15621Y17748D01*
X15628Y17738D01*
X15630Y17736D01*
X15631Y17735D01*
X15649Y17717D01*
X15721Y17544D01*
X15721Y17356D01*
X15702Y17310D01*
X15701Y17309D01*
X15700Y17307D01*
X15700Y17303D01*
X15698Y17298D01*
X15698Y17296D01*
X15698Y17295D01*
X15698Y17290D01*
X15698Y17286D01*
X15698Y17284D01*
X15699Y17283D01*
X15700Y17278D01*
X15701Y17274D01*
X15702Y17272D01*
X15702Y17271D01*
X15704Y17269D01*
X15707Y17263D01*
X15711Y17258D01*
X15712Y17256D01*
X16348Y16620D01*
X16352Y16617D01*
X16356Y16614D01*
X16357Y16613D01*
X16358Y16613D01*
X16363Y16611D01*
X16367Y16608D01*
X16368Y16608D01*
X16370Y16608D01*
X16375Y16607D01*
X16379Y16606D01*
X16381Y16606D01*
X16382Y16606D01*
X16387Y16606D01*
X16392Y16606D01*
X16393Y16607D01*
X16394Y16607D01*
X16399Y16609D01*
X16404Y16610D01*
X16404Y16611D01*
X16406Y16611D01*
X16416Y16618D01*
X16417Y16620D01*
X16418Y16620D01*
X16539Y16741D01*
X16695Y16806D01*
X16865Y16806D01*
X17021Y16741D01*
X17141Y16621D01*
X17206Y16465D01*
X17206Y16295D01*
X17141Y16139D01*
X17021Y16019D01*
X17006Y16013D01*
X17005Y16012D01*
X17003Y16012D01*
X16999Y16009D01*
X16995Y16007D01*
X16994Y16006D01*
X16993Y16005D01*
X16990Y16001D01*
X16986Y15998D01*
X16986Y15997D01*
X16985Y15996D01*
X16982Y15991D01*
X16980Y15987D01*
X16980Y15986D01*
X16979Y15985D01*
X16978Y15982D01*
X16976Y15975D01*
X16976Y15970D01*
X16976Y15967D01*
X16976Y4373D01*
X16976Y4369D01*
X16976Y4365D01*
X16977Y4363D01*
X16977Y4361D01*
X16979Y4357D01*
X16980Y4353D01*
X16981Y4352D01*
X16982Y4349D01*
X16989Y4339D01*
X16990Y4339D01*
X16990Y4338D01*
X17077Y4251D01*
X17081Y4249D01*
X17084Y4246D01*
X17085Y4245D01*
X17087Y4244D01*
X17091Y4242D01*
X17095Y4240D01*
X17096Y4240D01*
X17098Y4239D01*
X17111Y4237D01*
X17112Y4237D01*
X17780Y4237D01*
X17953Y4165D01*
X18085Y4033D01*
X18157Y3860D01*
X18157Y3673D01*
X18085Y3500D01*
X17953Y3367D01*
X17819Y3312D01*
X17814Y3309D01*
X17809Y3306D01*
X17808Y3306D01*
X17804Y3302D01*
X17800Y3298D01*
X17800Y3297D01*
X17799Y3297D01*
X17796Y3292D01*
X17793Y3287D01*
X17793Y3286D01*
X17791Y3281D01*
X17789Y3276D01*
X17789Y3275D01*
X17789Y3274D01*
X17789Y3269D01*
X17789Y3263D01*
X17789Y3262D01*
X17790Y3256D01*
X17791Y3251D01*
X17791Y3250D01*
X17794Y3245D01*
X17796Y3240D01*
X17797Y3239D01*
X17801Y3234D01*
X17804Y3230D01*
X17805Y3230D01*
X17805Y3229D01*
X17815Y3222D01*
X17818Y3222D01*
X17819Y3221D01*
X17953Y3165D01*
X18085Y3033D01*
X18157Y2860D01*
X18157Y2673D01*
X18085Y2500D01*
X17953Y2367D01*
X17815Y2310D01*
X17814Y2310D01*
X17813Y2309D01*
X17809Y2307D01*
X17805Y2304D01*
X17804Y2303D01*
X17803Y2303D01*
X17799Y2299D01*
X17796Y2295D01*
X17795Y2294D01*
X17794Y2293D01*
X17792Y2289D01*
X17789Y2285D01*
X17789Y2284D01*
X17788Y2282D01*
X17787Y2278D01*
X17786Y2273D01*
X17786Y2272D01*
X17785Y2270D01*
X17785Y2265D01*
X17785Y2261D01*
X17786Y2259D01*
X17786Y2258D01*
X17787Y2253D01*
X17788Y2248D01*
X17789Y2247D01*
X17789Y2246D01*
X17791Y2242D01*
X17794Y2237D01*
X17794Y2236D01*
X17795Y2235D01*
X17798Y2232D01*
X17802Y2228D01*
X17803Y2227D01*
X17804Y2226D01*
X17806Y2225D01*
X17812Y2221D01*
X17817Y2219D01*
X17819Y2218D01*
X17867Y2202D01*
X17933Y2169D01*
X17993Y2125D01*
X18045Y2073D01*
X18089Y2013D01*
X18122Y1947D01*
X18145Y1876D01*
X18147Y1865D01*
X17366Y1865D01*
X17361Y1865D01*
X17356Y1864D01*
X17355Y1864D01*
X17354Y1864D01*
X17349Y1862D01*
X17344Y1860D01*
X17343Y1860D01*
X17342Y1859D01*
X17338Y1856D01*
X17334Y1854D01*
X17333Y1853D01*
X17332Y1852D01*
X17329Y1848D01*
X17326Y1844D01*
X17325Y1843D01*
X17324Y1842D01*
X17322Y1838D01*
X17320Y1833D01*
X17320Y1832D01*
X17319Y1831D01*
X17317Y1819D01*
X17317Y1817D01*
X17317Y1816D01*
X17317Y1765D01*
X17315Y1765D01*
X17315Y1816D01*
X17315Y1821D01*
X17314Y1826D01*
X17314Y1827D01*
X17314Y1829D01*
X17312Y1833D01*
X17310Y1838D01*
X17310Y1839D01*
X17309Y1840D01*
X17306Y1844D01*
X17304Y1848D01*
X17303Y1849D01*
X17302Y1850D01*
X17298Y1853D01*
X17294Y1857D01*
X17293Y1857D01*
X17292Y1858D01*
X17288Y1860D01*
X17283Y1862D01*
X17282Y1863D01*
X17281Y1863D01*
X17269Y1865D01*
X17267Y1865D01*
X17266Y1865D01*
X16485Y1865D01*
X16487Y1876D01*
X16510Y1947D01*
X16543Y2013D01*
X16587Y2073D01*
X16639Y2125D01*
X16699Y2169D01*
X16765Y2202D01*
X16813Y2218D01*
X16814Y2219D01*
X16815Y2219D01*
X16820Y2221D01*
X16824Y2223D01*
X16825Y2224D01*
X16826Y2225D01*
X16830Y2228D01*
X16834Y2231D01*
X16835Y2232D01*
X16836Y2233D01*
X16838Y2237D01*
X16841Y2241D01*
X16842Y2243D01*
X16842Y2244D01*
X16844Y2248D01*
X16846Y2253D01*
X16846Y2254D01*
X16846Y2255D01*
X16846Y2260D01*
X16847Y2265D01*
X16847Y2267D01*
X16847Y2268D01*
X16846Y2273D01*
X16845Y2278D01*
X16845Y2279D01*
X16845Y2280D01*
X16843Y2284D01*
X16841Y2289D01*
X16840Y2290D01*
X16839Y2291D01*
X16836Y2295D01*
X16833Y2299D01*
X16832Y2300D01*
X16831Y2301D01*
X16829Y2302D01*
X16824Y2307D01*
X16819Y2309D01*
X16817Y2310D01*
X16679Y2367D01*
X16547Y2500D01*
X16475Y2673D01*
X16475Y2860D01*
X16547Y3033D01*
X16679Y3165D01*
X16813Y3221D01*
X16818Y3223D01*
X16823Y3226D01*
X16823Y3227D01*
X16824Y3227D01*
X16828Y3231D01*
X16832Y3235D01*
X16833Y3236D01*
X16836Y3240D01*
X16839Y3245D01*
X16839Y3246D01*
X16841Y3252D01*
X16843Y3257D01*
X16843Y3258D01*
X16843Y3264D01*
X16844Y3269D01*
X16843Y3270D01*
X16843Y3271D01*
X16842Y3276D01*
X16841Y3281D01*
X16841Y3282D01*
X16841Y3283D01*
X16838Y3288D01*
X16836Y3293D01*
X16835Y3293D01*
X16835Y3294D01*
X16831Y3298D01*
X16828Y3302D01*
X16827Y3303D01*
X16817Y3310D01*
X16814Y3311D01*
X16813Y3312D01*
X16679Y3367D01*
X16547Y3500D01*
X16475Y3673D01*
X16475Y3860D01*
X16547Y4033D01*
X16638Y4124D01*
X16641Y4128D01*
X16644Y4131D01*
X16645Y4133D01*
X16646Y4134D01*
X16648Y4138D01*
X16650Y4143D01*
X16650Y4144D01*
X16650Y4145D01*
X16651Y4150D01*
X16652Y4155D01*
X16652Y4156D01*
X16652Y4157D01*
X16652Y4162D01*
X16652Y4167D01*
X16651Y4168D01*
X16651Y4170D01*
X16649Y4174D01*
X16648Y4179D01*
X16647Y4180D01*
X16647Y4181D01*
X16640Y4192D01*
X16639Y4193D01*
X16638Y4194D01*
X16624Y4207D01*
X16624Y15951D01*
X16624Y15952D01*
X16624Y15954D01*
X16623Y15958D01*
X16623Y15963D01*
X16622Y15965D01*
X16622Y15966D01*
X16620Y15970D01*
X16618Y15975D01*
X16617Y15976D01*
X16617Y15977D01*
X16614Y15981D01*
X16611Y15985D01*
X16610Y15986D01*
X16609Y15987D01*
X16606Y15988D01*
X16601Y15993D01*
X16596Y15995D01*
X16594Y15996D01*
X16539Y16019D01*
X16419Y16139D01*
X16396Y16194D01*
X16396Y16195D01*
X16395Y16197D01*
X16392Y16201D01*
X16390Y16205D01*
X16389Y16206D01*
X16388Y16207D01*
X16385Y16210D01*
X16381Y16214D01*
X16380Y16214D01*
X16379Y16215D01*
X16375Y16218D01*
X16371Y16220D01*
X16369Y16220D01*
X16368Y16221D01*
X16366Y16222D01*
X16359Y16224D01*
X16353Y16224D01*
X16351Y16224D01*
X16247Y16224D01*
X15746Y16726D01*
X15742Y16729D01*
X15738Y16732D01*
X15737Y16732D01*
X15736Y16733D01*
X15731Y16735D01*
X15727Y16737D01*
X15726Y16738D01*
X15724Y16738D01*
X15720Y16739D01*
X15715Y16740D01*
X15714Y16740D01*
X15712Y16740D01*
X15707Y16740D01*
X15703Y16740D01*
X15701Y16739D01*
X15700Y16739D01*
X15695Y16737D01*
X15691Y16736D01*
X15690Y16735D01*
X15688Y16735D01*
X15684Y16732D01*
X15680Y16730D01*
X15679Y16728D01*
X15678Y16728D01*
X15675Y16724D01*
X15671Y16721D01*
X15671Y16719D01*
X15670Y16718D01*
X15668Y16714D01*
X15665Y16710D01*
X15665Y16708D01*
X15664Y16707D01*
X15663Y16702D01*
X15662Y16698D01*
X15662Y16696D01*
X15662Y16695D01*
X15662Y16690D01*
X15662Y16685D01*
X15662Y16684D01*
X15662Y16682D01*
X15666Y16671D01*
X15667Y16670D01*
X15667Y16669D01*
X15686Y16631D01*
X15709Y16560D01*
X15711Y16549D01*
X15300Y16549D01*
X15295Y16549D01*
X15290Y16548D01*
X15289Y16548D01*
X15288Y16548D01*
X15283Y16546D01*
X15278Y16544D01*
X15277Y16544D01*
X15276Y16543D01*
X15272Y16540D01*
X15268Y16537D01*
X15267Y16536D01*
X15266Y16536D01*
X15263Y16532D01*
X15260Y16528D01*
X15259Y16527D01*
X15258Y16526D01*
X15256Y16522D01*
X15254Y16517D01*
X15254Y16516D01*
X15253Y16515D01*
X15251Y16503D01*
X15251Y16501D01*
X15251Y16500D01*
X15251Y16449D01*
X15249Y16449D01*
X15249Y16500D01*
X15249Y16505D01*
X15248Y16510D01*
X15248Y16511D01*
X15248Y16512D01*
X15246Y16517D01*
X15244Y16522D01*
X15244Y16523D01*
X15243Y16524D01*
X15240Y16528D01*
X15237Y16532D01*
X15236Y16533D01*
X15236Y16534D01*
X15232Y16537D01*
X15228Y16540D01*
X15227Y16541D01*
X15226Y16542D01*
X15222Y16544D01*
X15217Y16546D01*
X15216Y16546D01*
X15215Y16547D01*
X15203Y16549D01*
X15201Y16549D01*
X15200Y16549D01*
X14789Y16549D01*
X14791Y16560D01*
X14814Y16631D01*
X14847Y16697D01*
X14891Y16757D01*
X14943Y16809D01*
X15003Y16853D01*
X15069Y16886D01*
X15117Y16902D01*
X15118Y16902D01*
X15119Y16903D01*
X15124Y16905D01*
X15128Y16907D01*
X15129Y16908D01*
X15130Y16908D01*
X15134Y16912D01*
X15138Y16915D01*
X15138Y16916D01*
X15139Y16917D01*
X15142Y16921D01*
X15145Y16925D01*
X15145Y16926D01*
X15146Y16927D01*
X15148Y16932D01*
X15150Y16937D01*
X15150Y16938D01*
X15150Y16939D01*
X15150Y16944D01*
X15151Y16949D01*
X15151Y16950D01*
X15151Y16952D01*
X15150Y16956D01*
X15149Y16961D01*
X15149Y16963D01*
X15149Y16964D01*
X15146Y16968D01*
X15145Y16973D01*
X15144Y16974D01*
X15143Y16975D01*
X15140Y16979D01*
X15137Y16983D01*
X15136Y16984D01*
X15135Y16985D01*
X15133Y16986D01*
X15127Y16991D01*
X15123Y16993D01*
X15121Y16994D01*
X14983Y17051D01*
X14851Y17183D01*
X14779Y17356D01*
X14779Y17544D01*
X14851Y17717D01*
X14869Y17735D01*
X14873Y17740D01*
X14876Y17744D01*
X14877Y17744D01*
X14877Y17745D01*
X14879Y17750D01*
X14882Y17755D01*
X14882Y17756D01*
X14883Y17762D01*
X14884Y17767D01*
X14884Y17768D01*
X14884Y17769D01*
X14883Y17774D01*
X14883Y17780D01*
X14883Y17781D01*
X14881Y17786D01*
X14879Y17792D01*
X14878Y17793D01*
X14875Y17797D01*
X14872Y17802D01*
X14871Y17803D01*
X14867Y17807D01*
X14863Y17810D01*
X14862Y17811D01*
X14857Y17814D01*
X14852Y17816D01*
X14851Y17816D01*
X14851Y17817D01*
X14838Y17819D01*
X14836Y17819D01*
X14835Y17819D01*
X10959Y17819D01*
X10954Y17819D01*
X10950Y17819D01*
X10948Y17818D01*
X10946Y17818D01*
X10942Y17816D01*
X10938Y17815D01*
X10937Y17814D01*
X10935Y17813D01*
X10925Y17806D01*
X10924Y17805D01*
X10842Y17723D01*
X10840Y17721D01*
X10839Y17720D01*
X10837Y17716D01*
X10834Y17713D01*
X10833Y17711D01*
X10832Y17709D01*
X10831Y17705D01*
X10829Y17701D01*
X10829Y17699D01*
X10828Y17697D01*
X10828Y17693D01*
X10827Y17689D01*
X10828Y17687D01*
X10827Y17685D01*
X10828Y17681D01*
X10829Y17677D01*
X10829Y17675D01*
X10830Y17673D01*
X10831Y17669D01*
X10833Y17665D01*
X10834Y17663D01*
X10835Y17661D01*
X10838Y17658D01*
X10840Y17655D01*
X10842Y17654D01*
X10843Y17652D01*
X10845Y17650D01*
X10849Y17647D01*
X10856Y17644D01*
X10858Y17642D01*
X11013Y17578D01*
X11128Y17463D01*
X11191Y17312D01*
X11191Y17148D01*
X11128Y16997D01*
X11013Y16882D01*
X10862Y16819D01*
X10698Y16819D01*
X10547Y16882D01*
X10432Y16997D01*
X10368Y17152D01*
X10367Y17154D01*
X10366Y17156D01*
X10363Y17160D01*
X10361Y17163D01*
X10360Y17165D01*
X10359Y17166D01*
X10356Y17169D01*
X10353Y17172D01*
X10351Y17173D01*
X10349Y17174D01*
X10346Y17176D01*
X10342Y17178D01*
X10340Y17179D01*
X10338Y17180D01*
X10334Y17181D01*
X10330Y17182D01*
X10328Y17182D01*
X10326Y17183D01*
X10322Y17182D01*
X10318Y17182D01*
X10316Y17182D01*
X10314Y17182D01*
X10310Y17181D01*
X10306Y17180D01*
X10304Y17179D01*
X10302Y17178D01*
X10300Y17177D01*
X10295Y17174D01*
X10289Y17170D01*
X10287Y17168D01*
X10218Y17099D01*
X10203Y17099D01*
X10202Y17099D01*
X10200Y17099D01*
X10196Y17098D01*
X10191Y17098D01*
X10190Y17097D01*
X10188Y17097D01*
X10184Y17095D01*
X10179Y17093D01*
X10178Y17092D01*
X10177Y17092D01*
X10173Y17089D01*
X10169Y17086D01*
X10168Y17085D01*
X10167Y17084D01*
X10166Y17081D01*
X10162Y17076D01*
X10159Y17071D01*
X10158Y17069D01*
X10128Y16997D01*
X10013Y16882D01*
X9862Y16819D01*
X9698Y16819D01*
X9547Y16882D01*
X9429Y17000D01*
X9425Y17003D01*
X9421Y17006D01*
X9420Y17007D01*
X9419Y17008D01*
X9415Y17010D01*
X9410Y17012D01*
X9409Y17012D01*
X9408Y17013D01*
X9403Y17013D01*
X9398Y17014D01*
X9397Y17014D01*
X9395Y17015D01*
X9390Y17014D01*
X9386Y17014D01*
X9384Y17013D01*
X9383Y17013D01*
X9378Y17012D01*
X9374Y17010D01*
X9373Y17010D01*
X9371Y17009D01*
X9361Y17002D01*
X9360Y17001D01*
X9359Y17000D01*
X9018Y16659D01*
X4542Y16659D01*
X4445Y16756D01*
X4201Y17000D01*
X4197Y17003D01*
X4193Y17006D01*
X4192Y17007D01*
X4191Y17008D01*
X4186Y17010D01*
X4182Y17012D01*
X4181Y17012D01*
X4179Y17013D01*
X4175Y17013D01*
X4170Y17014D01*
X4168Y17014D01*
X4167Y17015D01*
X4162Y17014D01*
X4157Y17014D01*
X4156Y17013D01*
X4155Y17013D01*
X4150Y17012D01*
X4146Y17010D01*
X4145Y17010D01*
X4143Y17009D01*
X4133Y17002D01*
X4132Y17001D01*
X4131Y17000D01*
X4013Y16882D01*
X3862Y16819D01*
X3698Y16819D01*
X3547Y16882D01*
X3432Y16997D01*
X3369Y17148D01*
X3369Y17312D01*
X3432Y17463D01*
X3547Y17578D01*
X3698Y17641D01*
X3862Y17641D01*
X4013Y17578D01*
X4128Y17463D01*
X4166Y17371D01*
X4167Y17370D01*
X4167Y17368D01*
X4170Y17364D01*
X4172Y17360D01*
X4173Y17359D01*
X4174Y17358D01*
X4178Y17355D01*
X4181Y17351D01*
X4182Y17351D01*
X4183Y17350D01*
X4188Y17347D01*
X4192Y17345D01*
X4193Y17345D01*
X4194Y17344D01*
X4197Y17343D01*
X4203Y17341D01*
X4209Y17341D01*
X4212Y17341D01*
X4258Y17341D01*
X4293Y17306D01*
X4295Y17305D01*
X4296Y17303D01*
X4300Y17301D01*
X4303Y17298D01*
X4305Y17297D01*
X4307Y17296D01*
X4311Y17295D01*
X4314Y17293D01*
X4317Y17293D01*
X4319Y17292D01*
X4323Y17292D01*
X4327Y17291D01*
X4329Y17292D01*
X4331Y17292D01*
X4335Y17292D01*
X4339Y17293D01*
X4341Y17293D01*
X4343Y17294D01*
X4347Y17296D01*
X4351Y17297D01*
X4352Y17298D01*
X4354Y17299D01*
X4358Y17302D01*
X4361Y17304D01*
X4362Y17306D01*
X4364Y17307D01*
X4365Y17309D01*
X4369Y17314D01*
X4372Y17320D01*
X4373Y17322D01*
X4432Y17463D01*
X4547Y17578D01*
X4698Y17641D01*
X4862Y17641D01*
X5013Y17578D01*
X5128Y17463D01*
X5191Y17312D01*
X5191Y17148D01*
X5133Y17009D01*
X5132Y17007D01*
X5132Y17005D01*
X5131Y17001D01*
X5130Y16997D01*
X5130Y16995D01*
X5129Y16993D01*
X5130Y16989D01*
X5130Y16984D01*
X5130Y16982D01*
X5130Y16980D01*
X5132Y16976D01*
X5133Y16972D01*
X5134Y16970D01*
X5134Y16968D01*
X5136Y16965D01*
X5138Y16961D01*
X5140Y16960D01*
X5141Y16958D01*
X5144Y16955D01*
X5147Y16952D01*
X5149Y16951D01*
X5150Y16950D01*
X5154Y16948D01*
X5157Y16946D01*
X5159Y16945D01*
X5161Y16944D01*
X5164Y16943D01*
X5169Y16942D01*
X5176Y16941D01*
X5178Y16941D01*
X5382Y16941D01*
X5384Y16941D01*
X5386Y16941D01*
X5390Y16942D01*
X5394Y16942D01*
X5396Y16943D01*
X5398Y16944D01*
X5402Y16945D01*
X5405Y16947D01*
X5407Y16948D01*
X5409Y16949D01*
X5412Y16952D01*
X5415Y16954D01*
X5417Y16956D01*
X5418Y16957D01*
X5421Y16961D01*
X5423Y16964D01*
X5424Y16966D01*
X5425Y16968D01*
X5427Y16971D01*
X5428Y16975D01*
X5429Y16977D01*
X5430Y16979D01*
X5430Y16983D01*
X5431Y16987D01*
X5431Y16990D01*
X5431Y16992D01*
X5430Y16994D01*
X5430Y17000D01*
X5428Y17006D01*
X5427Y17009D01*
X5369Y17148D01*
X5369Y17312D01*
X5432Y17463D01*
X5547Y17578D01*
X5698Y17641D01*
X5862Y17641D01*
X6013Y17578D01*
X6128Y17463D01*
X6191Y17312D01*
X6191Y17148D01*
X6133Y17009D01*
X6132Y17007D01*
X6132Y17005D01*
X6131Y17001D01*
X6130Y16997D01*
X6130Y16995D01*
X6129Y16993D01*
X6130Y16989D01*
X6130Y16984D01*
X6130Y16982D01*
X6130Y16980D01*
X6132Y16976D01*
X6133Y16972D01*
X6134Y16970D01*
X6134Y16968D01*
X6136Y16965D01*
X6138Y16961D01*
X6140Y16960D01*
X6141Y16958D01*
X6144Y16955D01*
X6147Y16952D01*
X6149Y16951D01*
X6150Y16950D01*
X6154Y16948D01*
X6157Y16946D01*
X6159Y16945D01*
X6161Y16944D01*
X6164Y16943D01*
X6169Y16942D01*
X6176Y16941D01*
X6178Y16941D01*
X6382Y16941D01*
X6384Y16941D01*
X6386Y16941D01*
X6390Y16942D01*
X6394Y16942D01*
X6396Y16943D01*
X6398Y16944D01*
X6402Y16945D01*
X6405Y16947D01*
X6407Y16948D01*
X6409Y16949D01*
X6412Y16952D01*
X6415Y16954D01*
X6417Y16956D01*
X6418Y16957D01*
X6421Y16961D01*
X6423Y16964D01*
X6424Y16966D01*
X6425Y16968D01*
X6427Y16971D01*
X6428Y16975D01*
X6429Y16977D01*
X6430Y16979D01*
X6430Y16983D01*
X6431Y16987D01*
X6431Y16990D01*
X6431Y16992D01*
X6430Y16994D01*
X6430Y17000D01*
X6428Y17006D01*
X6427Y17009D01*
X6369Y17148D01*
X6369Y17312D01*
X6432Y17463D01*
X6547Y17578D01*
X6698Y17641D01*
X6862Y17641D01*
X7013Y17578D01*
X7128Y17463D01*
X7191Y17312D01*
X7191Y17148D01*
X7133Y17009D01*
X7132Y17007D01*
X7132Y17005D01*
X7131Y17001D01*
X7130Y16997D01*
X7130Y16995D01*
X7129Y16993D01*
X7130Y16989D01*
X7130Y16984D01*
X7130Y16982D01*
X7130Y16980D01*
X7132Y16976D01*
X7133Y16972D01*
X7134Y16970D01*
X7134Y16968D01*
X7136Y16965D01*
X7138Y16961D01*
X7140Y16960D01*
X7141Y16958D01*
X7144Y16955D01*
X7147Y16952D01*
X7149Y16951D01*
X7150Y16950D01*
X7154Y16948D01*
X7157Y16946D01*
X7159Y16945D01*
X7161Y16944D01*
X7164Y16943D01*
X7169Y16942D01*
X7176Y16941D01*
X7178Y16941D01*
X7382Y16941D01*
X7384Y16941D01*
X7386Y16941D01*
X7390Y16942D01*
X7394Y16942D01*
X7396Y16943D01*
X7398Y16944D01*
X7402Y16945D01*
X7405Y16947D01*
X7407Y16948D01*
X7409Y16949D01*
X7412Y16952D01*
X7415Y16954D01*
X7417Y16956D01*
X7418Y16957D01*
X7421Y16961D01*
X7423Y16964D01*
X7424Y16966D01*
X7425Y16968D01*
X7427Y16971D01*
X7428Y16975D01*
X7429Y16977D01*
X7430Y16979D01*
X7430Y16983D01*
X7431Y16987D01*
X7431Y16990D01*
X7431Y16992D01*
X7430Y16994D01*
X7430Y17000D01*
X7428Y17006D01*
X7427Y17009D01*
X7369Y17148D01*
X7369Y17312D01*
X7432Y17463D01*
X7547Y17578D01*
X7698Y17641D01*
X7862Y17641D01*
X8013Y17578D01*
X8121Y17470D01*
X8125Y17467D01*
X8129Y17464D01*
X8130Y17463D01*
X8131Y17462D01*
X8135Y17460D01*
X8140Y17458D01*
X8141Y17458D01*
X8142Y17457D01*
X8147Y17457D01*
X8152Y17456D01*
X8153Y17456D01*
X8155Y17455D01*
X8160Y17456D01*
X8164Y17456D01*
X8166Y17456D01*
X8167Y17457D01*
X8172Y17458D01*
X8176Y17460D01*
X8177Y17460D01*
X8179Y17461D01*
X8189Y17468D01*
X8190Y17469D01*
X8191Y17470D01*
X13540Y22819D01*
X13543Y22823D01*
X13546Y22827D01*
X13547Y22828D01*
X13548Y22829D01*
X13550Y22834D01*
X13552Y22838D01*
X13552Y22839D01*
X13553Y22841D01*
X13553Y22845D01*
X13554Y22850D01*
X13554Y22852D01*
X13555Y22853D01*
X13554Y22858D01*
X13554Y22863D01*
X13554Y22864D01*
X13553Y22865D01*
X13552Y22870D01*
X13550Y22874D01*
X13550Y22875D01*
X13549Y22877D01*
X13542Y22887D01*
X13541Y22888D01*
X13540Y22889D01*
X13432Y22997D01*
X13369Y23148D01*
X13369Y23312D01*
X13435Y23471D01*
X13436Y23473D01*
X13437Y23475D01*
X13437Y23479D01*
X13439Y23483D01*
X13439Y23485D01*
X13439Y23487D01*
X13439Y23491D01*
X13439Y23496D01*
X13438Y23498D01*
X13438Y23500D01*
X13437Y23504D01*
X13436Y23508D01*
X13435Y23510D01*
X13434Y23512D01*
X13432Y23515D01*
X13430Y23519D01*
X13428Y23520D01*
X13427Y23522D01*
X13424Y23525D01*
X13421Y23528D01*
X13420Y23529D01*
X13418Y23530D01*
X13414Y23532D01*
X13411Y23534D01*
X13409Y23535D01*
X13407Y23536D01*
X13405Y23537D01*
X13399Y23538D01*
X13392Y23539D01*
X13390Y23539D01*
X13170Y23539D01*
X13168Y23539D01*
X13166Y23539D01*
X13162Y23538D01*
X13158Y23538D01*
X13156Y23537D01*
X13154Y23536D01*
X13150Y23535D01*
X13146Y23533D01*
X13145Y23532D01*
X13143Y23531D01*
X13140Y23528D01*
X13136Y23526D01*
X13135Y23524D01*
X13133Y23523D01*
X13131Y23519D01*
X13128Y23516D01*
X13128Y23514D01*
X13126Y23512D01*
X13125Y23509D01*
X13123Y23505D01*
X13123Y23503D01*
X13122Y23501D01*
X13122Y23497D01*
X13121Y23493D01*
X13121Y23490D01*
X13121Y23488D01*
X13122Y23486D01*
X13122Y23480D01*
X13124Y23474D01*
X13125Y23471D01*
X13191Y23312D01*
X13191Y23148D01*
X13128Y22997D01*
X13013Y22882D01*
X12862Y22819D01*
X12698Y22819D01*
X12547Y22882D01*
X12432Y22997D01*
X12369Y23148D01*
X12369Y23312D01*
X12435Y23471D01*
X12436Y23473D01*
X12437Y23475D01*
X12437Y23479D01*
X12439Y23483D01*
X12439Y23485D01*
X12439Y23487D01*
X12439Y23491D01*
X12439Y23496D01*
X12438Y23498D01*
X12438Y23500D01*
X12437Y23504D01*
X12436Y23508D01*
X12435Y23510D01*
X12434Y23512D01*
X12432Y23515D01*
X12430Y23519D01*
X12428Y23520D01*
X12427Y23522D01*
X12424Y23525D01*
X12421Y23528D01*
X12420Y23529D01*
X12418Y23530D01*
X12414Y23532D01*
X12411Y23534D01*
X12409Y23535D01*
X12407Y23536D01*
X12405Y23537D01*
X12399Y23538D01*
X12392Y23539D01*
X12390Y23539D01*
X12170Y23539D01*
X12168Y23539D01*
X12166Y23539D01*
X12162Y23538D01*
X12158Y23538D01*
X12156Y23537D01*
X12154Y23536D01*
X12150Y23535D01*
X12146Y23533D01*
X12145Y23532D01*
X12143Y23531D01*
X12140Y23528D01*
X12136Y23526D01*
X12135Y23524D01*
X12133Y23523D01*
X12131Y23519D01*
X12128Y23516D01*
X12128Y23514D01*
X12126Y23512D01*
X12125Y23509D01*
X12123Y23505D01*
X12123Y23503D01*
X12122Y23501D01*
X12122Y23497D01*
X12121Y23493D01*
X12121Y23490D01*
X12121Y23488D01*
X12122Y23486D01*
X12122Y23480D01*
X12124Y23474D01*
X12125Y23471D01*
X12191Y23312D01*
X12191Y23148D01*
X12128Y22997D01*
X12013Y22882D01*
X11862Y22819D01*
X11698Y22819D01*
X11547Y22882D01*
X11432Y22997D01*
X11369Y23148D01*
X11369Y23312D01*
X11435Y23471D01*
X11436Y23473D01*
X11437Y23475D01*
X11437Y23479D01*
X11439Y23483D01*
X11439Y23485D01*
X11439Y23487D01*
X11439Y23491D01*
X11439Y23496D01*
X11438Y23498D01*
X11438Y23500D01*
X11437Y23504D01*
X11436Y23508D01*
X11435Y23510D01*
X11434Y23512D01*
X11432Y23515D01*
X11430Y23519D01*
X11428Y23520D01*
X11427Y23522D01*
X11424Y23525D01*
X11421Y23528D01*
X11420Y23529D01*
X11418Y23530D01*
X11414Y23532D01*
X11411Y23534D01*
X11409Y23535D01*
X11407Y23536D01*
X11405Y23537D01*
X11399Y23538D01*
X11392Y23539D01*
X11390Y23539D01*
X11170Y23539D01*
X11168Y23539D01*
X11166Y23539D01*
X11162Y23538D01*
X11158Y23538D01*
X11156Y23537D01*
X11154Y23536D01*
X11150Y23535D01*
X11146Y23533D01*
X11145Y23532D01*
X11143Y23531D01*
X11140Y23528D01*
X11136Y23526D01*
X11135Y23524D01*
X11133Y23523D01*
X11131Y23519D01*
X11128Y23516D01*
X11128Y23514D01*
X11126Y23512D01*
X11125Y23509D01*
X11123Y23505D01*
X11123Y23503D01*
X11122Y23501D01*
X11122Y23497D01*
X11121Y23493D01*
X11121Y23490D01*
X11121Y23488D01*
X11122Y23486D01*
X11122Y23480D01*
X11124Y23474D01*
X11125Y23471D01*
X11191Y23312D01*
X11191Y23148D01*
X11128Y22997D01*
X11013Y22882D01*
X10862Y22819D01*
X10698Y22819D01*
X10547Y22882D01*
X10432Y22997D01*
X10369Y23148D01*
X10369Y23312D01*
X10435Y23471D01*
X10436Y23473D01*
X10437Y23475D01*
X10437Y23479D01*
X10439Y23483D01*
X10439Y23485D01*
X10439Y23487D01*
X10439Y23491D01*
X10439Y23496D01*
X10438Y23498D01*
X10438Y23500D01*
X10437Y23504D01*
X10436Y23508D01*
X10435Y23510D01*
X10434Y23512D01*
X10432Y23515D01*
X10430Y23519D01*
X10428Y23520D01*
X10427Y23522D01*
X10424Y23525D01*
X10421Y23528D01*
X10420Y23529D01*
X10418Y23530D01*
X10414Y23532D01*
X10411Y23534D01*
X10409Y23535D01*
X10407Y23536D01*
X10405Y23537D01*
X10399Y23538D01*
X10392Y23539D01*
X10390Y23539D01*
X10170Y23539D01*
X10168Y23539D01*
X10166Y23539D01*
X10162Y23538D01*
X10158Y23538D01*
X10156Y23537D01*
X10154Y23536D01*
X10150Y23535D01*
X10146Y23533D01*
X10145Y23532D01*
X10143Y23531D01*
X10140Y23528D01*
X10136Y23526D01*
X10135Y23524D01*
X10133Y23523D01*
X10131Y23519D01*
X10128Y23516D01*
X10128Y23514D01*
X10126Y23512D01*
X10125Y23509D01*
X10123Y23505D01*
X10123Y23503D01*
X10122Y23501D01*
X10122Y23497D01*
X10121Y23493D01*
X10121Y23490D01*
X10121Y23488D01*
X10122Y23486D01*
X10122Y23480D01*
X10124Y23474D01*
X10125Y23471D01*
X10191Y23312D01*
X10191Y23148D01*
X10128Y22997D01*
X10013Y22882D01*
X9862Y22819D01*
X9698Y22819D01*
X9547Y22882D01*
X9432Y22997D01*
X9369Y23148D01*
X9369Y23312D01*
X9435Y23471D01*
X9436Y23473D01*
X9437Y23475D01*
X9437Y23479D01*
X9439Y23483D01*
X9439Y23485D01*
X9439Y23487D01*
X9439Y23491D01*
X9439Y23496D01*
X9438Y23498D01*
X9438Y23500D01*
X9437Y23504D01*
X9436Y23508D01*
X9435Y23510D01*
X9434Y23512D01*
X9432Y23515D01*
X9430Y23519D01*
X9428Y23520D01*
X9427Y23522D01*
X9424Y23525D01*
X9421Y23528D01*
X9420Y23529D01*
X9418Y23530D01*
X9414Y23532D01*
X9411Y23534D01*
X9409Y23535D01*
X9407Y23536D01*
X9405Y23537D01*
X9399Y23538D01*
X9392Y23539D01*
X9390Y23539D01*
X9170Y23539D01*
X9168Y23539D01*
X9166Y23539D01*
X9162Y23538D01*
X9158Y23538D01*
X9156Y23537D01*
X9154Y23536D01*
X9150Y23535D01*
X9146Y23533D01*
X9145Y23532D01*
X9143Y23531D01*
X9140Y23528D01*
X9136Y23526D01*
X9135Y23524D01*
X9133Y23523D01*
X9131Y23519D01*
X9128Y23516D01*
X9128Y23514D01*
X9126Y23512D01*
X9125Y23509D01*
X9123Y23505D01*
X9123Y23503D01*
X9122Y23501D01*
X9122Y23497D01*
X9121Y23493D01*
X9121Y23490D01*
X9121Y23488D01*
X9122Y23486D01*
X9122Y23480D01*
X9124Y23474D01*
X9125Y23471D01*
X9191Y23312D01*
X9191Y23148D01*
X9128Y22997D01*
X9013Y22882D01*
X8862Y22819D01*
X8698Y22819D01*
X8547Y22882D01*
X8432Y22997D01*
X8369Y23148D01*
X8369Y23312D01*
X8435Y23471D01*
X8436Y23473D01*
X8437Y23475D01*
X8437Y23479D01*
X8439Y23483D01*
X8439Y23485D01*
X8439Y23487D01*
X8439Y23491D01*
X8439Y23496D01*
X8438Y23498D01*
X8438Y23500D01*
X8437Y23504D01*
X8436Y23508D01*
X8435Y23510D01*
X8434Y23512D01*
X8432Y23515D01*
X8430Y23519D01*
X8428Y23520D01*
X8427Y23522D01*
X8424Y23525D01*
X8421Y23528D01*
X8420Y23529D01*
X8418Y23530D01*
X8414Y23532D01*
X8411Y23534D01*
X8409Y23535D01*
X8407Y23536D01*
X8405Y23537D01*
X8399Y23538D01*
X8392Y23539D01*
X8390Y23539D01*
X8170Y23539D01*
X8168Y23539D01*
X8166Y23539D01*
X8162Y23538D01*
X8158Y23538D01*
X8156Y23537D01*
X8154Y23536D01*
X8150Y23535D01*
X8146Y23533D01*
X8145Y23532D01*
X8143Y23531D01*
X8140Y23528D01*
X8136Y23526D01*
X8135Y23524D01*
X8133Y23523D01*
X8131Y23519D01*
X8128Y23516D01*
X8128Y23514D01*
X8126Y23512D01*
X8125Y23509D01*
X8123Y23505D01*
X8123Y23503D01*
X8122Y23501D01*
X8122Y23497D01*
X8121Y23493D01*
X8121Y23490D01*
X8121Y23488D01*
X8122Y23486D01*
X8122Y23480D01*
X8124Y23474D01*
X8125Y23471D01*
X8191Y23312D01*
X8191Y23148D01*
X8162Y23080D01*
X8162Y23078D01*
X8161Y23077D01*
X8160Y23072D01*
X8159Y23068D01*
X8159Y23066D01*
X8159Y23065D01*
X8159Y23060D01*
X8159Y23055D01*
X8159Y23054D01*
X8159Y23052D01*
X8161Y23048D01*
X8162Y23043D01*
X8163Y23042D01*
X8163Y23040D01*
X8164Y23038D01*
X8168Y23032D01*
X8172Y23028D01*
X8173Y23026D01*
X8727Y22472D01*
X8728Y22471D01*
X8729Y22470D01*
X8733Y22467D01*
X8737Y22464D01*
X8739Y22464D01*
X8740Y22463D01*
X8744Y22461D01*
X8749Y22459D01*
X8750Y22459D01*
X8751Y22458D01*
X8756Y22458D01*
X8761Y22457D01*
X8762Y22457D01*
X8764Y22457D01*
X8766Y22458D01*
X8773Y22459D01*
X8778Y22461D01*
X8779Y22461D01*
X8900Y22461D01*
X9010Y22415D01*
X9095Y22330D01*
X9141Y22220D01*
X9141Y22100D01*
X9095Y21990D01*
X9010Y21905D01*
X8900Y21859D01*
X8780Y21859D01*
X8670Y21905D01*
X8585Y21990D01*
X8539Y22100D01*
X8539Y22220D01*
X8540Y22222D01*
X8541Y22226D01*
X8542Y22231D01*
X8542Y22233D01*
X8543Y22234D01*
X8542Y22239D01*
X8542Y22243D01*
X8542Y22245D01*
X8542Y22246D01*
X8541Y22251D01*
X8539Y22256D01*
X8539Y22257D01*
X8538Y22258D01*
X8537Y22260D01*
X8534Y22266D01*
X8530Y22271D01*
X8528Y22273D01*
X7970Y22831D01*
X7969Y22832D01*
X7968Y22833D01*
X7964Y22836D01*
X7960Y22839D01*
X7959Y22839D01*
X7957Y22840D01*
X7953Y22842D01*
X7949Y22844D01*
X7947Y22844D01*
X7946Y22844D01*
X7941Y22845D01*
X7936Y22846D01*
X7935Y22845D01*
X7933Y22846D01*
X7931Y22845D01*
X7924Y22844D01*
X7919Y22842D01*
X7916Y22842D01*
X7862Y22819D01*
X7698Y22819D01*
X7547Y22882D01*
X7432Y22997D01*
X7369Y23148D01*
X7369Y23312D01*
X7435Y23471D01*
X7436Y23473D01*
X7437Y23475D01*
X7437Y23479D01*
X7439Y23483D01*
X7439Y23485D01*
X7439Y23487D01*
X7439Y23491D01*
X7439Y23496D01*
X7438Y23498D01*
X7438Y23500D01*
X7437Y23504D01*
X7436Y23508D01*
X7435Y23510D01*
X7434Y23512D01*
X7432Y23515D01*
X7430Y23519D01*
X7428Y23520D01*
X7427Y23522D01*
X7424Y23525D01*
X7421Y23528D01*
X7420Y23529D01*
X7418Y23530D01*
X7414Y23532D01*
X7411Y23534D01*
X7409Y23535D01*
X7407Y23536D01*
X7405Y23537D01*
X7399Y23538D01*
X7392Y23539D01*
X7390Y23539D01*
X7319Y23539D01*
X7314Y23539D01*
X7310Y23539D01*
X7308Y23538D01*
X7306Y23538D01*
X7302Y23536D01*
X7298Y23535D01*
X7297Y23534D01*
X7295Y23533D01*
X7285Y23526D01*
X7284Y23525D01*
X7179Y23420D01*
X7178Y23419D01*
X7177Y23418D01*
X7174Y23414D01*
X7171Y23410D01*
X7171Y23409D01*
X7170Y23407D01*
X7168Y23403D01*
X7166Y23399D01*
X7166Y23397D01*
X7166Y23396D01*
X7165Y23391D01*
X7164Y23386D01*
X7165Y23385D01*
X7164Y23383D01*
X7165Y23381D01*
X7166Y23374D01*
X7168Y23369D01*
X7168Y23366D01*
X7191Y23312D01*
X7191Y23148D01*
X7128Y22997D01*
X7013Y22882D01*
X6862Y22819D01*
X6698Y22819D01*
X6547Y22882D01*
X6432Y22997D01*
X6369Y23148D01*
X6369Y23312D01*
X6432Y23463D01*
X6547Y23578D01*
X6611Y23604D01*
X6613Y23606D01*
X6616Y23607D01*
X6619Y23609D01*
X6622Y23611D01*
X6624Y23613D01*
X6626Y23614D01*
X6628Y23617D01*
X6630Y23619D01*
X6632Y23622D01*
X6634Y23624D01*
X6635Y23627D01*
X6637Y23630D01*
X6638Y23633D01*
X6639Y23635D01*
X6640Y23639D01*
X6641Y23642D01*
X6641Y23645D01*
X6641Y23647D01*
X6641Y23651D01*
X6641Y23654D01*
X6640Y23657D01*
X6640Y23660D01*
X6639Y23663D01*
X6638Y23666D01*
X6637Y23669D01*
X6636Y23672D01*
X6634Y23674D01*
X6633Y23678D01*
X6631Y23680D01*
X6629Y23682D01*
X6627Y23684D01*
X6625Y23687D01*
X6622Y23688D01*
X6620Y23690D01*
X6617Y23692D01*
X6614Y23694D01*
X6612Y23695D01*
X6609Y23696D01*
X6607Y23697D01*
X6603Y23698D01*
X6594Y23699D01*
X6592Y23699D01*
X6479Y23699D01*
X6474Y23699D01*
X6470Y23699D01*
X6468Y23698D01*
X6466Y23698D01*
X6462Y23696D01*
X6458Y23695D01*
X6457Y23694D01*
X6455Y23693D01*
X6445Y23686D01*
X6444Y23685D01*
X6179Y23420D01*
X6178Y23419D01*
X6177Y23418D01*
X6174Y23414D01*
X6171Y23410D01*
X6171Y23409D01*
X6170Y23407D01*
X6168Y23403D01*
X6166Y23399D01*
X6166Y23397D01*
X6166Y23396D01*
X6165Y23391D01*
X6164Y23386D01*
X6165Y23385D01*
X6164Y23383D01*
X6165Y23381D01*
X6166Y23374D01*
X6168Y23369D01*
X6168Y23366D01*
X6191Y23312D01*
X6191Y23148D01*
X6128Y22997D01*
X6013Y22882D01*
X5862Y22819D01*
X5698Y22819D01*
X5547Y22882D01*
X5432Y22997D01*
X5369Y23148D01*
X5369Y23312D01*
X5432Y23463D01*
X5547Y23578D01*
X5698Y23641D01*
X5862Y23641D01*
X5930Y23612D01*
X5932Y23612D01*
X5933Y23611D01*
X5938Y23610D01*
X5942Y23609D01*
X5944Y23609D01*
X5945Y23609D01*
X5950Y23609D01*
X5955Y23609D01*
X5956Y23609D01*
X5958Y23609D01*
X5962Y23611D01*
X5967Y23612D01*
X5968Y23613D01*
X5970Y23613D01*
X5972Y23614D01*
X5978Y23618D01*
X5982Y23622D01*
X5984Y23623D01*
X6342Y23981D01*
X17418Y23981D01*
X31021Y10378D01*
X31021Y3222D01*
X30835Y3036D01*
X30833Y3033D01*
X30830Y3030D01*
X30829Y3028D01*
X30828Y3026D01*
X30826Y3022D01*
X30824Y3019D01*
X30824Y3017D01*
X30823Y3015D01*
X30821Y3003D01*
X30821Y3002D01*
X30821Y3001D01*
X30821Y2481D01*
X30821Y2475D01*
X30822Y2470D01*
X30822Y2469D01*
X30822Y2468D01*
X30824Y2463D01*
X30826Y2458D01*
X30827Y2457D01*
X30830Y2452D01*
X30833Y2448D01*
X30834Y2447D01*
X30839Y2443D01*
X30843Y2440D01*
X30843Y2439D01*
X30844Y2439D01*
X30849Y2437D01*
X30854Y2434D01*
X30855Y2434D01*
X30861Y2433D01*
X30866Y2432D01*
X30867Y2432D01*
X30873Y2432D01*
X30879Y2432D01*
X30880Y2432D01*
X30885Y2434D01*
X30890Y2436D01*
X30891Y2436D01*
X30892Y2436D01*
X30902Y2443D01*
X30904Y2445D01*
X30905Y2446D01*
X30927Y2468D01*
X31242Y2468D01*
X31465Y2245D01*
X31465Y1929D01*
X31242Y1706D01*
X30927Y1706D01*
X30751Y1882D01*
X30747Y1885D01*
X30743Y1888D01*
X30742Y1889D01*
X30741Y1890D01*
X30736Y1892D01*
X30732Y1894D01*
X30731Y1894D01*
X30729Y1894D01*
X30725Y1895D01*
X30720Y1896D01*
X30718Y1896D01*
X30717Y1896D01*
X30712Y1896D01*
X30707Y1896D01*
X30706Y1895D01*
X30705Y1895D01*
X30700Y1893D01*
X30695Y1892D01*
X30695Y1891D01*
X30693Y1891D01*
X30683Y1884D01*
X30682Y1883D01*
X30681Y1882D01*
X30298Y1499D01*
X27502Y1499D01*
X27405Y1596D01*
X27132Y1869D01*
X27128Y1872D01*
X27124Y1875D01*
X27123Y1876D01*
X27122Y1877D01*
X27118Y1879D01*
X27113Y1881D01*
X27112Y1881D01*
X27111Y1882D01*
X27106Y1882D01*
X27101Y1883D01*
X27100Y1883D01*
X27098Y1883D01*
X27093Y1883D01*
X27089Y1883D01*
X27087Y1882D01*
X27086Y1882D01*
X27081Y1880D01*
X27077Y1879D01*
X27076Y1878D01*
X27074Y1878D01*
X27064Y1871D01*
X27063Y1870D01*
X27062Y1869D01*
X26871Y1677D01*
X26555Y1677D01*
X26332Y1900D01*
X26332Y2216D01*
X26555Y2439D01*
X26871Y2439D01*
X27097Y2212D01*
X27099Y2208D01*
X27099Y2207D01*
X27100Y2206D01*
X27103Y2202D01*
X27105Y2198D01*
X27106Y2197D01*
X27107Y2196D01*
X27111Y2193D01*
X27115Y2190D01*
X27116Y2189D01*
X27117Y2188D01*
X27121Y2186D01*
X27126Y2184D01*
X27127Y2184D01*
X27128Y2183D01*
X27140Y2181D01*
X27142Y2181D01*
X27143Y2181D01*
X27218Y2181D01*
X27248Y2151D01*
X27252Y2148D01*
X27257Y2144D01*
X27258Y2143D01*
X27263Y2141D01*
X27268Y2139D01*
X27269Y2139D01*
X27269Y2138D01*
X27275Y2138D01*
X27280Y2137D01*
X27281Y2137D01*
X27282Y2137D01*
X27287Y2137D01*
X27293Y2138D01*
X27294Y2138D01*
X27299Y2140D01*
X27304Y2142D01*
X27305Y2142D01*
X27306Y2142D01*
X27310Y2145D01*
X27315Y2148D01*
X27315Y2149D01*
X27316Y2149D01*
X27319Y2153D01*
X27323Y2158D01*
X27324Y2158D01*
X27324Y2159D01*
X27326Y2164D01*
X27329Y2169D01*
X27329Y2170D01*
X27332Y2182D01*
X27332Y2184D01*
X27332Y2186D01*
X27332Y2216D01*
X27555Y2439D01*
X27871Y2439D01*
X28094Y2216D01*
X28094Y1900D01*
X28058Y1865D01*
X28055Y1860D01*
X28051Y1856D01*
X28050Y1855D01*
X28048Y1850D01*
X28046Y1845D01*
X28046Y1844D01*
X28045Y1838D01*
X28044Y1833D01*
X28044Y1832D01*
X28044Y1831D01*
X28044Y1826D01*
X28045Y1820D01*
X28045Y1819D01*
X28047Y1814D01*
X28049Y1808D01*
X28049Y1807D01*
X28052Y1803D01*
X28055Y1798D01*
X28056Y1798D01*
X28056Y1797D01*
X28061Y1793D01*
X28065Y1790D01*
X28065Y1789D01*
X28066Y1789D01*
X28071Y1786D01*
X28076Y1784D01*
X28077Y1783D01*
X28089Y1781D01*
X28091Y1781D01*
X28093Y1781D01*
X29733Y1781D01*
X29739Y1781D01*
X29744Y1782D01*
X29745Y1782D01*
X29751Y1784D01*
X29756Y1786D01*
X29756Y1787D01*
X29757Y1787D01*
X29761Y1790D01*
X29766Y1793D01*
X29766Y1794D01*
X29767Y1794D01*
X29770Y1799D01*
X29774Y1803D01*
X29775Y1804D01*
X29777Y1809D01*
X29780Y1814D01*
X29780Y1815D01*
X29781Y1821D01*
X29782Y1826D01*
X29782Y1827D01*
X29782Y1833D01*
X29781Y1839D01*
X29781Y1840D01*
X29779Y1845D01*
X29778Y1850D01*
X29778Y1851D01*
X29777Y1852D01*
X29770Y1862D01*
X29769Y1864D01*
X29768Y1865D01*
X29704Y1929D01*
X29704Y2245D01*
X29927Y2468D01*
X29930Y2468D01*
X29935Y2468D01*
X29940Y2469D01*
X29941Y2469D01*
X29942Y2469D01*
X29947Y2471D01*
X29952Y2473D01*
X29953Y2473D01*
X29954Y2474D01*
X29958Y2477D01*
X29962Y2479D01*
X29963Y2480D01*
X29964Y2481D01*
X29967Y2485D01*
X29970Y2489D01*
X29971Y2490D01*
X29972Y2491D01*
X29974Y2495D01*
X29976Y2500D01*
X29976Y2501D01*
X29977Y2502D01*
X29979Y2514D01*
X29979Y2516D01*
X29979Y2517D01*
X29979Y2818D01*
X30156Y2995D01*
X30160Y3000D01*
X30163Y3004D01*
X30164Y3005D01*
X30166Y3010D01*
X30168Y3015D01*
X30168Y3016D01*
X30169Y3016D01*
X30169Y3022D01*
X30170Y3027D01*
X30170Y3028D01*
X30171Y3029D01*
X30170Y3034D01*
X30170Y3040D01*
X30169Y3040D01*
X30169Y3041D01*
X30167Y3046D01*
X30166Y3052D01*
X30165Y3052D01*
X30165Y3053D01*
X30162Y3057D01*
X30159Y3062D01*
X30158Y3062D01*
X30158Y3063D01*
X30154Y3067D01*
X30150Y3070D01*
X30149Y3071D01*
X30148Y3071D01*
X30143Y3074D01*
X30139Y3076D01*
X30138Y3076D01*
X30137Y3077D01*
X30125Y3079D01*
X30123Y3079D01*
X30121Y3079D01*
X30106Y3079D01*
X29933Y3151D01*
X29801Y3283D01*
X29746Y3417D01*
X29743Y3422D01*
X29740Y3427D01*
X29739Y3428D01*
X29735Y3432D01*
X29732Y3436D01*
X29731Y3436D01*
X29731Y3437D01*
X29726Y3440D01*
X29721Y3443D01*
X29720Y3443D01*
X29715Y3445D01*
X29709Y3447D01*
X29708Y3447D01*
X29703Y3447D01*
X29697Y3447D01*
X29696Y3447D01*
X29690Y3446D01*
X29685Y3445D01*
X29684Y3445D01*
X29679Y3442D01*
X29674Y3440D01*
X29673Y3439D01*
X29672Y3439D01*
X29668Y3435D01*
X29664Y3432D01*
X29664Y3431D01*
X29663Y3431D01*
X29656Y3421D01*
X29655Y3418D01*
X29654Y3417D01*
X29599Y3283D01*
X29467Y3151D01*
X29294Y3079D01*
X29106Y3079D01*
X28933Y3151D01*
X28801Y3283D01*
X28746Y3417D01*
X28743Y3422D01*
X28740Y3427D01*
X28739Y3428D01*
X28735Y3432D01*
X28732Y3436D01*
X28731Y3436D01*
X28731Y3437D01*
X28726Y3440D01*
X28721Y3443D01*
X28720Y3443D01*
X28715Y3445D01*
X28709Y3447D01*
X28708Y3447D01*
X28703Y3447D01*
X28697Y3447D01*
X28696Y3447D01*
X28690Y3446D01*
X28685Y3445D01*
X28684Y3445D01*
X28679Y3442D01*
X28674Y3440D01*
X28673Y3439D01*
X28672Y3439D01*
X28668Y3435D01*
X28664Y3432D01*
X28664Y3431D01*
X28663Y3431D01*
X28656Y3421D01*
X28655Y3418D01*
X28654Y3417D01*
X28599Y3283D01*
X28467Y3151D01*
X28294Y3079D01*
X28106Y3079D01*
X27933Y3151D01*
X27801Y3283D01*
X27746Y3417D01*
X27743Y3422D01*
X27740Y3427D01*
X27739Y3428D01*
X27735Y3432D01*
X27732Y3436D01*
X27731Y3436D01*
X27731Y3437D01*
X27726Y3440D01*
X27721Y3443D01*
X27720Y3443D01*
X27715Y3445D01*
X27709Y3447D01*
X27708Y3447D01*
X27703Y3447D01*
X27697Y3447D01*
X27696Y3447D01*
X27690Y3446D01*
X27685Y3445D01*
X27684Y3445D01*
X27679Y3442D01*
X27674Y3440D01*
X27673Y3439D01*
X27672Y3439D01*
X27668Y3435D01*
X27664Y3432D01*
X27664Y3431D01*
X27663Y3431D01*
X27656Y3421D01*
X27655Y3418D01*
X27654Y3417D01*
X27599Y3283D01*
X27467Y3151D01*
X27294Y3079D01*
X27106Y3079D01*
X27032Y3110D01*
X27031Y3110D01*
X27029Y3111D01*
X27025Y3112D01*
X27020Y3113D01*
X27019Y3113D01*
X27017Y3114D01*
X27012Y3113D01*
X27008Y3113D01*
X27006Y3113D01*
X27005Y3113D01*
X27000Y3112D01*
X26996Y3111D01*
X26994Y3110D01*
X26993Y3109D01*
X26991Y3108D01*
X26985Y3105D01*
X26980Y3101D01*
X26978Y3099D01*
X24218Y339D01*
X3702Y339D01*
G37*
%LPD*%
%LPC*%
G36*
X15319Y8869D02*
X15319Y8869D01*
X15319Y8920D01*
X15319Y8925D01*
X15318Y8930D01*
X15318Y8931D01*
X15318Y8932D01*
X15316Y8937D01*
X15314Y8942D01*
X15314Y8943D01*
X15313Y8944D01*
X15310Y8948D01*
X15307Y8952D01*
X15306Y8953D01*
X15306Y8954D01*
X15302Y8957D01*
X15298Y8960D01*
X15297Y8961D01*
X15296Y8962D01*
X15292Y8964D01*
X15287Y8966D01*
X15286Y8966D01*
X15285Y8967D01*
X15273Y8969D01*
X15271Y8969D01*
X15270Y8969D01*
X14489Y8969D01*
X14491Y8980D01*
X14514Y9051D01*
X14547Y9117D01*
X14591Y9177D01*
X14643Y9229D01*
X14703Y9273D01*
X14769Y9306D01*
X14817Y9322D01*
X14818Y9322D01*
X14819Y9323D01*
X14824Y9325D01*
X14828Y9327D01*
X14829Y9328D01*
X14830Y9328D01*
X14834Y9332D01*
X14838Y9335D01*
X14838Y9336D01*
X14839Y9337D01*
X14842Y9341D01*
X14845Y9345D01*
X14845Y9346D01*
X14846Y9347D01*
X14848Y9352D01*
X14850Y9357D01*
X14850Y9358D01*
X14850Y9359D01*
X14850Y9364D01*
X14851Y9369D01*
X14851Y9370D01*
X14851Y9372D01*
X14850Y9376D01*
X14849Y9381D01*
X14849Y9383D01*
X14849Y9384D01*
X14846Y9388D01*
X14845Y9393D01*
X14844Y9394D01*
X14843Y9395D01*
X14840Y9399D01*
X14837Y9403D01*
X14836Y9404D01*
X14835Y9405D01*
X14833Y9406D01*
X14827Y9411D01*
X14823Y9413D01*
X14821Y9414D01*
X14683Y9471D01*
X14551Y9603D01*
X14479Y9776D01*
X14479Y9964D01*
X14551Y10137D01*
X14683Y10269D01*
X14817Y10324D01*
X14822Y10327D01*
X14827Y10330D01*
X14828Y10331D01*
X14832Y10335D01*
X14836Y10338D01*
X14836Y10339D01*
X14837Y10339D01*
X14840Y10344D01*
X14843Y10349D01*
X14843Y10350D01*
X14845Y10355D01*
X14847Y10361D01*
X14847Y10362D01*
X14847Y10367D01*
X14847Y10373D01*
X14847Y10374D01*
X14846Y10380D01*
X14845Y10385D01*
X14845Y10386D01*
X14842Y10391D01*
X14840Y10396D01*
X14839Y10397D01*
X14839Y10398D01*
X14835Y10402D01*
X14832Y10406D01*
X14831Y10406D01*
X14831Y10407D01*
X14821Y10414D01*
X14818Y10415D01*
X14817Y10415D01*
X14683Y10471D01*
X14551Y10603D01*
X14479Y10776D01*
X14479Y10964D01*
X14551Y11137D01*
X14633Y11219D01*
X14636Y11222D01*
X14639Y11226D01*
X14640Y11227D01*
X14640Y11228D01*
X14642Y11233D01*
X14645Y11237D01*
X14645Y11239D01*
X14645Y11240D01*
X14646Y11245D01*
X14647Y11249D01*
X14647Y11251D01*
X14647Y11252D01*
X14647Y11257D01*
X14646Y11262D01*
X14646Y11263D01*
X14646Y11264D01*
X14644Y11269D01*
X14643Y11274D01*
X14642Y11275D01*
X14642Y11276D01*
X14635Y11286D01*
X14633Y11287D01*
X14633Y11288D01*
X13659Y12262D01*
X13659Y16803D01*
X13659Y16804D01*
X13659Y16806D01*
X13658Y16810D01*
X13658Y16815D01*
X13657Y16816D01*
X13657Y16818D01*
X13655Y16822D01*
X13653Y16826D01*
X13652Y16828D01*
X13652Y16829D01*
X13649Y16833D01*
X13646Y16836D01*
X13645Y16837D01*
X13644Y16839D01*
X13641Y16840D01*
X13636Y16844D01*
X13631Y16847D01*
X13629Y16848D01*
X13547Y16882D01*
X13432Y16997D01*
X13369Y17148D01*
X13369Y17312D01*
X13432Y17463D01*
X13547Y17578D01*
X13698Y17641D01*
X13862Y17641D01*
X14013Y17578D01*
X14128Y17463D01*
X14191Y17312D01*
X14191Y17148D01*
X14128Y16997D01*
X14013Y16882D01*
X13971Y16865D01*
X13970Y16864D01*
X13968Y16863D01*
X13964Y16861D01*
X13960Y16858D01*
X13959Y16857D01*
X13958Y16857D01*
X13955Y16853D01*
X13951Y16850D01*
X13951Y16848D01*
X13950Y16847D01*
X13947Y16843D01*
X13945Y16839D01*
X13945Y16838D01*
X13944Y16836D01*
X13943Y16834D01*
X13941Y16827D01*
X13941Y16822D01*
X13941Y16819D01*
X13941Y12399D01*
X13941Y12394D01*
X13941Y12390D01*
X13942Y12388D01*
X13942Y12386D01*
X13944Y12382D01*
X13945Y12378D01*
X13946Y12377D01*
X13947Y12375D01*
X13954Y12365D01*
X13955Y12364D01*
X14395Y11924D01*
X14400Y11920D01*
X14404Y11917D01*
X14405Y11916D01*
X14410Y11914D01*
X14415Y11912D01*
X14416Y11912D01*
X14416Y11911D01*
X14422Y11911D01*
X14427Y11910D01*
X14428Y11910D01*
X14429Y11909D01*
X14434Y11910D01*
X14440Y11910D01*
X14440Y11911D01*
X14441Y11911D01*
X14446Y11913D01*
X14452Y11914D01*
X14452Y11915D01*
X14453Y11915D01*
X14457Y11918D01*
X14462Y11921D01*
X14462Y11922D01*
X14463Y11922D01*
X14467Y11926D01*
X14470Y11930D01*
X14471Y11931D01*
X14471Y11932D01*
X14474Y11937D01*
X14476Y11941D01*
X14476Y11942D01*
X14477Y11943D01*
X14479Y11955D01*
X14479Y11957D01*
X14479Y11959D01*
X14479Y11964D01*
X14551Y12137D01*
X14683Y12269D01*
X14817Y12324D01*
X14822Y12327D01*
X14827Y12330D01*
X14828Y12331D01*
X14832Y12335D01*
X14836Y12338D01*
X14836Y12339D01*
X14837Y12339D01*
X14840Y12344D01*
X14843Y12349D01*
X14843Y12350D01*
X14845Y12355D01*
X14847Y12361D01*
X14847Y12362D01*
X14847Y12367D01*
X14847Y12373D01*
X14847Y12374D01*
X14846Y12380D01*
X14845Y12385D01*
X14845Y12386D01*
X14842Y12391D01*
X14840Y12396D01*
X14839Y12397D01*
X14839Y12398D01*
X14835Y12402D01*
X14832Y12406D01*
X14831Y12406D01*
X14831Y12407D01*
X14821Y12414D01*
X14818Y12415D01*
X14817Y12415D01*
X14683Y12471D01*
X14551Y12603D01*
X14479Y12776D01*
X14479Y12964D01*
X14551Y13137D01*
X14683Y13269D01*
X14817Y13324D01*
X14822Y13327D01*
X14827Y13330D01*
X14828Y13331D01*
X14832Y13335D01*
X14836Y13338D01*
X14836Y13339D01*
X14837Y13339D01*
X14840Y13344D01*
X14843Y13349D01*
X14843Y13350D01*
X14845Y13355D01*
X14847Y13361D01*
X14847Y13362D01*
X14847Y13367D01*
X14847Y13373D01*
X14847Y13374D01*
X14846Y13380D01*
X14845Y13385D01*
X14845Y13386D01*
X14842Y13391D01*
X14840Y13396D01*
X14839Y13397D01*
X14839Y13398D01*
X14835Y13402D01*
X14832Y13406D01*
X14831Y13406D01*
X14831Y13407D01*
X14821Y13414D01*
X14818Y13415D01*
X14817Y13415D01*
X14683Y13471D01*
X14551Y13603D01*
X14479Y13776D01*
X14479Y13964D01*
X14551Y14137D01*
X14683Y14269D01*
X14856Y14341D01*
X15784Y14341D01*
X15957Y14269D01*
X16089Y14137D01*
X16161Y13964D01*
X16161Y13776D01*
X16089Y13603D01*
X15957Y13471D01*
X15823Y13415D01*
X15818Y13413D01*
X15813Y13410D01*
X15812Y13409D01*
X15808Y13405D01*
X15804Y13402D01*
X15804Y13401D01*
X15803Y13401D01*
X15800Y13396D01*
X15797Y13391D01*
X15797Y13390D01*
X15795Y13385D01*
X15793Y13379D01*
X15793Y13378D01*
X15793Y13373D01*
X15793Y13367D01*
X15793Y13366D01*
X15794Y13360D01*
X15795Y13355D01*
X15795Y13354D01*
X15798Y13349D01*
X15800Y13344D01*
X15801Y13343D01*
X15801Y13342D01*
X15805Y13338D01*
X15808Y13334D01*
X15809Y13334D01*
X15809Y13333D01*
X15819Y13326D01*
X15822Y13325D01*
X15823Y13324D01*
X15957Y13269D01*
X16089Y13137D01*
X16161Y12964D01*
X16161Y12776D01*
X16089Y12603D01*
X15957Y12471D01*
X15823Y12415D01*
X15818Y12413D01*
X15813Y12410D01*
X15812Y12409D01*
X15808Y12405D01*
X15804Y12402D01*
X15804Y12401D01*
X15803Y12401D01*
X15800Y12396D01*
X15797Y12391D01*
X15797Y12390D01*
X15795Y12385D01*
X15793Y12379D01*
X15793Y12378D01*
X15793Y12373D01*
X15793Y12367D01*
X15793Y12366D01*
X15794Y12360D01*
X15795Y12355D01*
X15795Y12354D01*
X15798Y12349D01*
X15800Y12344D01*
X15801Y12343D01*
X15801Y12342D01*
X15805Y12338D01*
X15808Y12334D01*
X15809Y12334D01*
X15809Y12333D01*
X15819Y12326D01*
X15822Y12325D01*
X15823Y12324D01*
X15957Y12269D01*
X16089Y12137D01*
X16161Y11964D01*
X16161Y11776D01*
X16089Y11603D01*
X15957Y11471D01*
X15823Y11415D01*
X15818Y11413D01*
X15813Y11410D01*
X15812Y11409D01*
X15808Y11405D01*
X15804Y11402D01*
X15804Y11401D01*
X15803Y11401D01*
X15800Y11396D01*
X15797Y11391D01*
X15797Y11390D01*
X15795Y11385D01*
X15793Y11379D01*
X15793Y11378D01*
X15793Y11373D01*
X15793Y11367D01*
X15793Y11366D01*
X15794Y11360D01*
X15795Y11355D01*
X15795Y11354D01*
X15798Y11349D01*
X15800Y11344D01*
X15801Y11343D01*
X15801Y11342D01*
X15805Y11338D01*
X15808Y11334D01*
X15809Y11334D01*
X15809Y11333D01*
X15819Y11326D01*
X15822Y11325D01*
X15823Y11324D01*
X15957Y11269D01*
X16089Y11137D01*
X16161Y10964D01*
X16161Y10776D01*
X16089Y10603D01*
X15957Y10471D01*
X15823Y10415D01*
X15818Y10413D01*
X15813Y10410D01*
X15812Y10409D01*
X15808Y10405D01*
X15804Y10402D01*
X15804Y10401D01*
X15803Y10401D01*
X15800Y10396D01*
X15797Y10391D01*
X15797Y10390D01*
X15795Y10385D01*
X15793Y10379D01*
X15793Y10378D01*
X15793Y10373D01*
X15793Y10367D01*
X15793Y10366D01*
X15794Y10360D01*
X15795Y10355D01*
X15795Y10354D01*
X15798Y10349D01*
X15800Y10344D01*
X15801Y10343D01*
X15801Y10342D01*
X15805Y10338D01*
X15808Y10334D01*
X15809Y10334D01*
X15809Y10333D01*
X15819Y10326D01*
X15822Y10325D01*
X15823Y10324D01*
X15957Y10269D01*
X16089Y10137D01*
X16161Y9964D01*
X16161Y9776D01*
X16089Y9603D01*
X15957Y9471D01*
X15819Y9414D01*
X15818Y9413D01*
X15817Y9413D01*
X15813Y9410D01*
X15809Y9408D01*
X15808Y9407D01*
X15807Y9406D01*
X15803Y9403D01*
X15800Y9399D01*
X15799Y9398D01*
X15798Y9397D01*
X15796Y9393D01*
X15793Y9389D01*
X15793Y9387D01*
X15792Y9386D01*
X15791Y9381D01*
X15790Y9377D01*
X15790Y9375D01*
X15789Y9374D01*
X15789Y9369D01*
X15789Y9364D01*
X15789Y9363D01*
X15790Y9362D01*
X15791Y9357D01*
X15792Y9352D01*
X15792Y9351D01*
X15793Y9350D01*
X15795Y9345D01*
X15797Y9341D01*
X15798Y9340D01*
X15799Y9339D01*
X15802Y9335D01*
X15806Y9332D01*
X15807Y9331D01*
X15808Y9330D01*
X15810Y9329D01*
X15816Y9325D01*
X15821Y9323D01*
X15823Y9322D01*
X15871Y9306D01*
X15937Y9273D01*
X15997Y9229D01*
X16049Y9177D01*
X16093Y9117D01*
X16126Y9051D01*
X16149Y8980D01*
X16151Y8969D01*
X15370Y8969D01*
X15365Y8969D01*
X15360Y8968D01*
X15359Y8968D01*
X15358Y8968D01*
X15353Y8966D01*
X15348Y8964D01*
X15347Y8964D01*
X15346Y8963D01*
X15342Y8960D01*
X15338Y8957D01*
X15337Y8956D01*
X15336Y8956D01*
X15333Y8952D01*
X15330Y8948D01*
X15329Y8947D01*
X15328Y8946D01*
X15326Y8942D01*
X15324Y8937D01*
X15324Y8936D01*
X15323Y8935D01*
X15321Y8923D01*
X15321Y8921D01*
X15321Y8920D01*
X15321Y8869D01*
X15319Y8869D01*
G37*
%LPD*%
%LPC*%
G36*
X21302Y939D02*
X21302Y939D01*
X20821Y1420D01*
X20818Y1422D01*
X20815Y1425D01*
X20813Y1426D01*
X20812Y1427D01*
X20808Y1429D01*
X20804Y1431D01*
X20802Y1431D01*
X20800Y1432D01*
X20796Y1433D01*
X20792Y1434D01*
X20790Y1434D01*
X20788Y1434D01*
X20784Y1434D01*
X20780Y1433D01*
X20778Y1433D01*
X20776Y1433D01*
X20772Y1431D01*
X20768Y1430D01*
X20766Y1429D01*
X20764Y1428D01*
X20761Y1426D01*
X20757Y1424D01*
X20755Y1423D01*
X20754Y1421D01*
X20751Y1418D01*
X20748Y1415D01*
X20747Y1414D01*
X20746Y1412D01*
X20740Y1401D01*
X20740Y1400D01*
X20733Y1379D01*
X20699Y1313D01*
X20656Y1253D01*
X20603Y1200D01*
X20543Y1157D01*
X20477Y1123D01*
X20407Y1100D01*
X20384Y1097D01*
X20384Y1521D01*
X20384Y1526D01*
X20383Y1531D01*
X20383Y1532D01*
X20383Y1533D01*
X20381Y1538D01*
X20379Y1542D01*
X20379Y1543D01*
X20378Y1545D01*
X20375Y1549D01*
X20373Y1553D01*
X20372Y1554D01*
X20371Y1555D01*
X20367Y1558D01*
X20365Y1559D01*
X20367Y1561D01*
X20368Y1561D01*
X20369Y1562D01*
X20372Y1566D01*
X20376Y1570D01*
X20376Y1571D01*
X20377Y1572D01*
X20379Y1576D01*
X20381Y1581D01*
X20382Y1582D01*
X20382Y1583D01*
X20384Y1595D01*
X20384Y1597D01*
X20384Y1598D01*
X20384Y2022D01*
X20407Y2019D01*
X20477Y1996D01*
X20543Y1962D01*
X20581Y1935D01*
X20583Y1934D01*
X20584Y1933D01*
X20588Y1931D01*
X20592Y1929D01*
X20594Y1928D01*
X20595Y1927D01*
X20600Y1927D01*
X20604Y1926D01*
X20606Y1926D01*
X20607Y1925D01*
X20612Y1926D01*
X20616Y1926D01*
X20618Y1926D01*
X20620Y1926D01*
X20624Y1928D01*
X20628Y1929D01*
X20630Y1930D01*
X20632Y1930D01*
X20635Y1933D01*
X20639Y1935D01*
X20641Y1936D01*
X20642Y1937D01*
X20645Y1940D01*
X20648Y1943D01*
X20649Y1945D01*
X20650Y1946D01*
X20652Y1950D01*
X20655Y1954D01*
X20655Y1956D01*
X20656Y1957D01*
X20657Y1960D01*
X20659Y1966D01*
X20659Y1972D01*
X20659Y1974D01*
X20659Y4137D01*
X20659Y4143D01*
X20658Y4148D01*
X20658Y4149D01*
X20658Y4150D01*
X20656Y4155D01*
X20654Y4160D01*
X20653Y4161D01*
X20650Y4166D01*
X20647Y4170D01*
X20646Y4171D01*
X20641Y4175D01*
X20637Y4178D01*
X20637Y4179D01*
X20636Y4179D01*
X20631Y4181D01*
X20626Y4184D01*
X20625Y4184D01*
X20619Y4185D01*
X20614Y4186D01*
X20613Y4186D01*
X20613Y4187D01*
X20607Y4186D01*
X20601Y4186D01*
X20600Y4186D01*
X20595Y4184D01*
X20590Y4182D01*
X20589Y4182D01*
X20588Y4182D01*
X20578Y4175D01*
X20576Y4173D01*
X20575Y4172D01*
X20563Y4160D01*
X20390Y4089D01*
X20203Y4089D01*
X20030Y4160D01*
X19898Y4293D01*
X19826Y4466D01*
X19826Y4653D01*
X19898Y4826D01*
X20030Y4958D01*
X20203Y5030D01*
X20390Y5030D01*
X20563Y4958D01*
X20575Y4947D01*
X20580Y4943D01*
X20584Y4940D01*
X20584Y4939D01*
X20585Y4939D01*
X20590Y4937D01*
X20595Y4934D01*
X20596Y4934D01*
X20602Y4933D01*
X20607Y4932D01*
X20608Y4932D01*
X20609Y4932D01*
X20614Y4933D01*
X20620Y4933D01*
X20621Y4933D01*
X20626Y4935D01*
X20632Y4937D01*
X20633Y4938D01*
X20637Y4941D01*
X20642Y4944D01*
X20643Y4945D01*
X20647Y4949D01*
X20650Y4953D01*
X20651Y4954D01*
X20654Y4959D01*
X20656Y4964D01*
X20656Y4965D01*
X20657Y4965D01*
X20659Y4977D01*
X20659Y4980D01*
X20659Y4981D01*
X20659Y18700D01*
X20659Y18701D01*
X20659Y18703D01*
X20658Y18707D01*
X20658Y18712D01*
X20657Y18714D01*
X20657Y18715D01*
X20655Y18719D01*
X20653Y18724D01*
X20652Y18725D01*
X20652Y18726D01*
X20649Y18730D01*
X20646Y18734D01*
X20645Y18735D01*
X20644Y18736D01*
X20641Y18737D01*
X20636Y18742D01*
X20631Y18744D01*
X20630Y18745D01*
X20545Y18830D01*
X20499Y18940D01*
X20499Y19060D01*
X20545Y19170D01*
X20630Y19255D01*
X20740Y19301D01*
X20860Y19301D01*
X20970Y19255D01*
X21055Y19170D01*
X21101Y19060D01*
X21101Y18940D01*
X21055Y18830D01*
X20970Y18745D01*
X20968Y18744D01*
X20964Y18742D01*
X20960Y18739D01*
X20959Y18738D01*
X20958Y18737D01*
X20955Y18734D01*
X20951Y18731D01*
X20951Y18729D01*
X20950Y18728D01*
X20947Y18724D01*
X20945Y18720D01*
X20945Y18718D01*
X20944Y18717D01*
X20943Y18715D01*
X20941Y18708D01*
X20941Y18703D01*
X20941Y18700D01*
X20941Y1719D01*
X20941Y1714D01*
X20941Y1710D01*
X20942Y1708D01*
X20942Y1706D01*
X20944Y1702D01*
X20945Y1698D01*
X20946Y1697D01*
X20947Y1695D01*
X20954Y1685D01*
X20955Y1684D01*
X21044Y1595D01*
X21046Y1594D01*
X21047Y1592D01*
X21051Y1590D01*
X21054Y1587D01*
X21056Y1587D01*
X21057Y1586D01*
X21061Y1584D01*
X21066Y1582D01*
X21067Y1582D01*
X21069Y1581D01*
X21073Y1581D01*
X21078Y1580D01*
X21080Y1581D01*
X21081Y1580D01*
X21086Y1581D01*
X21090Y1582D01*
X21092Y1582D01*
X21093Y1583D01*
X21098Y1584D01*
X21102Y1586D01*
X21103Y1587D01*
X21105Y1588D01*
X21108Y1590D01*
X21112Y1593D01*
X21113Y1594D01*
X21114Y1595D01*
X21117Y1599D01*
X21120Y1602D01*
X21121Y1604D01*
X21122Y1605D01*
X21123Y1608D01*
X21126Y1614D01*
X21127Y1619D01*
X21128Y1622D01*
X21137Y1683D01*
X21160Y1754D01*
X21194Y1820D01*
X21238Y1880D01*
X21290Y1932D01*
X21350Y1976D01*
X21416Y2009D01*
X21486Y2032D01*
X21509Y2036D01*
X21509Y1612D01*
X21509Y1607D01*
X21510Y1602D01*
X21510Y1601D01*
X21510Y1599D01*
X21512Y1595D01*
X21514Y1590D01*
X21514Y1589D01*
X21515Y1588D01*
X21518Y1584D01*
X21521Y1580D01*
X21522Y1579D01*
X21522Y1578D01*
X21526Y1575D01*
X21530Y1571D01*
X21531Y1571D01*
X21532Y1570D01*
X21536Y1568D01*
X21541Y1566D01*
X21542Y1565D01*
X21543Y1565D01*
X21555Y1563D01*
X21557Y1563D01*
X21558Y1562D01*
X21635Y1562D01*
X21640Y1563D01*
X21645Y1563D01*
X21646Y1564D01*
X21648Y1564D01*
X21652Y1566D01*
X21657Y1567D01*
X21658Y1568D01*
X21659Y1569D01*
X21663Y1572D01*
X21667Y1574D01*
X21668Y1575D01*
X21669Y1576D01*
X21672Y1580D01*
X21676Y1583D01*
X21676Y1585D01*
X21677Y1586D01*
X21679Y1590D01*
X21681Y1594D01*
X21682Y1595D01*
X21682Y1597D01*
X21684Y1609D01*
X21684Y1611D01*
X21684Y1612D01*
X21684Y2036D01*
X21707Y2032D01*
X21777Y2009D01*
X21843Y1976D01*
X21903Y1932D01*
X21956Y1880D01*
X21999Y1820D01*
X22033Y1754D01*
X22056Y1683D01*
X22061Y1651D01*
X22061Y1649D01*
X22062Y1647D01*
X22063Y1643D01*
X22064Y1639D01*
X22065Y1637D01*
X22066Y1636D01*
X22068Y1632D01*
X22071Y1628D01*
X22072Y1627D01*
X22073Y1625D01*
X22076Y1622D01*
X22080Y1619D01*
X22081Y1618D01*
X22082Y1617D01*
X22086Y1615D01*
X22090Y1613D01*
X22092Y1613D01*
X22094Y1612D01*
X22098Y1611D01*
X22102Y1610D01*
X22104Y1610D01*
X22106Y1609D01*
X22110Y1609D01*
X22115Y1609D01*
X22116Y1610D01*
X22118Y1610D01*
X22122Y1611D01*
X22127Y1612D01*
X22128Y1613D01*
X22130Y1613D01*
X22132Y1615D01*
X22138Y1618D01*
X22142Y1622D01*
X22144Y1623D01*
X22702Y2181D01*
X22965Y2181D01*
X22970Y2181D01*
X22975Y2182D01*
X22976Y2182D01*
X22978Y2182D01*
X22982Y2184D01*
X22987Y2186D01*
X22988Y2186D01*
X22989Y2187D01*
X22993Y2190D01*
X22997Y2193D01*
X22998Y2194D01*
X22999Y2194D01*
X23002Y2198D01*
X23006Y2202D01*
X23006Y2203D01*
X23007Y2204D01*
X23009Y2208D01*
X23012Y2213D01*
X23012Y2214D01*
X23012Y2215D01*
X23015Y2227D01*
X23238Y2450D01*
X23553Y2450D01*
X23776Y2227D01*
X23776Y1912D01*
X23553Y1689D01*
X23238Y1689D01*
X23042Y1885D01*
X23038Y1887D01*
X23035Y1890D01*
X23033Y1891D01*
X23032Y1892D01*
X23028Y1894D01*
X23024Y1896D01*
X23022Y1896D01*
X23020Y1897D01*
X23008Y1899D01*
X23007Y1899D01*
X22839Y1899D01*
X22834Y1899D01*
X22830Y1899D01*
X22828Y1898D01*
X22826Y1898D01*
X22822Y1896D01*
X22818Y1895D01*
X22817Y1894D01*
X22815Y1893D01*
X22805Y1886D01*
X22804Y1885D01*
X21858Y939D01*
X21302Y939D01*
G37*
%LPD*%
%LPC*%
G36*
X6863Y4445D02*
X6863Y4445D01*
X6804Y4504D01*
X6804Y5007D01*
X6803Y5012D01*
X6803Y5016D01*
X6802Y5018D01*
X6802Y5020D01*
X6801Y5024D01*
X6799Y5028D01*
X6798Y5029D01*
X6798Y5031D01*
X6790Y5041D01*
X6790Y5042D01*
X6789Y5042D01*
X3342Y8490D01*
X3338Y8492D01*
X3335Y8495D01*
X3333Y8496D01*
X3332Y8497D01*
X3328Y8499D01*
X3324Y8501D01*
X3323Y8501D01*
X3320Y8502D01*
X3308Y8504D01*
X3307Y8504D01*
X2197Y8504D01*
X2192Y8504D01*
X2187Y8503D01*
X2186Y8503D01*
X2185Y8503D01*
X2180Y8501D01*
X2176Y8499D01*
X2174Y8499D01*
X2173Y8498D01*
X2169Y8495D01*
X2165Y8492D01*
X2164Y8491D01*
X2163Y8491D01*
X2160Y8487D01*
X2157Y8483D01*
X2156Y8482D01*
X2155Y8481D01*
X2153Y8477D01*
X2151Y8472D01*
X2151Y8471D01*
X2150Y8470D01*
X2148Y8458D01*
X2148Y8457D01*
X2148Y8456D01*
X2148Y8455D01*
X2148Y8361D01*
X2089Y8302D01*
X1411Y8302D01*
X1352Y8361D01*
X1352Y9039D01*
X1411Y9098D01*
X2089Y9098D01*
X2148Y9039D01*
X2148Y8905D01*
X2149Y8900D01*
X2149Y8895D01*
X2149Y8894D01*
X2149Y8893D01*
X2151Y8888D01*
X2153Y8883D01*
X2154Y8882D01*
X2154Y8881D01*
X2157Y8877D01*
X2160Y8873D01*
X2161Y8872D01*
X2161Y8871D01*
X2165Y8868D01*
X2169Y8865D01*
X2170Y8864D01*
X2171Y8863D01*
X2176Y8861D01*
X2180Y8859D01*
X2181Y8859D01*
X2182Y8858D01*
X2195Y8856D01*
X2196Y8856D01*
X2197Y8856D01*
X3473Y8856D01*
X7018Y5311D01*
X7021Y5308D01*
X7024Y5306D01*
X7026Y5305D01*
X7027Y5303D01*
X7031Y5302D01*
X7035Y5300D01*
X7037Y5299D01*
X7039Y5299D01*
X7051Y5297D01*
X7052Y5297D01*
X7596Y5297D01*
X7655Y5238D01*
X7655Y4504D01*
X7596Y4445D01*
X6863Y4445D01*
G37*
%LPD*%
%LPC*%
G36*
X5205Y2549D02*
X5205Y2549D01*
X4855Y2694D01*
X4588Y2961D01*
X4443Y3311D01*
X4443Y3689D01*
X4588Y4039D01*
X4855Y4306D01*
X5205Y4451D01*
X5583Y4451D01*
X5932Y4306D01*
X6200Y4039D01*
X6344Y3689D01*
X6344Y3311D01*
X6200Y2961D01*
X5932Y2694D01*
X5583Y2549D01*
X5205Y2549D01*
G37*
%LPD*%
%LPC*%
G36*
X34006Y8250D02*
X34006Y8250D01*
X33833Y8322D01*
X33700Y8454D01*
X33628Y8627D01*
X33628Y8815D01*
X33700Y8988D01*
X33833Y9120D01*
X33966Y9175D01*
X33971Y9178D01*
X33976Y9181D01*
X33977Y9181D01*
X33977Y9182D01*
X33981Y9185D01*
X33985Y9189D01*
X33986Y9190D01*
X33989Y9195D01*
X33992Y9200D01*
X33992Y9201D01*
X33994Y9206D01*
X33996Y9211D01*
X33996Y9212D01*
X33996Y9213D01*
X33996Y9218D01*
X33997Y9224D01*
X33997Y9225D01*
X33995Y9231D01*
X33994Y9236D01*
X33994Y9237D01*
X33991Y9242D01*
X33989Y9247D01*
X33989Y9248D01*
X33988Y9248D01*
X33985Y9253D01*
X33981Y9257D01*
X33980Y9258D01*
X33970Y9265D01*
X33968Y9266D01*
X33966Y9266D01*
X33833Y9322D01*
X33700Y9454D01*
X33628Y9627D01*
X33628Y9815D01*
X33700Y9988D01*
X33833Y10120D01*
X33970Y10177D01*
X33971Y10177D01*
X33972Y10178D01*
X33976Y10181D01*
X33981Y10183D01*
X33981Y10184D01*
X33983Y10185D01*
X33986Y10188D01*
X33989Y10192D01*
X33990Y10193D01*
X33991Y10194D01*
X33993Y10198D01*
X33996Y10202D01*
X33996Y10203D01*
X33997Y10205D01*
X33998Y10209D01*
X34000Y10214D01*
X34000Y10215D01*
X34000Y10217D01*
X34000Y10222D01*
X34000Y10227D01*
X34000Y10228D01*
X34000Y10229D01*
X33998Y10234D01*
X33997Y10239D01*
X33997Y10240D01*
X33996Y10241D01*
X33994Y10245D01*
X33992Y10250D01*
X33991Y10251D01*
X33990Y10252D01*
X33987Y10255D01*
X33984Y10259D01*
X33982Y10260D01*
X33982Y10261D01*
X33979Y10262D01*
X33973Y10266D01*
X33968Y10268D01*
X33966Y10269D01*
X33919Y10285D01*
X33852Y10318D01*
X33793Y10362D01*
X33740Y10414D01*
X33697Y10474D01*
X33663Y10540D01*
X33640Y10611D01*
X33638Y10622D01*
X34049Y10622D01*
X34054Y10622D01*
X34059Y10623D01*
X34060Y10623D01*
X34062Y10623D01*
X34066Y10625D01*
X34071Y10627D01*
X34072Y10627D01*
X34073Y10628D01*
X34077Y10631D01*
X34081Y10633D01*
X34082Y10634D01*
X34083Y10635D01*
X34086Y10639D01*
X34090Y10643D01*
X34090Y10644D01*
X34091Y10645D01*
X34093Y10649D01*
X34095Y10654D01*
X34096Y10655D01*
X34096Y10656D01*
X34098Y10668D01*
X34098Y10670D01*
X34098Y10671D01*
X34098Y10722D01*
X34100Y10722D01*
X34100Y10671D01*
X34101Y10666D01*
X34101Y10661D01*
X34101Y10660D01*
X34102Y10659D01*
X34103Y10654D01*
X34105Y10649D01*
X34106Y10648D01*
X34106Y10647D01*
X34109Y10643D01*
X34112Y10639D01*
X34113Y10638D01*
X34113Y10637D01*
X34117Y10634D01*
X34121Y10631D01*
X34122Y10630D01*
X34123Y10629D01*
X34128Y10627D01*
X34132Y10625D01*
X34133Y10625D01*
X34134Y10624D01*
X34147Y10622D01*
X34148Y10622D01*
X34149Y10622D01*
X34560Y10622D01*
X34558Y10611D01*
X34535Y10540D01*
X34502Y10474D01*
X34458Y10414D01*
X34406Y10362D01*
X34346Y10318D01*
X34280Y10285D01*
X34232Y10269D01*
X34231Y10269D01*
X34230Y10268D01*
X34226Y10266D01*
X34221Y10264D01*
X34220Y10263D01*
X34219Y10262D01*
X34215Y10259D01*
X34211Y10256D01*
X34211Y10255D01*
X34210Y10254D01*
X34207Y10250D01*
X34204Y10246D01*
X34204Y10245D01*
X34203Y10243D01*
X34202Y10239D01*
X34200Y10234D01*
X34200Y10233D01*
X34199Y10232D01*
X34199Y10227D01*
X34198Y10222D01*
X34198Y10221D01*
X34198Y10219D01*
X34199Y10214D01*
X34200Y10210D01*
X34200Y10208D01*
X34201Y10207D01*
X34203Y10203D01*
X34205Y10198D01*
X34205Y10197D01*
X34206Y10196D01*
X34209Y10192D01*
X34212Y10188D01*
X34213Y10187D01*
X34214Y10186D01*
X34216Y10185D01*
X34222Y10180D01*
X34227Y10178D01*
X34229Y10177D01*
X34366Y10120D01*
X34498Y9988D01*
X34570Y9815D01*
X34570Y9627D01*
X34498Y9454D01*
X34366Y9322D01*
X34232Y9266D01*
X34227Y9264D01*
X34222Y9261D01*
X34221Y9260D01*
X34217Y9256D01*
X34213Y9253D01*
X34213Y9252D01*
X34212Y9252D01*
X34209Y9247D01*
X34206Y9242D01*
X34206Y9241D01*
X34204Y9236D01*
X34203Y9230D01*
X34202Y9229D01*
X34202Y9223D01*
X34202Y9218D01*
X34202Y9217D01*
X34203Y9211D01*
X34204Y9206D01*
X34204Y9205D01*
X34205Y9204D01*
X34207Y9199D01*
X34209Y9194D01*
X34210Y9194D01*
X34210Y9193D01*
X34214Y9189D01*
X34217Y9185D01*
X34218Y9185D01*
X34218Y9184D01*
X34229Y9177D01*
X34231Y9176D01*
X34232Y9175D01*
X34366Y9120D01*
X34498Y8988D01*
X34570Y8815D01*
X34570Y8627D01*
X34498Y8454D01*
X34366Y8322D01*
X34193Y8250D01*
X34006Y8250D01*
G37*
%LPD*%
%LPC*%
G36*
X6890Y2163D02*
X6890Y2163D01*
X6831Y2222D01*
X6831Y2956D01*
X6890Y3015D01*
X7623Y3015D01*
X7682Y2956D01*
X7682Y2222D01*
X7623Y2163D01*
X6890Y2163D01*
G37*
%LPD*%
%LPC*%
G36*
X18854Y4065D02*
X18854Y4065D01*
X18681Y4137D01*
X18548Y4270D01*
X18476Y4443D01*
X18476Y4630D01*
X18548Y4803D01*
X18681Y4935D01*
X18854Y5007D01*
X19041Y5007D01*
X19214Y4935D01*
X19346Y4803D01*
X19418Y4630D01*
X19418Y4443D01*
X19346Y4270D01*
X19214Y4137D01*
X19041Y4065D01*
X18854Y4065D01*
G37*
%LPD*%
%LPC*%
G36*
X21503Y4102D02*
X21503Y4102D01*
X21330Y4174D01*
X21198Y4306D01*
X21126Y4480D01*
X21126Y4667D01*
X21198Y4840D01*
X21330Y4972D01*
X21503Y5044D01*
X21690Y5044D01*
X21863Y4972D01*
X21996Y4840D01*
X22067Y4667D01*
X22067Y4480D01*
X21996Y4306D01*
X21863Y4174D01*
X21690Y4102D01*
X21503Y4102D01*
G37*
%LPD*%
%LPC*%
G36*
X10361Y8302D02*
X10361Y8302D01*
X10302Y8361D01*
X10302Y9039D01*
X10361Y9098D01*
X11039Y9098D01*
X11098Y9039D01*
X11098Y8361D01*
X11039Y8302D01*
X10361Y8302D01*
G37*
%LPD*%
%LPC*%
G36*
X10361Y6302D02*
X10361Y6302D01*
X10302Y6361D01*
X10302Y7039D01*
X10361Y7098D01*
X11039Y7098D01*
X11098Y7039D01*
X11098Y6361D01*
X11039Y6302D01*
X10361Y6302D01*
G37*
%LPD*%
%LPC*%
G36*
X1411Y6302D02*
X1411Y6302D01*
X1352Y6361D01*
X1352Y7039D01*
X1411Y7098D01*
X2089Y7098D01*
X2148Y7039D01*
X2148Y6361D01*
X2089Y6302D01*
X1411Y6302D01*
G37*
%LPD*%
%LPC*%
G36*
X1411Y7302D02*
X1411Y7302D01*
X1352Y7361D01*
X1352Y8039D01*
X1411Y8098D01*
X2089Y8098D01*
X2148Y8039D01*
X2148Y7361D01*
X2089Y7302D01*
X1411Y7302D01*
G37*
%LPD*%
%LPC*%
G36*
X10361Y7302D02*
X10361Y7302D01*
X10302Y7361D01*
X10302Y8039D01*
X10361Y8098D01*
X11039Y8098D01*
X11098Y8039D01*
X11098Y7361D01*
X11039Y7302D01*
X10361Y7302D01*
G37*
%LPD*%
%LPC*%
G36*
X10361Y9302D02*
X10361Y9302D01*
X10302Y9361D01*
X10302Y10039D01*
X10361Y10098D01*
X11039Y10098D01*
X11098Y10039D01*
X11098Y9361D01*
X11039Y9302D01*
X10361Y9302D01*
G37*
%LPD*%
%LPC*%
G36*
X707Y14330D02*
X707Y14330D01*
X550Y14395D01*
X431Y14514D01*
X366Y14671D01*
X366Y14840D01*
X431Y14997D01*
X550Y15117D01*
X707Y15181D01*
X876Y15181D01*
X1033Y15117D01*
X1152Y14997D01*
X1217Y14840D01*
X1217Y14671D01*
X1152Y14514D01*
X1033Y14395D01*
X876Y14330D01*
X707Y14330D01*
G37*
%LPD*%
%LPC*%
G36*
X17787Y19862D02*
X17787Y19862D01*
X17633Y19926D01*
X17516Y20043D01*
X17452Y20197D01*
X17452Y20363D01*
X17516Y20517D01*
X17633Y20634D01*
X17787Y20698D01*
X17953Y20698D01*
X18107Y20634D01*
X18224Y20517D01*
X18288Y20363D01*
X18288Y20197D01*
X18224Y20043D01*
X18107Y19926D01*
X17953Y19862D01*
X17787Y19862D01*
G37*
%LPD*%
%LPC*%
G36*
X2698Y22819D02*
X2698Y22819D01*
X2547Y22882D01*
X2432Y22997D01*
X2369Y23148D01*
X2369Y23312D01*
X2432Y23463D01*
X2547Y23578D01*
X2698Y23641D01*
X2862Y23641D01*
X3013Y23578D01*
X3128Y23463D01*
X3191Y23312D01*
X3191Y23148D01*
X3128Y22997D01*
X3013Y22882D01*
X2862Y22819D01*
X2698Y22819D01*
G37*
%LPD*%
%LPC*%
G36*
X11698Y16819D02*
X11698Y16819D01*
X11547Y16882D01*
X11432Y16997D01*
X11369Y17148D01*
X11369Y17312D01*
X11432Y17463D01*
X11547Y17578D01*
X11698Y17641D01*
X11862Y17641D01*
X12013Y17578D01*
X12128Y17463D01*
X12191Y17312D01*
X12191Y17148D01*
X12128Y16997D01*
X12013Y16882D01*
X11862Y16819D01*
X11698Y16819D01*
G37*
%LPD*%
%LPC*%
G36*
X12698Y16819D02*
X12698Y16819D01*
X12547Y16882D01*
X12432Y16997D01*
X12369Y17148D01*
X12369Y17312D01*
X12432Y17463D01*
X12547Y17578D01*
X12698Y17641D01*
X12862Y17641D01*
X13013Y17578D01*
X13128Y17463D01*
X13191Y17312D01*
X13191Y17148D01*
X13128Y16997D01*
X13013Y16882D01*
X12862Y16819D01*
X12698Y16819D01*
G37*
%LPD*%
%LPC*%
G36*
X1698Y22819D02*
X1698Y22819D01*
X1547Y22882D01*
X1432Y22997D01*
X1369Y23148D01*
X1369Y23312D01*
X1432Y23463D01*
X1547Y23578D01*
X1698Y23641D01*
X1862Y23641D01*
X2013Y23578D01*
X2128Y23463D01*
X2191Y23312D01*
X2191Y23148D01*
X2128Y22997D01*
X2013Y22882D01*
X1862Y22819D01*
X1698Y22819D01*
G37*
%LPD*%
%LPC*%
G36*
X3698Y22819D02*
X3698Y22819D01*
X3547Y22882D01*
X3432Y22997D01*
X3369Y23148D01*
X3369Y23312D01*
X3432Y23463D01*
X3547Y23578D01*
X3698Y23641D01*
X3862Y23641D01*
X4013Y23578D01*
X4128Y23463D01*
X4191Y23312D01*
X4191Y23148D01*
X4128Y22997D01*
X4013Y22882D01*
X3862Y22819D01*
X3698Y22819D01*
G37*
%LPD*%
%LPC*%
G36*
X4698Y22819D02*
X4698Y22819D01*
X4547Y22882D01*
X4432Y22997D01*
X4369Y23148D01*
X4369Y23312D01*
X4432Y23463D01*
X4547Y23578D01*
X4698Y23641D01*
X4862Y23641D01*
X5013Y23578D01*
X5128Y23463D01*
X5191Y23312D01*
X5191Y23148D01*
X5128Y22997D01*
X5013Y22882D01*
X4862Y22819D01*
X4698Y22819D01*
G37*
%LPD*%
%LPC*%
G36*
X698Y22819D02*
X698Y22819D01*
X547Y22882D01*
X432Y22997D01*
X369Y23148D01*
X369Y23312D01*
X432Y23463D01*
X547Y23578D01*
X698Y23641D01*
X862Y23641D01*
X1013Y23578D01*
X1128Y23463D01*
X1191Y23312D01*
X1191Y23148D01*
X1128Y22997D01*
X1013Y22882D01*
X862Y22819D01*
X698Y22819D01*
G37*
%LPD*%
%LPC*%
G36*
X3131Y3401D02*
X3131Y3401D01*
X3977Y3401D01*
X3970Y3340D01*
X3947Y3236D01*
X3911Y3136D01*
X3865Y3039D01*
X3808Y2949D01*
X3742Y2865D01*
X3666Y2790D01*
X3583Y2723D01*
X3492Y2667D01*
X3396Y2620D01*
X3295Y2585D01*
X3191Y2561D01*
X3131Y2554D01*
X3131Y3401D01*
G37*
%LPD*%
%LPC*%
G36*
X3131Y3599D02*
X3131Y3599D01*
X3131Y4446D01*
X3191Y4439D01*
X3295Y4415D01*
X3396Y4380D01*
X3492Y4333D01*
X3583Y4277D01*
X3666Y4210D01*
X3742Y4135D01*
X3808Y4051D01*
X3865Y3961D01*
X3911Y3864D01*
X3947Y3764D01*
X3970Y3660D01*
X3977Y3599D01*
X3131Y3599D01*
G37*
%LPD*%
%LPC*%
G36*
X2872Y2561D02*
X2872Y2561D01*
X2768Y2585D01*
X2667Y2620D01*
X2571Y2667D01*
X2480Y2723D01*
X2397Y2790D01*
X2321Y2865D01*
X2255Y2949D01*
X2198Y3039D01*
X2152Y3136D01*
X2116Y3236D01*
X2093Y3340D01*
X2086Y3401D01*
X2932Y3401D01*
X2932Y2554D01*
X2872Y2561D01*
G37*
%LPD*%
%LPC*%
G36*
X4312Y1749D02*
X4312Y1749D01*
X4312Y2595D01*
X4372Y2588D01*
X4476Y2565D01*
X4577Y2529D01*
X4673Y2483D01*
X4764Y2426D01*
X4847Y2360D01*
X4923Y2284D01*
X4989Y2201D01*
X5046Y2110D01*
X5092Y2014D01*
X5128Y1913D01*
X5151Y1809D01*
X5158Y1749D01*
X4312Y1749D01*
G37*
%LPD*%
%LPC*%
G36*
X2086Y3599D02*
X2086Y3599D01*
X2093Y3660D01*
X2116Y3764D01*
X2152Y3864D01*
X2198Y3961D01*
X2255Y4051D01*
X2321Y4135D01*
X2397Y4210D01*
X2480Y4277D01*
X2571Y4333D01*
X2667Y4380D01*
X2768Y4415D01*
X2872Y4439D01*
X2932Y4446D01*
X2932Y3599D01*
X2086Y3599D01*
G37*
%LPD*%
%LPC*%
G36*
X3267Y1749D02*
X3267Y1749D01*
X3274Y1809D01*
X3298Y1913D01*
X3333Y2014D01*
X3379Y2110D01*
X3436Y2201D01*
X3503Y2284D01*
X3578Y2360D01*
X3662Y2426D01*
X3752Y2483D01*
X3848Y2529D01*
X3949Y2565D01*
X4053Y2588D01*
X4113Y2595D01*
X4113Y1749D01*
X3267Y1749D01*
G37*
%LPD*%
%LPC*%
G36*
X14913Y8399D02*
X14913Y8399D01*
X14840Y8411D01*
X14769Y8434D01*
X14703Y8467D01*
X14643Y8511D01*
X14591Y8563D01*
X14547Y8623D01*
X14514Y8689D01*
X14491Y8760D01*
X14489Y8771D01*
X15221Y8771D01*
X15221Y8399D01*
X14913Y8399D01*
G37*
%LPD*%
%LPC*%
G36*
X15419Y8399D02*
X15419Y8399D01*
X15419Y8771D01*
X16151Y8771D01*
X16149Y8760D01*
X16126Y8689D01*
X16093Y8623D01*
X16049Y8563D01*
X15997Y8511D01*
X15937Y8467D01*
X15871Y8434D01*
X15800Y8411D01*
X15727Y8399D01*
X15419Y8399D01*
G37*
%LPD*%
%LPC*%
G36*
X16909Y1295D02*
X16909Y1295D01*
X16836Y1307D01*
X16765Y1330D01*
X16699Y1364D01*
X16639Y1407D01*
X16587Y1460D01*
X16543Y1519D01*
X16510Y1586D01*
X16487Y1656D01*
X16485Y1667D01*
X17217Y1667D01*
X17217Y1295D01*
X16909Y1295D01*
G37*
%LPD*%
%LPC*%
G36*
X17415Y1295D02*
X17415Y1295D01*
X17415Y1667D01*
X18147Y1667D01*
X18145Y1656D01*
X18122Y1586D01*
X18089Y1519D01*
X18045Y1460D01*
X17993Y1407D01*
X17933Y1364D01*
X17867Y1330D01*
X17796Y1307D01*
X17723Y1295D01*
X17415Y1295D01*
G37*
%LPD*%
%LPC*%
G36*
X17968Y21862D02*
X17968Y21862D01*
X17968Y22182D01*
X18288Y22182D01*
X18288Y21950D01*
X18281Y21924D01*
X18267Y21901D01*
X18249Y21883D01*
X18226Y21869D01*
X18200Y21862D01*
X17968Y21862D01*
G37*
%LPD*%
%LPC*%
G36*
X18837Y1077D02*
X18837Y1077D01*
X18767Y1100D01*
X18701Y1134D01*
X18641Y1177D01*
X18588Y1230D01*
X18545Y1289D01*
X18511Y1356D01*
X18488Y1426D01*
X18485Y1448D01*
X18859Y1448D01*
X18859Y1074D01*
X18837Y1077D01*
G37*
%LPD*%
%LPC*%
G36*
X18485Y1624D02*
X18485Y1624D01*
X18488Y1646D01*
X18511Y1717D01*
X18545Y1783D01*
X18588Y1843D01*
X18641Y1895D01*
X18701Y1939D01*
X18767Y1972D01*
X18837Y1995D01*
X18859Y1999D01*
X18859Y1624D01*
X18485Y1624D01*
G37*
%LPD*%
%LPC*%
G36*
X19035Y1448D02*
X19035Y1448D01*
X19410Y1448D01*
X19406Y1426D01*
X19384Y1356D01*
X19350Y1289D01*
X19306Y1230D01*
X19254Y1177D01*
X19194Y1134D01*
X19128Y1100D01*
X19057Y1077D01*
X19035Y1074D01*
X19035Y1448D01*
G37*
%LPD*%
%LPC*%
G36*
X19035Y1624D02*
X19035Y1624D01*
X19035Y1999D01*
X19057Y1995D01*
X19128Y1972D01*
X19194Y1939D01*
X19254Y1895D01*
X19306Y1843D01*
X19350Y1783D01*
X19384Y1717D01*
X19406Y1646D01*
X19410Y1624D01*
X19035Y1624D01*
G37*
%LPD*%
%LPC*%
G36*
X20186Y1100D02*
X20186Y1100D01*
X20116Y1123D01*
X20050Y1157D01*
X19990Y1200D01*
X19938Y1253D01*
X19894Y1313D01*
X19860Y1379D01*
X19837Y1449D01*
X19834Y1472D01*
X20209Y1472D01*
X20209Y1097D01*
X20186Y1100D01*
G37*
%LPD*%
%LPC*%
G36*
X19834Y1647D02*
X19834Y1647D01*
X19837Y1670D01*
X19860Y1740D01*
X19894Y1806D01*
X19938Y1866D01*
X19990Y1918D01*
X20050Y1962D01*
X20116Y1996D01*
X20186Y2019D01*
X20209Y2022D01*
X20209Y1647D01*
X19834Y1647D01*
G37*
%LPD*%
%LPC*%
G36*
X1838Y9788D02*
X1838Y9788D01*
X1838Y10098D01*
X2060Y10098D01*
X2086Y10091D01*
X2109Y10078D01*
X2128Y10059D01*
X2141Y10036D01*
X2148Y10010D01*
X2148Y9788D01*
X1838Y9788D01*
G37*
%LPD*%
%LPC*%
G36*
X1838Y9302D02*
X1838Y9302D01*
X1838Y9612D01*
X2148Y9612D01*
X2148Y9390D01*
X2141Y9364D01*
X2128Y9341D01*
X2109Y9322D01*
X2086Y9309D01*
X2060Y9302D01*
X1838Y9302D01*
G37*
%LPD*%
%LPC*%
G36*
X1440Y9302D02*
X1440Y9302D01*
X1414Y9309D01*
X1391Y9322D01*
X1372Y9341D01*
X1359Y9364D01*
X1352Y9390D01*
X1352Y9612D01*
X1662Y9612D01*
X1662Y9302D01*
X1440Y9302D01*
G37*
%LPD*%
%LPC*%
G36*
X15140Y15991D02*
X15140Y15991D01*
X15069Y16014D01*
X15003Y16047D01*
X14943Y16091D01*
X14891Y16143D01*
X14847Y16203D01*
X14814Y16269D01*
X14791Y16340D01*
X14789Y16351D01*
X15151Y16351D01*
X15151Y15989D01*
X15140Y15991D01*
G37*
%LPD*%
%LPC*%
G36*
X33638Y10820D02*
X33638Y10820D01*
X33640Y10831D01*
X33663Y10902D01*
X33697Y10968D01*
X33740Y11028D01*
X33793Y11080D01*
X33852Y11123D01*
X33919Y11157D01*
X33989Y11180D01*
X34000Y11182D01*
X34000Y10820D01*
X33638Y10820D01*
G37*
%LPD*%
%LPC*%
G36*
X15349Y16351D02*
X15349Y16351D01*
X15711Y16351D01*
X15709Y16340D01*
X15686Y16269D01*
X15653Y16203D01*
X15609Y16143D01*
X15557Y16091D01*
X15497Y16047D01*
X15431Y16014D01*
X15360Y15991D01*
X15349Y15989D01*
X15349Y16351D01*
G37*
%LPD*%
%LPC*%
G36*
X34198Y10820D02*
X34198Y10820D01*
X34198Y11182D01*
X34209Y11180D01*
X34280Y11157D01*
X34346Y11123D01*
X34406Y11080D01*
X34458Y11028D01*
X34502Y10968D01*
X34535Y10902D01*
X34558Y10831D01*
X34560Y10820D01*
X34198Y10820D01*
G37*
%LPD*%
%LPC*%
G36*
X7298Y3818D02*
X7298Y3818D01*
X7650Y3818D01*
X7645Y3787D01*
X7624Y3723D01*
X7594Y3663D01*
X7554Y3609D01*
X7507Y3562D01*
X7453Y3522D01*
X7393Y3492D01*
X7329Y3471D01*
X7298Y3466D01*
X7298Y3818D01*
G37*
%LPD*%
%LPC*%
G36*
X7130Y3471D02*
X7130Y3471D01*
X7066Y3492D01*
X7006Y3522D01*
X6952Y3562D01*
X6905Y3609D01*
X6865Y3663D01*
X6835Y3723D01*
X6814Y3787D01*
X6809Y3818D01*
X7161Y3818D01*
X7161Y3466D01*
X7130Y3471D01*
G37*
%LPD*%
%LPC*%
G36*
X16848Y17312D02*
X16848Y17312D01*
X17200Y17312D01*
X17195Y17280D01*
X17175Y17217D01*
X17144Y17157D01*
X17105Y17103D01*
X17057Y17055D01*
X17003Y17016D01*
X16943Y16985D01*
X16880Y16965D01*
X16848Y16960D01*
X16848Y17312D01*
G37*
%LPD*%
%LPC*%
G36*
X692Y15340D02*
X692Y15340D01*
X628Y15361D01*
X568Y15391D01*
X514Y15431D01*
X467Y15478D01*
X427Y15532D01*
X397Y15592D01*
X376Y15656D01*
X371Y15687D01*
X723Y15687D01*
X723Y15335D01*
X692Y15340D01*
G37*
%LPD*%
%LPC*%
G36*
X860Y15687D02*
X860Y15687D01*
X1212Y15687D01*
X1207Y15656D01*
X1186Y15592D01*
X1156Y15532D01*
X1116Y15478D01*
X1069Y15431D01*
X1015Y15391D01*
X955Y15361D01*
X891Y15340D01*
X860Y15335D01*
X860Y15687D01*
G37*
%LPD*%
%LPC*%
G36*
X371Y15824D02*
X371Y15824D01*
X376Y15855D01*
X397Y15919D01*
X427Y15979D01*
X467Y16033D01*
X514Y16080D01*
X568Y16120D01*
X628Y16150D01*
X692Y16171D01*
X723Y16176D01*
X723Y15824D01*
X371Y15824D01*
G37*
%LPD*%
%LPC*%
G36*
X860Y15824D02*
X860Y15824D01*
X860Y16176D01*
X891Y16171D01*
X955Y16150D01*
X1015Y16120D01*
X1069Y16080D01*
X1116Y16033D01*
X1156Y15979D01*
X1186Y15919D01*
X1207Y15855D01*
X1212Y15824D01*
X860Y15824D01*
G37*
%LPD*%
%LPC*%
G36*
X6809Y3955D02*
X6809Y3955D01*
X6814Y3986D01*
X6835Y4050D01*
X6865Y4110D01*
X6905Y4164D01*
X6952Y4211D01*
X7006Y4251D01*
X7066Y4281D01*
X7130Y4302D01*
X7161Y4307D01*
X7161Y3955D01*
X6809Y3955D01*
G37*
%LPD*%
%LPC*%
G36*
X6836Y1673D02*
X6836Y1673D01*
X6841Y1704D01*
X6862Y1768D01*
X6892Y1828D01*
X6932Y1882D01*
X6979Y1929D01*
X7033Y1969D01*
X7093Y1999D01*
X7157Y2020D01*
X7188Y2025D01*
X7188Y1673D01*
X6836Y1673D01*
G37*
%LPD*%
%LPC*%
G36*
X7324Y1673D02*
X7324Y1673D01*
X7324Y2025D01*
X7356Y2020D01*
X7420Y1999D01*
X7479Y1969D01*
X7534Y1929D01*
X7581Y1882D01*
X7620Y1828D01*
X7651Y1768D01*
X7672Y1704D01*
X7677Y1673D01*
X7324Y1673D01*
G37*
%LPD*%
%LPC*%
G36*
X7298Y3955D02*
X7298Y3955D01*
X7298Y4307D01*
X7329Y4302D01*
X7393Y4281D01*
X7453Y4251D01*
X7507Y4211D01*
X7554Y4164D01*
X7594Y4110D01*
X7624Y4050D01*
X7645Y3986D01*
X7650Y3955D01*
X7298Y3955D01*
G37*
%LPD*%
%LPC*%
G36*
X16680Y16965D02*
X16680Y16965D01*
X16617Y16985D01*
X16557Y17016D01*
X16503Y17055D01*
X16455Y17103D01*
X16416Y17157D01*
X16385Y17217D01*
X16365Y17280D01*
X16360Y17312D01*
X16712Y17312D01*
X16712Y16960D01*
X16680Y16965D01*
G37*
%LPD*%
%LPC*%
G36*
X16848Y17448D02*
X16848Y17448D01*
X16848Y17800D01*
X16880Y17795D01*
X16943Y17775D01*
X17003Y17744D01*
X17057Y17705D01*
X17105Y17657D01*
X17144Y17603D01*
X17175Y17543D01*
X17195Y17480D01*
X17200Y17448D01*
X16848Y17448D01*
G37*
%LPD*%
%LPC*%
G36*
X7157Y1189D02*
X7157Y1189D01*
X7093Y1210D01*
X7033Y1241D01*
X6979Y1280D01*
X6932Y1327D01*
X6892Y1382D01*
X6862Y1441D01*
X6841Y1505D01*
X6836Y1537D01*
X7188Y1537D01*
X7188Y1184D01*
X7157Y1189D01*
G37*
%LPD*%
%LPC*%
G36*
X7324Y1537D02*
X7324Y1537D01*
X7677Y1537D01*
X7672Y1505D01*
X7651Y1441D01*
X7620Y1382D01*
X7581Y1327D01*
X7534Y1280D01*
X7479Y1241D01*
X7420Y1210D01*
X7356Y1189D01*
X7324Y1184D01*
X7324Y1537D01*
G37*
%LPD*%
%LPC*%
G36*
X684Y16829D02*
X684Y16829D01*
X622Y16849D01*
X565Y16879D01*
X512Y16917D01*
X467Y16962D01*
X429Y17015D01*
X399Y17072D01*
X379Y17134D01*
X379Y17136D01*
X686Y17136D01*
X686Y16829D01*
X684Y16829D01*
G37*
%LPD*%
%LPC*%
G36*
X379Y17324D02*
X379Y17324D01*
X379Y17326D01*
X399Y17388D01*
X429Y17445D01*
X467Y17498D01*
X512Y17543D01*
X565Y17581D01*
X622Y17611D01*
X684Y17631D01*
X686Y17631D01*
X686Y17324D01*
X379Y17324D01*
G37*
%LPD*%
%LPC*%
G36*
X874Y17324D02*
X874Y17324D01*
X874Y17631D01*
X876Y17631D01*
X938Y17611D01*
X995Y17581D01*
X1048Y17543D01*
X1093Y17498D01*
X1131Y17445D01*
X1161Y17388D01*
X1181Y17326D01*
X1181Y17324D01*
X874Y17324D01*
G37*
%LPD*%
%LPC*%
G36*
X874Y17136D02*
X874Y17136D01*
X1181Y17136D01*
X1181Y17134D01*
X1161Y17072D01*
X1131Y17015D01*
X1093Y16962D01*
X1048Y16917D01*
X995Y16879D01*
X938Y16849D01*
X876Y16829D01*
X874Y16829D01*
X874Y17136D01*
G37*
%LPD*%
%LPC*%
G36*
X3031Y3499D02*
X3031Y3499D01*
X3031Y3501D01*
X3032Y3501D01*
X3032Y3499D01*
X3031Y3499D01*
G37*
%LPD*%
D10*
X7230Y4871D03*
D11*
X7230Y3887D03*
X791Y14756D03*
X791Y15756D03*
D12*
X5394Y3500D03*
X3031Y3500D03*
X4213Y1650D03*
D13*
X30084Y2087D03*
X31084Y2087D03*
X26713Y2058D03*
X27713Y2058D03*
X23395Y2069D03*
X24395Y2069D03*
D14*
X15690Y8870D02*
X14950Y8870D01*
X14950Y9870D02*
X15690Y9870D01*
X15690Y10870D02*
X14950Y10870D01*
X14950Y11870D02*
X15690Y11870D01*
X15690Y12870D02*
X14950Y12870D01*
X14950Y13870D02*
X15690Y13870D01*
D15*
X30200Y3550D03*
X29200Y3550D03*
X28200Y3550D03*
X27200Y3550D03*
X26200Y3550D03*
X25200Y3550D03*
X24200Y3550D03*
X23200Y3550D03*
X21597Y1573D03*
X21597Y4573D03*
X20297Y1559D03*
X20297Y4559D03*
X18947Y1536D03*
X18947Y4536D03*
X15250Y16450D03*
X15250Y17450D03*
X15250Y18450D03*
X15250Y19450D03*
X15250Y20450D03*
X15250Y21450D03*
X15250Y22450D03*
D16*
X10700Y9700D03*
X10700Y8700D03*
X10700Y7700D03*
X10700Y6700D03*
X1750Y9700D03*
X1750Y8700D03*
X1750Y7700D03*
X1750Y6700D03*
D17*
X17870Y22280D03*
D18*
X17870Y21280D03*
X17870Y20280D03*
X16870Y20280D03*
X16870Y21280D03*
X16870Y22280D03*
X16870Y19280D03*
D17*
X17870Y19280D03*
D15*
X34099Y10721D03*
X34099Y9721D03*
X34099Y8721D03*
D14*
X17686Y1766D02*
X16946Y1766D01*
X16946Y2766D02*
X17686Y2766D01*
X17686Y3766D02*
X16946Y3766D01*
D11*
X16780Y16380D03*
X16780Y17380D03*
D10*
X7256Y2589D03*
D11*
X7256Y1605D03*
D19*
X780Y17230D03*
X1780Y17230D03*
X2780Y17230D03*
X3780Y17230D03*
X4780Y17230D03*
X5780Y17230D03*
X6780Y17230D03*
X7780Y17230D03*
X8780Y17230D03*
X9780Y17230D03*
X10780Y17230D03*
X11780Y17230D03*
X12780Y17230D03*
X13780Y17230D03*
X13780Y23230D03*
X12780Y23230D03*
X11780Y23230D03*
X10780Y23230D03*
X9780Y23230D03*
X8780Y23230D03*
X7780Y23230D03*
X6780Y23230D03*
X5780Y23230D03*
X4780Y23230D03*
X3780Y23230D03*
X2780Y23230D03*
X1780Y23230D03*
X780Y23230D03*
D20*
X16840Y19640D02*
X16840Y19280D01*
X16840Y19640D02*
X16360Y20120D01*
X16360Y20800D01*
X16840Y21280D01*
X16840Y19280D02*
X16870Y19280D01*
X16840Y21280D02*
X16870Y21280D01*
X16760Y16400D02*
X16320Y16400D01*
X15280Y17440D01*
X16760Y16400D02*
X16780Y16380D01*
X15280Y17440D02*
X15250Y17450D01*
X3400Y8680D02*
X1760Y8680D01*
X3400Y8680D02*
X7200Y4880D01*
X1760Y8680D02*
X1750Y8700D01*
X7200Y4880D02*
X7230Y4871D01*
X16800Y4280D02*
X16800Y16320D01*
X16800Y4280D02*
X17280Y3800D01*
X16800Y16320D02*
X16780Y16380D01*
X17280Y3800D02*
X17316Y3766D01*
D21*
X8840Y22160D02*
X7800Y23200D01*
X7780Y23230D01*
D22*
X8840Y22160D03*
D21*
X13800Y17200D02*
X13800Y12320D01*
X15240Y10880D01*
X15320Y10880D01*
X13800Y17200D02*
X13780Y17230D01*
X15320Y10880D02*
X15320Y10870D01*
X2760Y11480D02*
X2760Y17200D01*
X2760Y11480D02*
X960Y9680D01*
X960Y3520D01*
X3840Y640D01*
X23560Y640D01*
X26200Y3280D01*
X26200Y3550D01*
X2780Y17230D02*
X2760Y17200D01*
X1760Y17200D02*
X1760Y10720D01*
X800Y9760D01*
X800Y3440D01*
X3760Y480D01*
X24160Y480D01*
X27200Y3520D01*
X1780Y17230D02*
X1760Y17200D01*
X27200Y3550D02*
X27200Y3520D01*
X8920Y17240D02*
X8800Y17240D01*
X8920Y17240D02*
X13640Y21960D01*
X16520Y21960D01*
X16840Y22280D01*
X8800Y17240D02*
X8780Y17230D01*
X16840Y22280D02*
X16870Y22280D01*
X8160Y17240D02*
X7800Y17240D01*
X8160Y17240D02*
X13720Y22800D01*
X14880Y22800D01*
X15040Y22960D01*
X16840Y22960D01*
X17400Y22400D01*
X17400Y21720D01*
X17840Y21280D01*
X7800Y17240D02*
X7780Y17230D01*
X17840Y21280D02*
X17870Y21280D01*
X4200Y17200D02*
X3800Y17200D01*
X4200Y17200D02*
X4600Y16800D01*
X8960Y16800D01*
X9320Y17160D01*
X9320Y17400D01*
X10880Y18960D01*
X16560Y18960D01*
X16680Y18840D01*
X17080Y18840D01*
X17320Y19080D01*
X17320Y19840D01*
X16880Y20280D01*
X3800Y17200D02*
X3780Y17230D01*
X16870Y20280D02*
X16880Y20280D01*
X10160Y17240D02*
X9800Y17240D01*
X10160Y17240D02*
X10880Y17960D01*
X16520Y17960D01*
X17840Y19280D01*
X9800Y17240D02*
X9780Y17230D01*
X17840Y19280D02*
X17870Y19280D01*
X30120Y2760D02*
X30120Y2120D01*
X30120Y2760D02*
X30720Y3360D01*
X30720Y10240D01*
X17280Y23680D01*
X7240Y23680D01*
X6800Y23240D01*
X30084Y2087D02*
X30120Y2120D01*
X6800Y23240D02*
X6780Y23230D01*
X26720Y2040D02*
X27160Y2040D01*
X27560Y1640D01*
X30240Y1640D01*
X30680Y2080D01*
X30680Y3080D01*
X30880Y3280D01*
X30880Y10320D01*
X17360Y23840D01*
X6400Y23840D01*
X5800Y23240D01*
X26713Y2058D02*
X26720Y2040D01*
X5800Y23240D02*
X5780Y23230D01*
X22760Y2040D02*
X23360Y2040D01*
X22760Y2040D02*
X21800Y1080D01*
X21360Y1080D01*
X20800Y1640D01*
X20800Y19000D01*
X23395Y2069D02*
X23360Y2040D01*
D22*
X20800Y19000D03*
M02*
