G04 EAGLE Gerber X2 export*
%TF.Part,Single*%
%TF.FileFunction,Other,Top Soldermask*%
%TF.FilePolarity,Positive*%
%TF.GenerationSoftware,Autodesk,EAGLE,9.1.1*%
%TF.CreationDate,2018-08-06T02:15:33Z*%
G75*
%MOIN*%
%FSLAX34Y34*%
%LPD*%
%AMOC8*
5,1,8,0,0,1.08239X$1,22.5*%
G01*
%ADD10R,0.073000X0.073000*%
%ADD11C,0.073000*%
%ADD12C,0.178000*%
%ADD13P,0.069273X8X22.500000*%
%ADD14C,0.082000*%
%ADD15C,0.082000*%
%ADD16R,0.067433X0.067433*%
%ADD17R,0.071370X0.071370*%
%ADD18C,0.071370*%
%ADD19C,0.070000*%


D10*
X7230Y4871D03*
D11*
X7230Y3887D03*
X791Y14756D03*
X791Y15756D03*
D12*
X5394Y3500D03*
X3031Y3500D03*
X4213Y1650D03*
D13*
X30084Y2087D03*
X31084Y2087D03*
X26713Y2058D03*
X27713Y2058D03*
X23395Y2069D03*
X24395Y2069D03*
D14*
X15690Y8870D02*
X14950Y8870D01*
X14950Y9870D02*
X15690Y9870D01*
X15690Y10870D02*
X14950Y10870D01*
X14950Y11870D02*
X15690Y11870D01*
X15690Y12870D02*
X14950Y12870D01*
X14950Y13870D02*
X15690Y13870D01*
D15*
X30200Y3550D03*
X29200Y3550D03*
X28200Y3550D03*
X27200Y3550D03*
X26200Y3550D03*
X25200Y3550D03*
X24200Y3550D03*
X23200Y3550D03*
X21597Y1573D03*
X21597Y4573D03*
X20297Y1559D03*
X20297Y4559D03*
X18947Y1536D03*
X18947Y4536D03*
X15250Y16450D03*
X15250Y17450D03*
X15250Y18450D03*
X15250Y19450D03*
X15250Y20450D03*
X15250Y21450D03*
X15250Y22450D03*
D16*
X10700Y9700D03*
X10700Y8700D03*
X10700Y7700D03*
X10700Y6700D03*
X1750Y9700D03*
X1750Y8700D03*
X1750Y7700D03*
X1750Y6700D03*
D17*
X17870Y22280D03*
D18*
X17870Y21280D03*
X17870Y20280D03*
X16870Y20280D03*
X16870Y21280D03*
X16870Y22280D03*
X16870Y19280D03*
D17*
X17870Y19280D03*
D15*
X34099Y10721D03*
X34099Y9721D03*
X34099Y8721D03*
D14*
X17686Y1766D02*
X16946Y1766D01*
X16946Y2766D02*
X17686Y2766D01*
X17686Y3766D02*
X16946Y3766D01*
D11*
X16780Y16380D03*
X16780Y17380D03*
D10*
X7256Y2589D03*
D11*
X7256Y1605D03*
D19*
X780Y17230D03*
X1780Y17230D03*
X2780Y17230D03*
X3780Y17230D03*
X4780Y17230D03*
X5780Y17230D03*
X6780Y17230D03*
X7780Y17230D03*
X8780Y17230D03*
X9780Y17230D03*
X10780Y17230D03*
X11780Y17230D03*
X12780Y17230D03*
X13780Y17230D03*
X13780Y23230D03*
X12780Y23230D03*
X11780Y23230D03*
X10780Y23230D03*
X9780Y23230D03*
X8780Y23230D03*
X7780Y23230D03*
X6780Y23230D03*
X5780Y23230D03*
X4780Y23230D03*
X3780Y23230D03*
X2780Y23230D03*
X1780Y23230D03*
X780Y23230D03*
M02*
