M48
;GenerationSoftware,Autodesk,EAGLE,9.1.1*%
;CreationDate,2018-08-06T02:15:32Z*%
FMAT,2
ICI,OFF
INCH,TZ,000.000
T9C0.020
T8C0.028
T7C0.032
T6C0.035
T5C0.038
T4C0.039
T3C0.040
T2C0.044
T1C0.118
%
G90
M72
T1
X421Y165
X303Y350
X539Y350
T2
X1532Y1287
X1532Y1387
X1532Y1187
X1732Y177
X1732Y277
X1732Y377
X1532Y1087
X1532Y987
X1532Y887
T3
X3020Y355
X3410Y1072
X3410Y872
X3410Y972
X2920Y355
X2820Y355
X2720Y355
X2620Y355
X2520Y355
X2420Y355
X2320Y355
X1525Y2245
X1525Y2145
X1525Y2045
X1525Y1945
X1525Y1645
X1525Y1745
X1525Y1845
T4
X1687Y2028
X1787Y2028
X1687Y2228
X1687Y1928
X1787Y1928
X1687Y2128
X1787Y2128
X1787Y2228
T5
X1078Y1723
X1178Y1723
X1278Y1723
X1378Y1723
X978Y1723
X878Y1723
X778Y1723
X678Y1723
X578Y1723
X478Y1723
X378Y1723
X278Y1723
X1378Y2323
X1278Y2323
X1178Y2323
X1078Y2323
X978Y2323
X878Y2323
X778Y2323
X678Y2323
X578Y2323
X478Y2323
X378Y2323
X278Y2323
X178Y2323
X78Y2323
X178Y1723
X78Y1723
T6
X175Y770
X175Y670
X175Y870
X175Y970
X1070Y670
X1070Y770
X1070Y870
X1070Y970
X1895Y454
X1895Y154
X2030Y456
X2030Y156
X2160Y457
X2160Y157
T7
X2440Y207
X2340Y207
X2771Y206
X2671Y206
X3108Y209
X3008Y209
T8
X726Y160
X1678Y1738
X1678Y1638
X726Y259
X79Y1576
X79Y1476
X723Y389
X723Y487
T9
X2080Y1900
X884Y2216
M30